<svg xmlns="http://www.w3.org/2000/svg" width="24" height="24" fill="none">
  <path fill="#fff" d="M12 12.75a4.5 4.5 0 1 1 0-9 4.5 4.5 0 0 1 0 9Zm0-7.5a3 3 0 1 0 0 6 3 3 0 0 0 0-6Z"/>
  <path fill="#fff" fill-rule="evenodd" d="M12 12.85a4.6 4.6 0 1 1 0-9.2 4.6 4.6 0 0 1 0 9.2Zm0-7.5a2.9 2.9 0 1 0 0 5.8 2.9 2.9 0 0 0 0-5.8Zm-2.5 6.642a4.5 4.5 0 1 0 5-7.483 4.5 4.5 0 0 0-5 7.483Zm.834-6.236a3 3 0 1 1 3.333 4.988 3 3 0 0 1-3.333-4.988Z" clip-rule="evenodd"/>
  <path fill="#fff" d="M12 23.25a11.25 11.25 0 0 1-8.692-4.117l-.39-.48.39-.473a11.25 11.25 0 0 1 17.385 0l.39.473-.39.48A11.25 11.25 0 0 1 12 23.25Zm-7.117-4.59a9.75 9.75 0 0 0 14.25 0 9.75 9.75 0 0 0-14.25 0Z"/>
  <path fill="#fff" fill-rule="evenodd" d="m3.23 19.196-.44-.544.441-.536a11.35 11.35 0 0 1 17.54 0l.442.536-.442.544A11.352 11.352 0 0 1 12 23.35v-.1a11.251 11.251 0 0 0 8.692-4.117l.39-.48-.39-.473a11.249 11.249 0 0 0-17.385 0l-.39.473.39.48a11.25 11.25 0 0 0 8.693 4.117v.1a11.35 11.35 0 0 1-8.77-4.154Zm1.79-.536a9.65 9.65 0 0 0 13.976 0 9.652 9.652 0 0 0-13.975 0Zm3.104 2.287a9.75 9.75 0 0 1-3.24-2.287 9.75 9.75 0 0 1 14.25 0 9.75 9.75 0 0 1-11.01 2.287Z" clip-rule="evenodd"/>
  <path fill="#fff" d="M12 23.25a11.25 11.25 0 1 1-.015-22.5A11.25 11.25 0 0 1 12 23.25Zm0-21a9.75 9.75 0 1 0 0 19.5 9.75 9.75 0 0 0 0-19.5Z"/>
  <path fill="#fff" fill-rule="evenodd" d="M12 23.35a11.35 11.35 0 1 1-.015-22.7A11.35 11.35 0 0 1 12 23.35Zm0-21a9.65 9.65 0 1 0 0 19.3 9.65 9.65 0 0 0 0-19.3ZM4.97 20.788A11.25 11.25 0 1 0 19.017 3.212 11.25 11.25 0 0 0 4.969 20.788ZM6.583 3.893a9.75 9.75 0 1 1 10.834 16.214A9.75 9.75 0 0 1 6.583 3.893Z" clip-rule="evenodd"/>
</svg>