<svg xmlns="http://www.w3.org/2000/svg" xml:space="preserve" fill-rule="evenodd" stroke-linejoin="round" stroke-miterlimit="2" clip-rule="evenodd" viewBox="0 0 24 24">
  <g fill="#fff">
    <path fill-rule="nonzero" d="M19.826 2.25H16.5V1.5a.747.747 0 0 0-.22-.53.747.747 0 0 0-.53-.22h-7.5a.747.747 0 0 0-.53.22.747.747 0 0 0-.22.53v.75H4.175c-.511.001-1 .204-1.361.564-.36.361-.563.85-.564 1.361v17.151a1.928 1.928 0 0 0 1.925 1.924h15.651a1.928 1.928 0 0 0 1.924-1.924V4.175a1.928 1.928 0 0 0-1.924-1.925ZM9 2.25h6v1.5H9v-1.5Zm11.25 19.076a.42.42 0 0 1-.125.299.42.42 0 0 1-.299.125H4.175a.421.421 0 0 1-.3-.125.42.42 0 0 1-.125-.299V4.175c0-.113.045-.221.125-.3a.421.421 0 0 1 .3-.125H7.5v.75c0 .199.079.39.22.53.14.141.331.22.53.22h7.5c.199 0 .39-.079.53-.22a.747.747 0 0 0 .22-.53v-.75h3.326a.42.42 0 0 1 .299.125c.08.079.125.187.125.3v17.151Z"/>
    <path d="m5.469 10.28 1.5 1.5-1.5-1.5a.756.756 0 0 1-.229-.533.741.741 0 0 1 .22-.536.743.743 0 0 1 0-.001.741.741 0 0 0-.22.537.743.743 0 0 0 .229.533Zm2.03-.091v.001l1.72-1.72-.104-.108a.899.899 0 0 1 1.272 1.272l-.002.002-2.25 2.25a.897.897 0 0 1-1.272 0l-1.499-1.499a.898.898 0 0 1 .981-1.473.911.911 0 0 1 .291.2l.863.863 1.614-1.613.106.106-1.72 1.719ZM18 9.6h-5.25a.9.9 0 0 0 0 1.8H18a.903.903 0 0 0 .9-.9.898.898 0 0 0-.9-.9Zm.18 1.628a.721.721 0 0 1-.18.022h-5.25a.747.747 0 0 1-.53-.22.747.747 0 0 1 0-1.06.751.751 0 1 1 .53 1.28H18a.721.721 0 0 0 .18-.022ZM9.748 14.609a.899.899 0 0 0-.633.253l-1.616 1.615-.863-.862a.898.898 0 1 0-1.272 1.272l1.499 1.499a.898.898 0 0 0 1.272 0l2.252-2.252a.899.899 0 0 0-.639-1.525Zm-3.494.93a.76.76 0 0 0-.548.008.74.74 0 0 0-.41.41.741.741 0 0 0 .005.58.741.741 0 0 0 .168.243l1.5 1.5-1.5-1.5a.756.756 0 0 1-.229-.533.741.741 0 0 1 .22-.536.743.743 0 0 1 .794-.172Zm3.749-.732a.746.746 0 0 0-.784.163l-1.72 1.719v.001l1.72-1.72a.753.753 0 0 1 .784-.163ZM18 16.1h-5.25a.9.9 0 0 0 0 1.8H18a.903.903 0 0 0 .9-.9.898.898 0 0 0-.9-.9Zm.18 1.628a.721.721 0 0 1-.18.022h-5.25a.747.747 0 0 1-.53-.22.747.747 0 0 1 0-1.06.751.751 0 1 1 .53 1.28H18a.721.721 0 0 0 .18-.022Z"/>
  </g>
</svg>