<svg xmlns="http://www.w3.org/2000/svg" width="24" height="20">
  <path fill="#8A4C2B" d="M20.396 4.064a.938.938 0 0 0-1.191-.112c-1.403.956-8.439 5.764-9.195 6.52a2.816 2.816 0 0 0 0 3.978 2.804 2.804 0 0 0 1.989.822c.72 0 1.44-.274 1.989-.822.756-.756 5.564-7.793 6.52-9.195a.938.938 0 0 0-.112-1.191Zm-7.734 9.06a.938.938 0 0 1-1.326-1.326c.293-.29 2.291-1.715 4.749-3.423-1.709 2.457-3.133 4.455-3.423 4.749Z"/>
  <path fill="#8A4C2B" d="m4.323 16.821-1.157.565a10.076 10.076 0 0 1-.632-8.52l1.326.636a.934.934 0 0 0 1.251-.44.938.938 0 0 0-.44-1.25l-1.31-.628a10.138 10.138 0 0 1 7.702-4.805v1.41a.938.938 0 0 0 1.874 0v-1.41a10.01 10.01 0 0 1 3.224.848.938.938 0 0 0 .772-1.708A11.909 11.909 0 0 0 12 .46a11.922 11.922 0 0 0-8.485 3.515A11.922 11.922 0 0 0 0 12.46c0 2.368.703 4.672 2.033 6.661a.938.938 0 0 0 1.19.322l1.922-.937a.937.937 0 1 0-.822-1.686ZM22.943 7.528a.937.937 0 1 0-1.71.772c.592 1.31.892 2.71.892 4.16 0 1.73-.445 3.42-1.295 4.933l-1.208-.575a.938.938 0 0 0-.806 1.692l1.969.938a.935.935 0 0 0 1.182-.325A11.953 11.953 0 0 0 24 12.46c0-1.719-.356-3.378-1.057-4.933Z"/>
</svg>