<svg xmlns="http://www.w3.org/2000/svg" width="24" height="24" fill="none">
  <g fill="#fff" clip-path="url(#a)">
    <path d="M20.003 7.154h-3.046V3.997A3.997 3.997 0 0 0 12.96 0H3.997A4.005 4.005 0 0 0 0 3.997v7.32a3.547 3.547 0 0 0 2.745 3.45v.48a1.59 1.59 0 0 0 .87 1.424 1.619 1.619 0 0 0 1.635-.127l1.77-1.268V18a4.004 4.004 0 0 0 3.998 3.997h5.317l2.415 1.71a1.612 1.612 0 0 0 1.657.12 1.59 1.59 0 0 0 .87-1.425v-.48A3.548 3.548 0 0 0 24 18.471v-7.32a4.005 4.005 0 0 0-3.997-3.997Zm-12.96 3.998v2.19a.79.79 0 0 0-.128.06l-2.572 1.844c0-1.567 0-1.987-.803-1.987a1.943 1.943 0 0 1-1.943-1.942v-7.32a2.4 2.4 0 0 1 2.4-2.4h8.963a2.4 2.4 0 0 1 2.4 2.4v3.157h-4.313a4.005 4.005 0 0 0-4.005 3.998Zm15.36 7.32a1.943 1.943 0 0 1-1.943 1.942.803.803 0 0 0-.803.802v1.185l-2.572-1.837a.802.802 0 0 0-.465-.15h-5.573a2.4 2.4 0 0 1-2.4-2.4v-6.862a2.4 2.4 0 0 1 2.4-2.4h8.956a2.4 2.4 0 0 1 2.4 2.4v7.32Z"/>
    <path d="M15.5 18a.5.5 0 1 0 0-1 .5.5 0 0 0 0 1ZM15.71 10h-.637a1.991 1.991 0 0 0-1.464.67A2.408 2.408 0 0 0 13 12.28v.469h1.594v-.47a.572.572 0 0 1 .14-.372.48.48 0 0 1 .156-.114.441.441 0 0 1 .183-.04h.637c.189.015.366.108.495.26.13.153.201.354.2.563a.72.72 0 0 1-.181.483.594.594 0 0 1-.44.2c-.397 0-.777.174-1.058.482-.28.31-.439.728-.439 1.164V16h1.595v-.996a2.167 2.167 0 0 0 1.506-.77c.394-.46.613-1.068.612-1.699a2.742 2.742 0 0 0-.17-.969 2.55 2.55 0 0 0-.496-.823 2.29 2.29 0 0 0-.744-.55 2.111 2.111 0 0 0-.88-.193Z"/>
  </g>
  <defs>
    <clipPath id="a">
      <path fill="#fff" d="M0 0h24v24H0z"/>
    </clipPath>
  </defs>
</svg>