<svg width="24" height="20" viewBox="0 0 24 20" fill="none" xmlns="http://www.w3.org/2000/svg">
<path d="M22.0298 7.57211L22.7106 6.4375H23.2969C23.6852 6.4375 24 6.12269 24 5.73438C24 5.34606 23.6852 5.03125 23.2969 5.03125H22.3125C22.0655 5.03125 21.8367 5.16086 21.7096 5.37264L21.1371 6.32673L20.193 3.02233C19.8212 1.72122 18.6165 0.8125 17.2634 0.8125H6.73664C5.3835 0.8125 4.17877 1.72122 3.807 3.02237L2.86289 6.32678L2.29041 5.37269C2.16333 5.16086 1.93448 5.03125 1.6875 5.03125H0.703125C0.314812 5.03125 0 5.34606 0 5.73438C0 6.12269 0.314812 6.4375 0.703125 6.4375H1.28939L1.97016 7.57211C0.820031 8.00809 0 9.12077 0 10.4219V15.6719C0 16.0602 0.314812 16.375 0.703125 16.375H1.92188V17.5469C1.92188 18.4515 2.65786 19.1875 3.5625 19.1875H5.4375C6.34214 19.1875 7.07812 18.4515 7.07812 17.5469V16.375H16.9219V17.5469C16.9219 18.4515 17.6579 19.1875 18.5625 19.1875H20.4375C21.3421 19.1875 22.0781 18.4515 22.0781 17.5469V16.375H23.2969C23.6852 16.375 24 16.0602 24 15.6719V10.4219C24 9.12077 23.18 8.00809 22.0298 7.57211ZM5.15916 3.40867C5.35931 2.70808 6.00802 2.21875 6.73664 2.21875H17.2634C17.992 2.21875 18.6407 2.70808 18.8408 3.40867L19.9741 7.375H18.7261C18.3995 5.77225 16.979 4.5625 15.2812 4.5625C13.5835 4.5625 12.163 5.77225 11.8364 7.375H4.02591L5.15916 3.40867ZM13.2923 7.375C13.5825 6.55652 14.3646 5.96875 15.2812 5.96875C16.1979 5.96875 16.98 6.55652 17.2702 7.375H13.2923ZM5.67188 17.5469C5.67188 17.6761 5.56673 17.7812 5.4375 17.7812H3.5625C3.43327 17.7812 3.32812 17.6761 3.32812 17.5469V16.375H5.67188V17.5469ZM9.89062 14.9688V13H14.1094V14.9688H9.89062ZM20.6719 17.5469C20.6719 17.6761 20.5667 17.7812 20.4375 17.7812H18.5625C18.4333 17.7812 18.3281 17.6761 18.3281 17.5469V16.375H20.6719V17.5469ZM22.5938 14.9688H15.5156V12.2969C15.5156 11.9086 15.2008 11.5938 14.8125 11.5938H9.1875C8.79919 11.5938 8.48438 11.9086 8.48438 12.2969V14.9688H1.40625V10.4219C1.40625 9.51723 2.14223 8.78125 3.04688 8.78125H3.0908C3.09202 8.78125 3.09319 8.78134 3.09441 8.78134C3.09558 8.78134 3.0967 8.78125 3.09787 8.78125H20.9021C20.9033 8.78125 20.9044 8.78134 20.9056 8.78134C20.9068 8.78134 20.908 8.78125 20.9092 8.78125H20.9531C21.8578 8.78125 22.5938 9.51723 22.5938 10.4219V14.9688Z" fill="black"/>
<path d="M19.0312 9.76562C17.8681 9.76562 16.9219 10.7119 16.9219 11.875C16.9219 13.0381 17.8681 13.9844 19.0312 13.9844C20.1944 13.9844 21.1406 13.0381 21.1406 11.875C21.1406 10.7119 20.1944 9.76562 19.0312 9.76562ZM19.0312 12.5781C18.6435 12.5781 18.3281 12.2627 18.3281 11.875C18.3281 11.4873 18.6435 11.1719 19.0312 11.1719C19.419 11.1719 19.7344 11.4873 19.7344 11.875C19.7344 12.2627 19.419 12.5781 19.0312 12.5781Z" fill="black"/>
<path d="M4.96875 9.76562C3.80564 9.76562 2.85938 10.7119 2.85938 11.875C2.85938 13.0381 3.80564 13.9844 4.96875 13.9844C6.13186 13.9844 7.07812 13.0381 7.07812 11.875C7.07812 10.7119 6.13186 9.76562 4.96875 9.76562ZM4.96875 12.5781C4.58105 12.5781 4.26562 12.2627 4.26562 11.875C4.26562 11.4873 4.58105 11.1719 4.96875 11.1719C5.35645 11.1719 5.67188 11.4873 5.67188 11.875C5.67188 12.2627 5.35645 12.5781 4.96875 12.5781Z" fill="black"/>
</svg>
