<svg xmlns="http://www.w3.org/2000/svg" width="32" height="32" fill="none">
  <g fill="#58CCC5" clip-path="url(#a)">
    <path fill-opacity=".5" d="M19.75 17.138c6.119-4.85 10.313-7.436 10.313-11.504C30.063 2.517 27.678 0 24.438 0c-1.551 0-2.943.613-4.026 1.774-.343.367-.982.366-1.323 0C18.006.614 16.613 0 15.063 0c-3.245 0-5.626 2.52-5.626 5.634 0 3.753 3.544 6.343 10.313 11.504ZM16.937 7.5h1.875V5.625h1.875V7.5h1.875v1.875h-1.875v1.875h-1.875V9.375h-1.875V7.5Z"/>
    <path d="M28.65 20.06h-.001c-2.198 0-3.773 4.012-6.667 5.066-2.244.816-6.27.414-8.503-.017l.363-1.84c.068.013 4.531.871 7.266.204.893-4.704-13.872-7.456-20.187.412L6.224 32c6.076-6.076 15.118 5.33 24.855-10.403-.619-.742-1.467-1.538-2.43-1.538Z"/>
  </g>
  <defs>
    <clipPath id="a">
      <path fill="#fff" d="M0 0h32v32H0z"/>
    </clipPath>
  </defs>
</svg>