<svg xmlns="http://www.w3.org/2000/svg" width="32" height="32" fill="none">
  <g fill="#F39E3A" clip-path="url(#a)">
    <path fill-opacity=".5" d="m21.136 9.466 2.01-4.872 6.752-2.544L29.126 0l-7.644 2.879-2.34 5.674 1.994.913ZM7.204 8.57l2.434.574L8.65 5.59l4.436-1.234L7.652.086 4.55.95 2.102 7.412 6.54 6.177l.665 2.393ZM7.617 10.919a12.766 12.766 0 0 0-2.46 2.457l6.4 2.243h7.256l5.948-2.084c-1.125-.515-4.964-2.273-6.02-2.755l-5.056 1.57-6.068-1.431Z"/>
    <path d="m26.577 15.22-7.391 2.59h-8l-7.227-2.532C.839 21.103 3.208 28.846 8.799 32h12.967c5.628-3.194 7.966-10.92 4.811-16.78ZM10.471 23.6H8.279v-2.192h2.192V23.6Zm8.473 4.747h-2.191v-2.191h2.191v2.191Zm5.113-6.282h-2.191v-2.19h2.191v2.19Z"/>
  </g>
  <defs>
    <clipPath id="a">
      <path fill="#fff" d="M0 0h32v32H0z"/>
    </clipPath>
  </defs>
</svg>