<svg width="18" height="24" viewBox="0 0 18 24" fill="none" xmlns="http://www.w3.org/2000/svg">
<path d="M16.6729 1.44558C15.9271 0.513375 14.9216 0 13.8416 0C12.7615 0 11.756 0.513375 11.0102 1.44558C10.3012 2.3318 9.91077 3.501 9.91077 4.7377C9.91077 5.97441 10.3012 7.14361 11.0102 8.02983C11.5911 8.75602 12.3298 9.22795 13.1384 9.40111V12.9107H11.8761L11.5797 21.6601C11.5587 22.2788 11.7841 22.8646 12.2143 23.3097C12.6446 23.7548 13.2225 24 13.8416 24C14.4606 24 15.0385 23.7549 15.4687 23.3098C15.899 22.8646 16.1244 22.2788 16.1034 21.6601L15.8069 12.9107H14.5447V9.40116C15.3533 9.228 16.0919 8.75606 16.6729 8.02987C17.3818 7.14366 17.7723 5.97445 17.7723 4.73775C17.7723 3.50105 17.3819 2.3318 16.6729 1.44558ZM14.4577 22.3324C14.2948 22.501 14.0759 22.5938 13.8416 22.5938C13.6071 22.5938 13.3883 22.5009 13.2254 22.3324C13.0625 22.1639 12.9771 21.942 12.9851 21.7078L13.2355 14.317H14.4475L14.698 21.7078C14.7059 21.942 14.6206 22.1639 14.4577 22.3324ZM13.8416 8.0692C12.4495 8.0692 11.317 6.57469 11.317 4.73775C11.317 2.90081 12.4495 1.40625 13.8416 1.40625C15.2336 1.40625 16.3661 2.90077 16.3661 4.7377C16.3661 6.57464 15.2336 8.0692 13.8416 8.0692Z" fill="black"/>
<path d="M6.68303 4.03458H4.86161V0H3.45536V4.03458H1.63394V0H0.227692V4.7377C0.227692 5.97445 0.61816 7.14361 1.3271 8.02983C1.90807 8.75602 2.64668 9.22795 3.45532 9.40111V12.9107H2.19307L1.89658 21.6601C1.87563 22.2787 2.101 22.8646 2.53127 23.3097C2.96154 23.7548 3.5395 24 4.15858 24C4.77761 24 5.35549 23.7549 5.78575 23.3098C6.21602 22.8647 6.44135 22.2789 6.42039 21.6602L6.12391 12.9107H4.86161V9.40116C5.6703 9.228 6.40891 8.75606 6.98983 8.02987C7.69882 7.14366 8.08928 5.97445 8.08928 4.73775V0H6.68303V4.03458ZM4.77466 22.3324C4.61172 22.501 4.39291 22.5938 4.15844 22.5938C3.92407 22.5938 3.70525 22.501 3.54232 22.3324C3.37938 22.1639 3.29407 21.942 3.30199 21.7078L3.55244 14.317H4.76444L5.01489 21.7079C5.02286 21.9421 4.93755 22.1639 4.77466 22.3324ZM4.15849 8.0692C2.94921 8.0692 1.93577 6.9413 1.69057 5.44088H6.6265C6.38121 6.9413 5.36777 8.0692 4.15849 8.0692Z" fill="black"/>
</svg>
