<svg width="24" height="24" viewBox="0 0 24 24" fill="none" xmlns="http://www.w3.org/2000/svg">
<path d="M21.1645 15.2353C21.1391 15.2195 20.533 14.8453 19.6971 14.5687C18.5323 14.1833 17.4609 14.1684 16.5987 14.5255C16.2755 14.6593 15.9671 14.8505 15.682 15.0935C14.9676 15.7025 14.6249 16.5752 14.7136 17.4588C13.9408 17.6624 13.2544 18.0596 12.7032 18.5916V14.0302C12.4716 14.0512 12.2371 14.0624 12.0001 14.0624C11.763 14.0624 11.5286 14.0512 11.297 14.0302V18.5916C10.7458 18.0596 10.0594 17.6624 9.28654 17.4588C9.37532 16.5752 9.03262 15.7025 8.31819 15.0935C8.03305 14.8504 7.72462 14.6593 7.40141 14.5254C6.53919 14.1683 5.46782 14.1832 4.30302 14.5686C3.4671 14.8452 2.86101 15.2195 2.83565 15.2353L2.40796 15.5013L2.52224 15.9918C2.52904 16.021 2.69301 16.7142 3.08849 17.5008C3.6396 18.597 4.3866 19.3651 5.24877 19.7222C5.57193 19.8561 5.92518 19.9391 6.29873 19.9689C6.37743 19.9751 6.45547 19.9782 6.53296 19.9782C7.45996 19.9782 8.29101 19.535 8.80058 18.7876C10.2511 19.1062 11.297 20.3998 11.297 21.8906V22.5937H5.90151V24H18.0987V22.5937H12.7032V21.8906C12.7032 20.3998 13.7491 19.1062 15.1994 18.7876C15.7091 19.5351 16.54 19.9783 17.4672 19.9782C17.5446 19.9782 17.6228 19.9751 17.7014 19.9688C18.075 19.9391 18.4282 19.8562 18.7513 19.7223C19.6135 19.3651 20.3605 18.597 20.9116 17.5008C21.3072 16.7142 21.4711 16.021 21.4779 15.9918L21.5922 15.5013L21.1645 15.2353Z" fill="#997EA5"/>
<path d="M12 12.6562C15.4893 12.6562 18.3281 9.81745 18.3281 6.32812C18.3281 2.8388 15.4893 0 12 0C8.51067 0 5.67188 2.8388 5.67188 6.32812C5.67188 9.81745 8.51067 12.6562 12 12.6562ZM12.7031 7.03125H11.2969C10.1338 7.03125 9.1875 6.08498 9.1875 4.92188C9.1875 3.75877 10.1338 2.8125 11.2969 2.8125V1.40625H12.7031V2.8125C13.8662 2.8125 14.8125 3.75877 14.8125 4.92188H13.4062C13.4062 4.53417 13.0908 4.21875 12.7031 4.21875H11.2969C10.9092 4.21875 10.5938 4.53417 10.5938 4.92188C10.5938 5.30958 10.9092 5.625 11.2969 5.625H12.7031C13.8662 5.625 14.8125 6.57127 14.8125 7.73438C14.8125 8.89748 13.8662 9.84375 12.7031 9.84375V11.25H11.2969V9.84375C10.1338 9.84375 9.1875 8.89748 9.1875 7.73438H10.5938C10.5938 8.12208 10.9092 8.4375 11.2969 8.4375H12.7031C13.0908 8.4375 13.4062 8.12208 13.4062 7.73438C13.4062 7.34667 13.0908 7.03125 12.7031 7.03125Z" fill="#C3B2CB"/>
</svg>
