<svg width="20" height="20" viewBox="0 0 20 20" fill="none" xmlns="http://www.w3.org/2000/svg">
<path d="M15.5212 6.18699C15.3393 6.10289 15.127 6.11719 14.9587 6.22363C14.79 6.33121 14.6875 6.51773 14.6875 6.71801V7.69531C14.6875 8.01859 14.4249 8.28125 14.1016 8.28125C13.8121 8.28125 13.5671 8.07297 13.5197 7.78973C13.043 4.83484 10.872 0 10 0C9.12797 0 6.95703 4.83484 6.48094 7.78629C6.43289 8.07297 6.18797 8.28125 5.89844 8.28125C5.57516 8.28125 5.3125 8.01859 5.3125 7.69531V6.71797C5.3125 6.51769 5.21008 6.33117 5.04129 6.22359C4.8725 6.11715 4.66133 6.10285 4.47883 6.18695C2.4841 7.11738 1.21094 11.172 1.21094 13.5547C1.21094 17.3495 4.825 20 10 20C15.175 20 18.7891 17.3495 18.7891 13.5547C18.7891 11.172 17.5159 7.11738 15.5212 6.18699Z" fill="url(#paint0_linear_1884_9453)"/>
<path d="M12.8423 12.0751C12.7353 11.9023 12.547 11.797 12.3439 11.797H11.0439L10.5684 9.8973C10.5089 9.65925 10.308 9.48358 10.0643 9.45671C9.81536 9.43097 9.58591 9.55855 9.47603 9.77714L7.13228 14.4646C7.0413 14.646 7.05103 14.8617 7.15802 15.0346C7.26501 15.2074 7.45329 15.3126 7.65642 15.3126H8.95646L9.43196 17.2124C9.49145 17.4504 9.69231 17.6261 9.93606 17.653C10.1868 17.6794 10.4168 17.5469 10.5243 17.3325L12.8681 12.645C12.959 12.4636 12.9493 12.2479 12.8423 12.0751Z" fill="url(#paint1_linear_1884_9453)"/>
<defs>
<linearGradient id="paint0_linear_1884_9453" x1="10" y1="20" x2="10" y2="0" gradientUnits="userSpaceOnUse">
<stop stop-color="#FD5900"/>
<stop offset="1" stop-color="#FFDE00"/>
</linearGradient>
<linearGradient id="paint1_linear_1884_9453" x1="10.0002" y1="17.6563" x2="10.0002" y2="9.45343" gradientUnits="userSpaceOnUse">
<stop stop-color="#FFE59A"/>
<stop offset="1" stop-color="#FFFFD5"/>
</linearGradient>
</defs>
</svg>
