<svg width="24" height="19" viewBox="0 0 24 19" fill="none" xmlns="http://www.w3.org/2000/svg">
<path d="M23.4824 5.01383C22.6827 4.73551 22.051 4.12155 21.7487 3.32981L21.5761 2.87827H16.01L15.8379 3.32981C15.7756 3.4935 15.6989 3.64932 15.6096 3.79636L10.6743 3.05176e-05L-0.046875 8.24674L2.50525 11.5639L3.97119 10.4361V16.605H2.57062V18.0086H18.7775V16.605H17.3769V13.9195C17.629 14.0871 17.8911 14.2409 18.1615 14.3808L18.7932 14.7074L19.4249 14.3808C20.7894 13.6756 21.9331 12.6089 22.7318 11.2967C23.5311 9.9846 23.9531 8.47892 23.9531 6.94266V5.17807L23.4824 5.01383ZM22.5493 6.94266C22.5493 9.55503 21.1104 11.9233 18.7932 13.1272C18.2748 12.8577 17.8008 12.5307 17.3769 12.1553C16.8162 11.6595 16.3436 11.0796 15.973 10.4394C15.6821 9.9379 15.4547 9.39976 15.2965 8.83597C15.1265 8.22953 15.0372 7.5936 15.0372 6.94266V6.14341C15.2974 6.01615 15.5422 5.86417 15.7687 5.68949C16.1424 5.40091 16.4667 5.05228 16.7269 4.65586C16.8065 4.53574 16.8794 4.41068 16.9464 4.28195H20.6397C21.0613 5.09146 21.7295 5.74295 22.5493 6.14341V6.94266ZM2.76215 9.59531L1.92224 8.50327L10.6743 1.77121L14.5964 4.78842C14.4412 4.87815 14.2764 4.95359 14.1042 5.01383L13.6335 5.17807V5.78543L10.6743 3.50907L2.76215 9.59531ZM11.6442 16.605H9.70386V11.9336H11.6442V16.605ZM13.0481 16.605V10.5299H8.29999V16.605H5.37506V9.35618L10.6743 5.28006L13.6578 7.57529C13.7569 8.88981 14.1654 10.1653 14.8542 11.2967C15.1743 11.8226 15.5497 12.3089 15.973 12.7488V16.6048H13.0481V16.605Z" fill="black"/>
<path d="M19.788 7.01093L18.768 7.99695L18.4807 8.27435L17.3231 7.1803L16.5337 8.01654L16.3592 8.20129L17.3769 9.16241L18.492 10.2158L20.913 7.8761L21.6303 7.18268L20.6547 6.1734L19.788 7.01093Z" fill="black"/>
</svg>
