<svg xmlns="http://www.w3.org/2000/svg" width="32" height="32" fill="none">
  <g fill="#76B328" clip-path="url(#a)">
    <path fill-opacity=".5" d="M27.818 8.257a4.124 4.124 0 0 0 4.12-4.128A4.124 4.124 0 0 0 27.818 0a4.124 4.124 0 0 0-4.12 4.129 4.124 4.124 0 0 0 4.12 4.128ZM22.462 23.147h2.65v2.656h-2.65v-2.656ZM17.638 8.702a2.801 2.801 0 0 1 3.725 0l.739.657V7.013c0-3.862-3.135-7.004-6.99-7.004-3.375 0-6.2 2.41-6.848 5.605 1.061 1.615 2.92 4.772 3.716 8.118l5.658-5.03Z"/>
    <path d="M31.064 30.113h-1.292v-8.921l.609.54a.933.933 0 0 0 1.32-.08.94.94 0 0 0-.078-1.322l-2.743-2.438v-4.86a.937.937 0 1 0-1.871 0v3.196l-6.887-6.122a.934.934 0 0 0-1.242 0L7.378 20.33a.939.939 0 0 0-.079 1.324.934.934 0 0 0 1.321.079l.61-.542v8.922H6.21v-4.09a3.7 3.7 0 0 0 1.148-.6V23.77a2.808 2.808 0 0 1-1.458-.872 2.82 2.82 0 0 1 .237-3.97l4.223-3.755c-.711-4.545-4.17-9.283-4.334-9.505a.935.935 0 0 0-1.505 0c-.182.247-4.46 6.108-4.46 11.056 0 2.414.48 4.7 1.352 6.434.77 1.53 1.787 2.516 2.925 2.864v4.091H.936a.937.937 0 0 0-.936.938c0 .518.419.937.936.95h30.128a.955.955 0 0 0 .936-.95.937.937 0 0 0-.936-.938ZM20.591 22.21c0-.517.419-.937.936-.937h4.521c.517 0 .936.42.936.937v4.532a.937.937 0 0 1-.936.937h-4.521a.937.937 0 0 1-.936-.937V22.21Zm-5.124 7.903v-6.965h-1.871v6.965h-1.871V22.21c0-.518.418-.937.935-.937h3.743c.517 0 .936.42.936.937v7.903h-1.872Z"/>
  </g>
  <defs>
    <clipPath id="a">
      <path fill="#fff" d="M0 0h32v32H0z"/>
    </clipPath>
  </defs>
</svg>