<svg width="24" height="24" viewBox="0 0 24 24" fill="none" xmlns="http://www.w3.org/2000/svg">
<path d="M5.15723 12.4473L1.51154 8.80156C0.537731 7.82775 0.00140381 6.53303 0.00140381 5.15582C0.00140381 2.31291 2.31432 0 5.15723 0C8.00019 0 10.3131 2.31291 10.3131 5.15582C10.3131 6.53303 9.77677 7.82775 8.80292 8.80156L5.15723 12.4473ZM5.15723 1.40608C3.08963 1.40608 1.40749 3.08823 1.40749 5.15582C1.40749 6.15742 1.79753 7.09908 2.50578 7.80732L5.15723 10.4588L7.80872 7.80732C8.51697 7.09908 8.90701 6.15742 8.90701 5.15582C8.90701 3.08823 7.22487 1.40608 5.15723 1.40608Z" fill="black"/>
<path d="M5.15722 7.49948C3.86499 7.49948 2.81366 6.44816 2.81366 5.15592C2.81366 3.86368 3.86499 2.81236 5.15722 2.81236C6.44946 2.81236 7.50079 3.86368 7.50079 5.15592C7.50079 6.44816 6.44946 7.49948 5.15722 7.49948ZM5.15722 4.21844C4.6403 4.21844 4.21974 4.639 4.21974 5.15592C4.21974 5.67284 4.6403 6.0934 5.15722 6.0934C5.67414 6.0934 6.0947 5.67284 6.0947 5.15592C6.0947 4.639 5.67414 4.21844 5.15722 4.21844Z" fill="black"/>
<path d="M20.2488 24L17.5972 21.3485C16.8891 20.6403 16.4991 19.6987 16.4991 18.6971C16.4991 16.6295 18.1812 14.9473 20.2488 14.9473C22.3164 14.9473 23.9985 16.6295 23.9985 18.6971C23.9985 19.6986 23.6085 20.6403 22.9003 21.3485L20.2488 24ZM18.5915 20.3543L20.2488 22.0115L21.906 20.3543C22.3486 19.9116 22.5924 19.323 22.5924 18.697C22.5924 17.4047 21.5411 16.3533 20.2488 16.3533C18.9565 16.3533 17.9051 17.4047 17.9051 18.697C17.9051 19.323 18.1489 19.9116 18.5915 20.3543Z" fill="black"/>
<path d="M16.8276 23.9971H8.97914C6.48409 23.9971 4.45422 21.9673 4.45422 19.4722C4.45422 16.9772 6.48409 14.9473 8.97914 14.9473H11.5881C12.3576 14.9473 12.9837 14.3212 12.9837 13.5517C12.9837 12.7821 12.3576 12.1561 11.5881 12.1561H8.86018V10.75H11.5881C13.1329 10.75 14.3897 12.0068 14.3897 13.5517C14.3897 15.0965 13.1329 16.3534 11.5881 16.3534H8.97914C7.25941 16.3534 5.86031 17.7525 5.86031 19.4722C5.86031 21.1919 7.25936 22.5911 8.97914 22.5911H16.8276V23.9971H16.8276Z" fill="black"/>
</svg>
