<svg width="32" height="32" viewBox="0 0 32 32" fill="none" xmlns="http://www.w3.org/2000/svg">
<g clip-path="url(#clip0_1884_6000)">
<path d="M28.6716 13.8797C27.9773 12.3681 26.9299 11.0564 25.6042 10.0393V5.21307H23.1839C22.1398 5.21307 21.1042 5.54645 20.1869 6.26739C20.875 7.71307 21.1491 9.22195 21.1491 10.6023C21.1491 11.9826 20.8784 13.3226 20.3444 14.5851C19.829 15.8036 19.0916 16.8975 18.1526 17.8364C17.2136 18.7754 16.1197 19.5128 14.9012 20.0282C13.6388 20.5622 12.2987 20.8329 10.9184 20.8329C9.53806 20.8329 8.19806 20.5622 6.93556 20.0282C5.71706 19.5128 4.62313 18.7754 3.68419 17.8364C3.50812 17.6604 3.33913 17.4788 3.17731 17.2921C1.38731 17.5249 0 19.0584 0 20.9109H1.875C1.875 20.0871 2.43906 19.3926 3.20119 19.1931C3.52475 22.3706 5.31444 25.2189 8.0625 26.8891V29.7547H13.9791V28.3744H18.0209V29.7547H23.9375V27.3041C26.0162 26.2657 27.6984 24.5301 28.6709 22.4214H32V13.8797H28.6716ZM24.5002 16.4214H22.6252V14.5464H24.5002V16.4214Z" fill="#54B7D8"/>
<path d="M10.9185 2.2464C6.30374 2.2464 2.56274 5.9874 2.56274 10.6021C2.56274 15.2169 6.30374 18.9579 10.9185 18.9579C15.5332 18.9579 19.2742 15.2169 19.2742 10.6021C19.2742 5.98734 15.5332 2.2464 10.9185 2.2464ZM13.6542 12.5547C13.4706 13.5565 12.7504 14.3487 11.8141 14.6708V16.1065H9.93906V14.6806C9.10893 14.4131 8.38362 13.7856 7.84199 12.8482L9.46549 11.9101C9.86506 12.6016 10.3398 12.9523 10.8766 12.9523C11.4252 12.9523 11.745 12.571 11.8099 12.2167C11.874 11.867 11.6876 11.5986 11.2709 11.4406C11.0442 11.3546 10.8384 11.2923 10.6394 11.2321C10.13 11.0779 9.60331 10.9185 9.09168 10.4421C8.51956 9.9094 8.26762 9.12315 8.41774 8.33884C8.57743 7.5044 9.14468 6.81702 9.93912 6.48796V5.09771H11.8141V6.40484C12.5523 6.58796 13.0537 6.9924 13.3199 7.23359L12.0997 8.65715C11.9657 8.54234 11.2669 7.98096 10.6711 8.21315C10.4159 8.31259 10.2911 8.52527 10.2594 8.69115C10.2389 8.79802 10.2414 8.95052 10.3694 9.06971C10.5549 9.24252 10.7528 9.30734 11.1826 9.4374C11.4012 9.50359 11.649 9.57859 11.9358 9.68734C13.2102 10.1708 13.8848 11.2963 13.6542 12.5547Z" fill="#54B7D8" fill-opacity="0.5"/>
</g>
<defs>
<clipPath id="clip0_1884_6000">
<rect width="32" height="32" fill="white"/>
</clipPath>
</defs>
</svg>
