<svg width="22" height="24" viewBox="0 0 22 24" fill="none" xmlns="http://www.w3.org/2000/svg">
<path d="M3.97808 18.3815L3.46433 17.8317L2.95058 18.3815C2.93295 18.4004 2.51394 18.8505 2.09239 19.4526C1.4712 20.3398 1.16928 21.0765 1.16928 21.705C1.16928 22.9705 2.19884 24 3.46433 24C4.72981 24 5.75933 22.9705 5.75933 21.705C5.75933 21.0765 5.45741 20.3398 4.83627 19.4526C4.41477 18.8506 3.99575 18.4004 3.97808 18.3815V18.3815ZM3.46433 22.5937C2.97425 22.5937 2.57553 22.1951 2.57553 21.705C2.57553 21.2766 3.00547 20.5574 3.46372 19.9558C3.91831 20.5549 4.35308 21.281 4.35308 21.705C4.35308 22.1951 3.95436 22.5937 3.46433 22.5937V22.5937Z" fill="black"/>
<path d="M19.9431 4.60514V6.0817H18.6227C17.6906 6.0817 16.913 6.75403 16.7482 7.63908H14.1024C13.4226 6.83742 12.4777 6.30642 11.4482 6.1388V4.89919C11.827 4.788 12.1686 4.58958 12.4498 4.32694C12.5895 4.36866 12.735 4.40986 12.888 4.45055C14.1663 4.79025 15.5695 5.00048 16.1365 5.00048C17.5152 5.00048 18.6368 3.87886 18.6368 2.50022C18.6368 1.12163 17.5152 0 16.1365 0C15.5695 0 14.1663 0.210281 12.888 0.549938C12.7352 0.590531 12.5891 0.631641 12.4495 0.673266C12.0025 0.256078 11.4033 0 10.7451 0C10.0869 0 9.48768 0.256078 9.04073 0.673313C8.90109 0.631688 8.75498 0.590578 8.60216 0.549984C7.32388 0.210281 5.92068 0 5.35363 0C3.97499 0 2.85337 1.12163 2.85337 2.50027C2.85337 3.87891 3.97499 5.00053 5.35363 5.00053C5.92068 5.00053 7.32388 4.79025 8.60216 4.45059C8.75521 4.40991 8.90067 4.3687 9.04045 4.32698C9.3217 4.58958 9.66323 4.788 10.042 4.89923V6.13884C9.01246 6.30652 8.0677 6.83747 7.38777 7.63913H5.02635C2.6136 7.63913 0.650665 9.60202 0.650665 12.0148V17.0773H6.36942V13.3579H7.41548C8.24718 14.3188 9.46631 14.8827 10.7451 14.8827C12.0239 14.8827 13.243 14.3188 14.0747 13.3579H16.7208C16.7911 14.346 17.6169 15.1286 18.6227 15.1286H19.9431V16.6052H21.3494V4.60519H19.9431V4.60514ZM16.1365 1.40625C16.7398 1.40625 17.2306 1.89703 17.2306 2.50027C17.2306 3.1035 16.7398 3.59428 16.1365 3.59428C15.784 3.59428 14.6957 3.44784 13.5692 3.17302C13.4304 3.13917 13.3004 3.1057 13.1785 3.07275C13.2217 2.88877 13.2454 2.69728 13.2454 2.50027C13.2454 2.30325 13.2217 2.11177 13.1785 1.92778C13.3004 1.89483 13.4305 1.86136 13.5692 1.82752C14.6957 1.55269 15.784 1.40625 16.1365 1.40625ZM5.35363 3.59428C4.7504 3.59428 4.25962 3.1035 4.25962 2.50027C4.25962 1.89703 4.7504 1.40625 5.35363 1.40625C5.70618 1.40625 6.79452 1.55269 7.92093 1.82752C8.05987 1.86141 8.18966 1.89487 8.31173 1.92787C8.26846 2.11186 8.24484 2.3033 8.24484 2.50027C8.24484 2.69723 8.26846 2.88867 8.31173 3.07266C8.18966 3.10561 8.05987 3.13908 7.92093 3.17302C6.79448 3.44789 5.70618 3.59428 5.35363 3.59428ZM9.65109 2.50027C9.65109 1.89703 10.1419 1.40625 10.7451 1.40625C11.3483 1.40625 11.8392 1.89703 11.8392 2.50027C11.8392 3.1035 11.3483 3.59428 10.7451 3.59428C10.1419 3.59428 9.65109 3.1035 9.65109 2.50027V2.50027ZM13.3781 11.9516L13.1675 12.241C12.6047 13.0146 11.6991 13.4764 10.7451 13.4764C9.79106 13.4764 8.88548 13.0146 8.32265 12.241L8.11209 11.9516H4.96312V15.671H2.05687V12.0148C2.05687 10.3774 3.38896 9.04533 5.02631 9.04533H8.09367L8.3039 8.74973C8.86584 7.95966 9.77845 7.48795 10.7451 7.48795C11.7117 7.48795 12.6243 7.95966 13.1862 8.74973L13.3964 9.04533H16.7154V11.9516H13.3781ZM18.6227 13.7223C18.3464 13.7223 18.1217 13.4976 18.1217 13.2213V7.989C18.1217 7.71272 18.3464 7.488 18.6227 7.488H19.9431V13.7224H18.6227V13.7223Z" fill="black"/>
</svg>
