<svg version="1.1" id="Layer_1" xmlns="http://www.w3.org/2000/svg" xmlns:xlink="http://www.w3.org/1999/xlink" x="0px" y="0px"
	 viewBox="0 0 140 57" style="enable-background:new 0 0 140 57;" xml:space="preserve">
<path fill="#000000" d="M5,44.4h2.2V49c0.7-0.9,1.7-1.2,2.5-1.2c2.3,0,3.3,1.9,3.3,3.7v5.3h-2.2v-5c0-1.1-0.3-2-1.6-2
	c-1.4,0-2,1.1-2,2.6v4.5H5V44.4z M21.1,51.6c-0.1-1.3-0.9-1.9-2-1.9c-1.3,0-1.8,0.8-2,1.9H21.1z M14.8,52.5c0-2.3,1.3-4.6,4.3-4.6
	c3.1,0,4.1,2.5,4.1,4.4c0,0.4,0,0.7-0.1,0.8h-6c0.2,1.2,0.8,1.9,2.2,1.9c0.8,0,1.5-0.2,2.1-0.9l1.5,1.3c-1,1.1-2.1,1.6-3.6,1.6
	C16.2,57,14.8,54.8,14.8,52.5 M30.3,53.1h-2.2c-1,0-1.4,0.5-1.4,1.1s0.5,1,1.3,1C29.2,55.2,30.2,54.2,30.3,53.1 M24.5,54.1
	c0-1.9,1.5-2.5,3.5-2.5h2.3c0-1.1-0.6-1.9-1.7-1.9c-1,0-1.7,0.6-2.1,1.2l-1.6-1.2c0.8-1.2,2-1.9,3.7-1.9c2.4,0,3.8,1.5,3.8,3.6v5.3
	h-1.8l-0.1-1.3c-0.8,1.1-1.7,1.4-2.7,1.4C25.8,57,24.5,56,24.5,54.1 M34.5,55.1V44.4h2.2v10.1c0,0.4,0.3,0.6,0.7,0.6
	c0.1,0,0.4,0,0.6-0.1v1.8c-0.4,0.1-1.1,0.2-1.6,0.2C35.3,57,34.5,56.6,34.5,55.1 M40.2,54.4v-4.6h-1.4V48h1.5v-2.2l2.1-1.5V48h2.2
	v1.8h-2.2V54c0,0.8,0.4,1.1,1,1.1c0.4,0,0.9-0.2,1.2-0.3v1.9c-0.3,0.1-1,0.3-1.6,0.3C41.2,57,40.2,56,40.2,54.4 M46.4,44.4h2.2V49
	c0.7-0.9,1.7-1.2,2.5-1.2c2.3,0,3.3,1.9,3.3,3.7v5.3h-2.2v-5c0-1.1-0.3-2-1.6-2c-1.4,0-2,1.1-2,2.6v4.5h-2.2V44.4z M61,56.8h2.1V48
	H61V56.8z M60.9,46.4h2.2v-2h-2.2V46.4z"/>
<g>
	<path fill="#000000" d="M65.2,48h2.1v1c0.7-0.9,1.7-1.2,2.6-1.2c2.3,0,3.2,1.9,3.2,3.7v5.3H71v-5c0-1.2-0.6-2-1.7-2
		c-1.2,0-2,0.7-2,2.2v4.8h-2.1C65.2,56.8,65.2,48,65.2,48z M74.7,54.5l1.7-0.8c0.2,0.6,0.7,1.4,1.9,1.4c1,0,1.4-0.6,1.4-1
		c0-1.5-4.4-0.5-4.4-3.6c0-1.9,1.6-2.7,3.3-2.7c1.5,0,2.7,0.7,3.3,1.9l-1.7,0.9c-0.3-0.5-0.8-1.1-1.7-1.1c-0.7,0-1.1,0.3-1.1,0.8
		c0,1.3,4.5,0.5,4.5,3.8c0,2-1.8,2.9-3.4,2.9C76.5,57,75.1,55.9,74.7,54.5 M83.3,52.7V48h2.2v4.7c0,1.4,0.3,2.3,1.6,2.3
		c1,0,2-0.5,2-3.1v-4h2.2v8.8h-2.2v-1c-0.6,0.8-1.6,1.2-2.6,1.2C84.3,57,83.3,55.3,83.3,52.7 M93.4,48h2.1v1.5
		c0.4-1.1,1.4-1.7,2.4-1.7c0.6,0,1.2,0.2,1.6,0.6l-1,1.8c-0.3-0.2-0.6-0.3-1-0.3c-1,0-2.1,0.9-2.1,3.2v3.7h-2.1L93.4,48L93.4,48z
		 M106,53.1h-2.2c-1,0-1.4,0.5-1.4,1.1s0.5,1,1.3,1C104.9,55.2,105.9,54.2,106,53.1 M100.2,54.1c0-1.9,1.5-2.5,3.5-2.5h2.3
		c0-1.1-0.6-1.9-1.7-1.9c-1,0-1.7,0.6-2.1,1.2l-1.6-1.2c0.8-1.2,2-1.9,3.7-1.9c2.4,0,3.8,1.5,3.8,3.6v5.3h-1.8l-0.1-1.3
		c-0.8,1.1-1.7,1.4-2.7,1.4C101.6,57,100.2,56,100.2,54.1 M109.9,48h2.1v1c0.7-0.9,1.7-1.2,2.6-1.2c2.3,0,3.2,1.9,3.2,3.7v5.3h-2.1
		v-5c0-1.2-0.6-2-1.7-2c-1.2,0-2,0.7-2,2.2v4.8h-2.1V48z M119.6,52.4c0-2.3,1.4-4.6,4.2-4.6c1.7,0,3.1,0.8,3.8,2.6l-2,0.8
		c-0.2-0.8-0.9-1.4-1.8-1.4c-1.5,0-2.1,1.3-2.1,2.7c0,1.3,0.6,2.6,2.1,2.6c0.9,0,1.5-0.6,1.8-1.4l2,0.7c-0.6,1.6-2,2.6-3.7,2.6
		C121,57,119.6,54.8,119.6,52.4 M134.9,51.6c-0.1-1.3-0.9-1.9-2-1.9c-1.3,0-1.8,0.8-2,1.9H134.9z M128.6,52.5c0-2.3,1.3-4.6,4.3-4.6
		c3.1,0,4.1,2.5,4.1,4.4c0,0.4,0,0.7-0.1,0.8h-6c0.2,1.2,0.8,1.9,2.2,1.9c0.8,0,1.5-0.2,2.1-0.9l1.5,1.3c-1,1.1-2.1,1.6-3.6,1.6
		C130.1,57,128.6,54.8,128.6,52.5 M5.1,8.4C5.1,3,9,0.1,13.7,0.1c1.8,0,3.5,0.5,5,1.1l-2.2,5.5C15.9,6.3,15.1,6,14.3,6
		c-1.4,0-2.5,0.9-2.5,3v3h6.4v5.6h-6.4v22H5C5,39.6,5.1,8.4,5.1,8.4z M60,27.6h-6.8c-3.1,0-4.5,1.6-4.5,3.3c0,1.8,1.5,3.1,4.1,3.1
		C56.6,34,59.9,31,60,27.6 M41.8,30.7c0-6,4.8-8,11-8H60c0-3.5-1.9-5.8-5.4-5.8c-3.2,0-5.3,1.9-6.5,3.9l-5.2-3.7
		c2.7-3.6,6.2-6,11.6-6c7.5,0,11.9,4.7,11.9,11.4v17h-6v-4.2c-2.4,3.5-5.3,4.5-8.6,4.5C46.2,39.7,41.8,36.5,41.8,30.7 M71,12h6.7
		v3.2c2.2-2.7,5.5-3.8,8.2-3.8c7.2,0,10,5.8,10,11.6v16.6h-6.7V23.8c0-3.6-1.8-6.2-5.3-6.2c-3.8,0-6.2,2-6.2,6.8v15.1H71V12z"/>
</g>
<path fill="#000000" d="M100.6,12h6.8v11.4L117.8,12h8.7l-10.3,10.6l11.5,16.9h-8l-8.1-12.7l-4.2,4.7v8h-6.8V12z M130.3,32.8h6.7v6.7
	h-6.7V32.8z"/>
<g>
	<path fill="#000000" d="M22.5,12.1h6.7v4.6c1.2-3.3,4.3-5.2,7.4-5.2c1.8,0,3.7,0.6,5.1,2L38.6,19c-0.9-0.6-1.9-0.9-3-0.9
		c-3.1,0-6.4,2.9-6.4,9.9v11.7h-6.7V12.1z"/>
</g>
</svg>
