<svg width="130" height="24" viewBox="0 0 130 24" fill="none" xmlns="http://www.w3.org/2000/svg">
<g clip-path="url(#clip0_2618_21924)">
<path d="M30.0197 1.17131H34.3431V10.5083H44.4303V1.17061H48.7537V23.4478H44.4303V14.3513H34.3431V23.4478H30.0197V1.17131Z" fill="#004F3D"/>
<path d="M55.6121 16.588C55.6121 18.6447 57.1892 20.1542 59.276 20.1542C61.3627 20.1542 62.5173 18.8769 62.5173 18.8769V7.25027H66.7807V23.4478H62.9203V21.0912C62.0264 22.3142 60.3246 23.7483 57.7888 23.7483C53.9458 23.7483 51.3487 21.0459 51.3487 17.113V7.25027H55.6121V16.588Z" fill="#004F3D"/>
<path d="M125.396 13.4352C124.975 11.5437 123.745 10.5983 121.928 10.5983C120.111 10.5983 118.7 11.529 118.115 13.4352H125.395H125.396ZM113.567 15.3567C113.567 10.2524 117.199 6.95047 121.928 6.95047C126.658 6.95047 129.87 9.81739 129.87 15.0416V16.1222H117.876C118.146 18.7946 119.812 20.1005 121.869 20.1005C123.805 20.1005 125.066 19.305 125.891 17.6687L129.569 19.0345C128.233 21.9467 125.516 23.7483 121.869 23.7483C117.14 23.7483 113.567 20.4456 113.567 15.3567Z" fill="#004F3D"/>
<path d="M111.311 0H107.033V23.4478H111.311V0Z" fill="#004F3D"/>
<path d="M78.1041 20.1542C75.4986 20.1542 73.386 18.0417 73.386 15.4362C73.386 12.8307 75.4986 10.7182 78.1041 10.7182C79.3521 10.7182 80.4864 11.2041 81.3307 11.9955V18.8762C80.4871 19.6682 79.3528 20.1535 78.1041 20.1535V20.1542ZM81.3307 0V9.08183C80.1301 7.73064 78.4638 6.95047 76.5723 6.95047C72.5341 6.95047 69.0369 10.2531 69.0369 15.3567C69.0369 20.4603 72.5348 23.7483 76.5723 23.7483C78.7037 23.7483 80.5206 22.7576 81.7512 21.0912V23.4478H85.6088V0H81.3307Z" fill="#004F3D"/>
<path d="M96.9329 20.1542C94.3274 20.1542 92.2149 18.0417 92.2149 15.4362C92.2149 12.8307 94.3274 10.7182 96.9329 10.7182C98.1809 10.7182 99.3152 11.2041 100.16 11.9955V18.8762C99.3159 19.6682 98.1816 20.1535 96.9329 20.1535V20.1542ZM100.16 0V9.08183C98.9589 7.73064 97.2926 6.95047 95.4011 6.95047C91.3629 6.95047 87.8657 10.2531 87.8657 15.3567C87.8657 20.4603 91.3636 23.7483 95.4011 23.7483C97.5325 23.7483 99.3494 22.7576 100.58 21.0912V23.4485H104.438V0H100.16Z" fill="#004F3D"/>
<path d="M5.00735 7.31023C6.48961 7.31023 7.82128 7.95515 8.73811 8.97935C9.53153 8.09319 10.014 6.92398 10.014 5.64111C10.014 2.87599 7.77248 0.63446 5.00735 0.63446C2.24222 0.63446 0 2.87599 0 5.64111C0 6.92398 0.483165 8.09319 1.27589 8.97935C2.19272 7.95515 3.52439 7.31023 5.00665 7.31023" fill="#5799FF"/>
<path d="M18.3589 7.31023C19.8419 7.31023 21.1728 7.95515 22.0896 8.97935C22.8831 8.09319 23.3655 6.92398 23.3655 5.64111C23.3655 2.87599 21.124 0.63446 18.3582 0.63446C15.5924 0.63446 13.3515 2.87599 13.3515 5.64111C13.3515 6.92398 13.834 8.09319 14.6274 8.97935C15.5443 7.95515 16.8759 7.31023 18.3582 7.31023" fill="#FF8712"/>
<path d="M13.3522 12.3169C13.3522 11.034 13.8354 9.8648 14.6281 8.97865C14.3123 8.62586 14.046 8.22845 13.8396 7.79688C13.1863 7.48453 12.4556 7.30953 11.6838 7.30953C8.91869 7.30953 6.67647 9.55106 6.67647 12.3169C6.67647 15.0827 8.91799 17.3235 11.6838 17.3235C12.9667 17.3235 14.1359 16.8404 15.022 16.0476C13.9979 15.1308 13.3529 13.7991 13.3529 12.3169" fill="#004F3D"/>
<path d="M23.3655 18.9933C23.3655 21.7585 21.124 24 18.3582 24C15.5924 24 13.3515 21.7585 13.3515 18.9933C13.3515 16.2282 15.5931 13.9867 18.3582 13.9867C21.1233 13.9867 23.3655 16.2282 23.3655 18.9933Z" fill="#0566FF"/>
<path d="M10.014 18.9933C10.014 21.7585 7.77248 24 5.00735 24C2.24222 24 0 21.7585 0 18.9933C0 16.2282 2.24152 13.9867 5.00665 13.9867C7.77178 13.9867 10.0133 16.2282 10.0133 18.9933" fill="#FF80A1"/>
</g>
<defs>
<clipPath id="clip0_2618_21924">
<rect width="129.869" height="24" fill="white"/>
</clipPath>
</defs>
</svg>
