<?xml version="1.0" encoding="UTF-8"?>
<svg width="135px" height="24px" viewBox="0 0 135 24" version="1.1" xmlns="http://www.w3.org/2000/svg" xmlns:xlink="http://www.w3.org/1999/xlink">
    <title>4D114CFC-E51F-46A6-A4B3-5177D1E5957F</title>
    <defs>
        <polygon id="path-1" points="1.26693333 0.565866667 35.8122667 0.565866667 35.8122667 20 1.26693333 20"></polygon>
        <polygon id="path-3" points="0.655066667 0.419066667 23.7666667 0.419066667 23.7666667 10.4390667 0.655066667 10.4390667"></polygon>
    </defs>
    <g id="Desktop-designs" stroke="none" stroke-width="1" fill="none" fill-rule="evenodd">
        <g id="Flexicover_UI-kit" transform="translate(-632.000000, -144.000000)">
            <g id="Group-191" transform="translate(632.000000, 144.000000)">
                <g id="Group-3" transform="translate(2.666667, 2.812133)">
                    <mask id="mask-2" fill="white">
                        <use xlink:href="#path-1"></use>
                    </mask>
                    <g id="Clip-2"></g>
                    <path d="M33.0136,11.0298667 C33.4776,10.7272 33.7589333,10.3992 33.8082667,10.0578667 C33.8696,9.72986667 33.8802667,9.5352 33.8309333,9.5112 C33.3909333,10.1925333 32.9162667,10.7032 32.3656,11.0192 C32.3536,11.0192 32.3536,11.0192 32.3536,11.0298667 C31.8282667,11.2738667 31.2776,11.3338667 30.6789333,11.2138667 C28.6509333,10.7272 26.7202667,10.6778667 24.8869333,11.0432 C23.0669333,11.4192 21.8576,12.2458667 21.2949333,13.5458667 C21.1109333,13.2792 20.8789333,13.0845333 20.5869333,12.9512 C20.3776,12.5258667 20.2682667,11.8805333 20.3416,11.0192 C20.3549333,10.3738667 20.3776,10.0218667 20.3909333,9.92453333 C20.6469333,8.41786667 21.6616,7.3112 23.4322667,6.6312 C25.2296,5.9632 26.9522667,5.47653333 28.6016,5.18453333 C28.5402667,5.13653333 28.4802667,5.0992 28.4189333,5.0752 C27.9549333,4.86853333 26.7442667,5.0632 24.7762667,5.6832 C25.6682667,4.4432 26.1336,3.67786667 26.1949333,3.33786667 C26.2576,3.02186667 26.2309333,2.7192 26.1216,2.43786667 C25.7056,3.60453333 25.0576,4.7712 24.1922667,5.87786667 C21.4896,6.83786667 19.9989333,8.2232 19.7429333,9.98586667 C19.7176,10.1552 19.6696,10.3498667 19.6082667,10.5445333 L19.3749333,11.6138667 C19.0469333,10.6165333 18.1416,9.42586667 16.6882667,7.98053333 C15.1496,6.46053333 14.7456,5.0512 15.4296,3.73786667 L15.4669333,3.67786667 C15.9189333,2.77786667 16.6882667,1.74586667 17.7749333,0.565866667 C17.1642667,0.821866667 16.3096,1.73253333 15.2216,3.30053333 C14.8429333,2.40186667 14.3549333,1.86586667 13.7669333,1.68453333 C14.3549333,2.23253333 14.7696,2.88853333 15.0149333,3.65386667 C14.2922667,5.0752 14.5496,6.43653333 15.7349333,7.70053333 C17.1162667,9.1952 18.1416,10.6405333 18.8749333,12.0765333 C18.2522667,11.3338667 17.8256,10.8725333 17.5682667,10.6778667 C17.1162667,10.1552 16.1376,9.72986667 14.6482667,9.43786667 C13.1082667,9.1472 11.7522667,8.4912 10.5176,7.49386667 C9.28426667,6.46053333 8.36693333,5.53786667 7.80426667,4.67386667 C7.7936,4.64986667 7.7936,4.63786667 7.76826667,4.63786667 C7.4376,4.14053333 7.1936,3.71386667 6.9856,3.36186667 C6.9016,3.19253333 6.81626667,3.06986667 6.7776,3.00986667 C6.62026667,3.30053333 6.81626667,3.8472 7.34026667,4.63786667 C5.76426667,4.7592 5.03093333,5.13653333 5.10426667,5.81653333 C5.8496,5.26986667 6.65626667,4.98986667 7.56026667,4.96586667 C8.14826667,5.81653333 8.79493333,6.58186667 9.55226667,7.2512 C11.2389333,8.74586667 12.7776,9.65653333 14.1589333,9.99786667 C15.3322667,10.2525333 16.1629333,10.6538667 16.6882667,11.1885333 C17.4589333,11.9778667 17.9336,12.8058667 18.1922667,13.6925333 C16.7242667,12.5858667 15.1122667,11.8805333 13.3762667,11.5538667 C11.1162667,11.1885333 8.75893333,11.4445333 6.29093333,12.2952 C5.33626667,12.6112 4.43226667,12.5258667 3.5776,12.0392 C3.06426667,11.6872 2.52693333,11.2138667 2.0376,10.5925333 C1.96426667,10.5925333 1.96426667,10.7392 2.0256,11.0432 C2.0976,11.3592 2.4656,11.7352 3.15093333,12.1725333 C2.2816,12.3072 1.73093333,12.6112 1.48693333,13.0592 C1.40293333,13.2058667 1.31626667,13.3272 1.26693333,13.4245333 C1.93893333,12.8898667 2.7096,12.5618667 3.50426667,12.4405333 C4.42026667,12.9272 5.70293333,12.9272 7.4016,12.4405333 C9.07626667,11.9538667 10.9322667,11.8458667 12.9496,12.1125333 C14.9402667,12.3672 16.5176,13.3152 17.6656,14.9685333 C17.8002667,15.4058667 17.7136,15.7938667 17.4096,16.0858667 C16.9696,16.5112 16.4816,16.9005333 15.9429333,17.2285333 C15.0749333,17.7765333 14.1962667,18.4685333 13.3642667,19.3192 C13.6216,19.2818667 13.8056,19.2458667 13.9269333,19.2218667 C14.0376,19.1858667 14.2922667,19.0885333 14.7082667,18.9192 C15.1122667,18.7485333 15.2082667,18.9912 15.0016,19.7085333 C16.3456,18.9552 17.4589333,18.7725333 18.2896,19.1858667 C18.2282667,19.0765333 18.1789333,18.9192 18.1309333,18.7485333 C18.0562667,18.3832 18.1176,18.0192 18.3136,17.6418667 C18.4856,17.2525333 18.7162667,16.7058667 18.9976,16.0258667 C19.2549333,15.3338667 19.1069333,14.6405333 18.5456,13.9352 C19.0469333,14.4205333 19.3162667,14.9445333 19.3749333,15.4912 C19.4136,15.6978667 19.4136,16.0005333 19.3656,16.4018667 C18.6056,18.1885333 18.9242667,19.3552 20.3776,19.9258667 C20.4282667,19.9392 20.4882667,19.9632 20.5869333,19.9885333 C20.3176,19.6712 20.1576,19.4765333 20.1469333,19.3805333 C19.7669333,18.5045333 19.7669333,17.8618667 20.1469333,17.4232 C19.7669333,18.5658667 20.3776,19.2458667 21.9416,19.4658667 C22.7242667,19.5618667 23.2629333,19.7205333 23.5189333,20.0005333 C23.5802667,19.6218667 23.4456,19.3805333 23.1522667,19.2818667 C22.8589333,19.1618667 22.4669333,19.0765333 21.9802667,18.9792 C21.5389333,18.8685333 21.4296,18.6272 21.6376,18.2378667 C21.7349333,18.6032 22.0642667,18.8085333 22.5909333,18.8578667 C23.0909333,18.9192 23.5802667,19.1125333 24.0562667,19.4165333 C24.5442667,19.7205333 25.2909333,19.7685333 26.3282667,19.5138667 C25.7549333,19.0765333 25.2056,18.7725333 24.6922667,18.6272 C23.5056,18.1885333 22.7496,17.3752 22.3949333,16.1952 C22.2976,15.9885333 22.2362667,15.7578667 22.1749333,15.5032 C22.0522667,14.9192 21.9296,14.5432 21.8696,14.3605333 C22.6389333,12.8898667 23.7136,11.9538667 25.1202667,11.5538667 C26.8189333,11.0912 28.6269333,11.0912 30.5816,11.5765333 C31.2536,11.7472 31.8762667,11.6752 32.4882667,11.3832 C33.7336,11.5165333 34.8202667,11.9298667 35.7736,12.5978667 C35.7989333,12.5978667 35.7989333,12.5978667 35.8122667,12.6112 C35.7989333,12.5978667 35.7989333,12.5978667 35.7736,12.5858667 C35.6402667,12.4405333 35.4082667,12.1858667 35.1149333,11.8458667 C34.7842667,11.4445333 34.0762667,11.1645333 33.0136,11.0298667" id="Fill-1" fill="#333F48" mask="url(#mask-2)"></path>
                </g>
                <path d="M1.18546667,15.3492 C1.74813333,15.6412 2.33346667,15.5198667 2.99346667,14.9972 C2.49213333,14.8025333 2.00413333,14.6318667 1.4788,14.4985333 C0.952133333,14.4025333 0.464133333,14.2318667 0.000133333333,13.9878667 C0.3668,14.6825333 0.757466667,15.1305333 1.18546667,15.3492" id="Fill-4" fill="#333F48"></path>
                <path d="M3.00573333,14.9728 C2.79773333,14.1581333 2.39506667,13.7088 1.78306667,13.5874667 C1.31906667,13.5021333 0.7204,13.6234667 0.0004,13.9514667 C0.4884,14.1714667 0.989733333,14.3168 1.51506667,14.4021333 C2.03906667,14.4994667 2.5404,14.6821333 3.00573333,14.9728" id="Fill-6" fill="#333F48"></path>
                <path d="M4.5696,18.6681333 C5.16693333,18.4601333 5.51093333,17.9628 5.60826667,17.1481333 C5.10693333,17.3428 4.63093333,17.5734667 4.16693333,17.8414667 C3.72693333,18.1454667 3.26293333,18.3641333 2.7616,18.5334667 C3.51893333,18.7641333 4.10426667,18.8121333 4.5696,18.6681333" id="Fill-8" fill="#333F48"></path>
                <path d="M5.58386667,17.1121333 C4.87586667,16.6868 4.2652,16.6388 3.73853333,16.9908 C3.34786667,17.2574667 3.0172,17.7561333 2.7372,18.4974667 C3.23853333,18.3148 3.70253333,18.0601333 4.1412,17.7561333 C4.5692,17.4521333 5.05853333,17.2334667 5.58386667,17.1121333" id="Fill-10" fill="#333F48"></path>
                <path d="M8.91973333,18.1577333 C9.44506667,17.8177333 9.65306667,17.2457333 9.53173333,16.4324 C9.10373333,16.7470667 8.70106667,17.0990667 8.32106667,17.4764 C7.97973333,17.8777333 7.5744,18.2177333 7.14773333,18.5097333 C7.9184,18.5337333 8.51573333,18.4244 8.91973333,18.1577333" id="Fill-12" fill="#333F48"></path>
                <path d="M9.494,16.3953333 C8.70066667,16.1646667 8.10066667,16.286 7.686,16.7473333 C7.38066667,17.1126667 7.186,17.6953333 7.12466667,18.462 C7.538,18.17 7.93,17.8166667 8.27266667,17.3913333 C8.61533333,16.99 9.018,16.65 9.494,16.3953333" id="Fill-14" fill="#333F48"></path>
                <path d="M13.2948,17.3550667 C13.8308,17.0270667 14.0268,16.4564 13.9054667,15.6417333 C13.4774667,15.9577333 13.0748,16.2977333 12.7081333,16.6870667 C12.3668,17.0750667 11.9614667,17.4284 11.5228,17.7070667 C12.3054667,17.7324 12.9028,17.6230667 13.2948,17.3550667" id="Fill-16" fill="#333F48"></path>
                <path d="M13.8808,15.6050667 C13.0754667,15.3610667 12.4754667,15.4837333 12.0608,15.9570667 C11.7661333,16.3224 11.5714667,16.9050667 11.4981333,17.6717333 C11.9248,17.3677333 12.3048,17.0144 12.6461333,16.5890667 C12.9888,16.1877333 13.4048,15.8477333 13.8808,15.6050667" id="Fill-18" fill="#333F48"></path>
                <path d="M16.4953333,18.1577333 C17.022,17.8177333 17.2166667,17.2457333 17.094,16.4324 C16.6673333,16.7470667 16.2753333,17.0990667 15.898,17.4764 C15.5553333,17.8777333 15.1513333,18.2177333 14.7246667,18.5097333 C15.494,18.5337333 16.0913333,18.4244 16.4953333,18.1577333" id="Fill-20" fill="#333F48"></path>
                <path d="M17.0696,16.3953333 C16.2749333,16.1646667 15.6762667,16.286 15.2616,16.7473333 C14.9549333,17.1126667 14.7616,17.6953333 14.6989333,18.462 C15.1149333,18.17 15.5056,17.8166667 15.8482667,17.3913333 C16.1776,16.99 16.5936,16.65 17.0696,16.3953333" id="Fill-22" fill="#333F48"></path>
                <path d="M8.4068,13.5998667 C8.65213333,14.1585333 9.18946667,14.4505333 10.0188,14.4745333 C9.7748,14.0132 9.49346667,13.5505333 9.18946667,13.1252 C8.8468,12.7252 8.57746667,12.2878667 8.3708,11.8012 C8.21213333,12.5665333 8.2228,13.1745333 8.4068,13.5998667" id="Fill-24" fill="#333F48"></path>
                <path d="M10.0565333,14.4501333 C10.4112,13.7088 10.3992,13.1008 9.9952,12.6274667 C9.6912,12.2634667 9.16453333,11.9834667 8.3952,11.7768 C8.62586667,12.2501333 8.9192,12.6888 9.27386667,13.0901333 C9.61653333,13.4781333 9.87253333,13.9514667 10.0565333,14.4501333" id="Fill-26" fill="#333F48"></path>
                <path d="M13.6112,13.7092 C14.1378667,13.3692 14.3325333,12.7972 14.2098667,11.9718667 C13.7832,12.2998667 13.3925333,12.6398667 13.0138667,13.0292 C12.6712,13.4172 12.2792,13.7692 11.8285333,14.0492 C12.6218667,14.0732 13.2205333,13.9638667 13.6112,13.7092" id="Fill-28" fill="#333F48"></path>
                <path d="M14.1984,11.9474667 C13.3930667,11.7154667 12.7917333,11.8368 12.3784,12.2994667 C12.0717333,12.6648 11.8770667,13.2354667 11.8157333,14.0128 C12.2437333,13.7088 12.6224,13.3554667 12.9637333,12.9314667 C13.2944,12.5301333 13.7104,12.2021333 14.1984,11.9474667" id="Fill-30" fill="#333F48"></path>
                <path d="M15.8,10.4644 C15.8,11.0830667 16.1893333,11.5457333 16.948,11.8737333 C16.8986667,11.3510667 16.8133333,10.8284 16.6906667,10.3057333 C16.5333333,9.80706667 16.4466667,9.29773333 16.4346667,8.77506667 C15.9946667,9.41906667 15.7866667,9.98973333 15.8,10.4644" id="Fill-32" fill="#333F48"></path>
                <path d="M16.9966667,11.8738667 C17.6206667,11.3272 17.8273333,10.7445333 17.6446667,10.1605333 C17.498,9.6992 17.0953333,9.23653333 16.4713333,8.7752 C16.5086667,9.28586667 16.606,9.8072 16.79,10.3058667 C16.9486667,10.8045333 17.022,11.3392 16.9966667,11.8738667" id="Fill-34" fill="#333F48"></path>
                <path d="M6.1464,12.4332 C6.69573333,12.6878667 7.2944,12.5665333 7.9424,12.0438667 C7.44106667,11.8372 6.92773333,11.6918667 6.4144,11.5705333 C5.8904,11.4718667 5.38906667,11.3265333 4.92373333,11.0972 C5.30373333,11.7772 5.7064,12.2265333 6.1464,12.4332" id="Fill-36" fill="#333F48"></path>
                <path d="M7.942,12.0073333 C7.73533333,11.206 7.318,10.7566667 6.70733333,10.658 C6.23266667,10.574 5.63266667,10.7193333 4.93666667,11.0606667 C5.414,11.266 5.926,11.3993333 6.46333333,11.4726667 C6.97666667,11.546 7.478,11.7286667 7.942,12.0073333" id="Fill-38" fill="#333F48"></path>
                <path d="M2.16333333,12.0933333 C2.554,12.5786667 3.12866667,12.736 3.94733333,12.5426667 C3.59133333,12.1413333 3.214,11.7773333 2.798,11.448 C2.37133333,11.1453333 1.99133333,10.78 1.662,10.3666667 C1.698,11.1453333 1.86866667,11.716 2.16333333,12.0933333" id="Fill-40" fill="#333F48"></path>
                <path d="M3.97053333,12.5054667 C4.13053333,11.7028 3.95853333,11.1081333 3.4572,10.7561333 C3.0652,10.4881333 2.47986667,10.3428 1.69853333,10.3308 C2.02786667,10.7308 2.41853333,11.0841333 2.87186667,11.3881333 C3.29986667,11.6788 3.6652,12.0561333 3.97053333,12.5054667" id="Fill-42" fill="#333F48"></path>
                <path d="M6.56173333,6.52626667 C7.00173333,6.9636 7.6124,7.03693333 8.38173333,6.74493333 C7.97773333,6.40493333 7.55106667,6.08893333 7.09906667,5.80893333 C6.64573333,5.55426667 6.2324,5.23826667 5.8524,4.86093333 C5.98706667,5.6396 6.2324,6.18626667 6.56173333,6.52626667" id="Fill-44" fill="#333F48"></path>
                <path d="M8.4068,6.72093333 C8.4668,5.89426667 8.2228,5.3236 7.68546667,5.0316 C7.2588,4.80093333 6.6588,4.7396 5.87746667,4.83693333 C6.26813333,5.18893333 6.68413333,5.49293333 7.17213333,5.7356 C7.63746667,5.9796 8.05213333,6.2956 8.4068,6.72093333" id="Fill-46" fill="#333F48"></path>
                <path d="M9.56826667,3.26906667 C9.5056,3.88906667 9.84826667,4.39973333 10.5682667,4.79973333 C10.5682667,4.2784 10.5442667,3.74373333 10.4842667,3.22106667 C10.3856,2.7104 10.3496,2.18773333 10.3989333,1.66506667 C9.8976,2.26106667 9.61626667,2.79573333 9.56826667,3.26906667" id="Fill-48" fill="#333F48"></path>
                <path d="M10.606,4.80026667 C11.278,4.31493333 11.5593333,3.77893333 11.45,3.17093333 C11.3393333,2.6976 11.01,2.20026667 10.4473333,1.66426667 C10.4113333,2.17626667 10.4473333,2.71093333 10.5806667,3.22026667 C10.6913333,3.74426667 10.6913333,4.2776 10.606,4.80026667" id="Fill-50" fill="#333F48"></path>
                <path d="M12.7688,8.32573333 C12.5741333,8.9204 12.7688,9.4924 13.3794667,10.0497333 C13.5021333,9.5404 13.5994667,9.02973333 13.6608,8.49506667 C13.6848,7.9724 13.7834667,7.46173333 13.9541333,6.97506667 C13.3181333,7.42573333 12.9154667,7.8764 12.7688,8.32573333" id="Fill-52" fill="#333F48"></path>
                <path d="M13.4158667,10.0633333 C14.1852,9.75933333 14.5772,9.286 14.6132,8.666 C14.6265333,8.19133333 14.4185333,7.63133333 13.9918667,6.97533333 C13.8438667,7.47533333 13.7718667,7.99666667 13.7585333,8.53266667 C13.7465333,9.042 13.6238667,9.56466667 13.4158667,10.0633333" id="Fill-54" fill="#333F48"></path>
                <path d="M13.3794667,3.6336 C13.8448,4.04826667 14.4554667,4.09626667 15.2128,3.74426667 C14.7954667,3.42693333 14.3568,3.13626667 13.8808,2.88026667 C13.4048,2.6496 12.9754667,2.3696 12.5741333,2.0296 C12.7568,2.78293333 13.0248,3.3176 13.3794667,3.6336" id="Fill-56" fill="#333F48"></path>
                <path d="M15.2374667,3.7072 C15.2494667,2.89253333 14.9814667,2.34586667 14.4188,2.07786667 C13.9654667,1.87253333 13.3788,1.8472 12.5988,1.99386667 C13.0001333,2.32053333 13.4654667,2.58853333 13.9534667,2.7952 C14.4428,3.01386667 14.8721333,3.31786667 15.2374667,3.7072" id="Fill-58" fill="#333F48"></path>
                <path d="M16.5330667,1.872 C16.4717333,2.49066667 16.7997333,3.00133333 17.5224,3.40266667 C17.5344,2.89333333 17.5090667,2.35866667 17.4370667,1.82266667 C17.3384,1.31333333 17.3144,0.802666667 17.3624,0.28 C16.8490667,0.862666667 16.5810667,1.39733333 16.5330667,1.872" id="Fill-60" fill="#333F48"></path>
                <path d="M17.5590667,3.4032 C18.2430667,2.92853333 18.5244,2.39386667 18.4017333,1.78586667 C18.3044,1.31253333 17.9737333,0.8152 17.4004,0.280533333 C17.3750667,0.7912 17.4230667,1.31253333 17.5457333,1.8472 C17.6444,2.35786667 17.6564,2.88053333 17.5590667,3.4032" id="Fill-62" fill="#333F48"></path>
                <path d="M20.442,0.838133333 C20.026,1.29946667 20.002,1.90746667 20.3566667,2.65013333 C20.6753333,2.2368 20.9433333,1.78613333 21.2126667,1.3128 C21.4193333,0.838133333 21.714,0.4128 22.042,0.0008 C21.2993333,0.194133333 20.7473333,0.4608 20.442,0.838133333" id="Fill-64" fill="#333F48"></path>
                <path d="M20.3808,2.674 C21.2128,2.674 21.7621333,2.394 22.0194667,1.83533333 C22.2141333,1.386 22.2394667,0.79 22.0794667,0.0246666667 C21.7621333,0.436666667 21.4808,0.887333333 21.2861333,1.386 C21.0661333,1.87133333 20.7848,2.29666667 20.3808,2.674" id="Fill-66" fill="#333F48"></path>
                <path d="M23.9366667,1.896 C23.4726667,2.30933333 23.374,2.91733333 23.6433333,3.69466667 C24.01,3.31733333 24.3406667,2.892 24.646,2.46666667 C24.914,2.01733333 25.2433333,1.61733333 25.6246667,1.252 C24.842,1.36133333 24.2793333,1.568 23.9366667,1.896" id="Fill-68" fill="#333F48"></path>
                <path d="M23.6802667,3.73133333 C24.5109333,3.81533333 25.0736,3.59666667 25.4029333,3.06333333 C25.6362667,2.64866667 25.7336,2.054 25.6722667,1.27666667 C25.2922667,1.64066667 24.9762667,2.054 24.7189333,2.52866667 C24.4629333,3.002 24.1082667,3.39133333 23.6802667,3.73133333" id="Fill-70" fill="#333F48"></path>
                <path d="M20.2232,7.9 C19.7458667,8.3 19.6245333,8.89733333 19.8432,9.68533333 C20.2352,9.32266667 20.5778667,8.92133333 20.9072,8.496 C21.1885333,8.06933333 21.5418667,7.68133333 21.9458667,7.34 C21.1632,7.40133333 20.5885333,7.596 20.2232,7.9" id="Fill-72" fill="#333F48"></path>
                <path d="M19.8808,9.70986667 C20.6994667,9.8312 21.2861333,9.64986667 21.6154667,9.1392 C21.8848,8.73786667 22.0061333,8.14186667 21.9701333,7.35253333 C21.5901333,7.70586667 21.2488,8.11786667 20.9661333,8.56853333 C20.6861333,9.01786667 20.3208,9.4072 19.8808,9.70986667" id="Fill-74" fill="#333F48"></path>
                <path d="M21.0904,4.76453333 C20.4797333,4.92186667 20.1250667,5.42053333 20.0024,6.2352 C20.5037333,6.05253333 20.9797333,5.83386667 21.4690667,5.57786667 C21.8957333,5.2872 22.3730667,5.08053333 22.8864,4.92186667 C22.1410667,4.6672 21.5424,4.6192 21.0904,4.76453333" id="Fill-76" fill="#333F48"></path>
                <path d="M20.0148,6.27173333 C20.7228,6.72106667 21.3334667,6.7824 21.8601333,6.4544 C22.2628,6.17306667 22.6041333,5.68773333 22.8974667,4.9584 C22.3974667,5.12906667 21.9321333,5.37173333 21.4814667,5.67573333 C21.0534667,5.95573333 20.5641333,6.16106667 20.0148,6.27173333" id="Fill-78" fill="#333F48"></path>
                <path d="M23.1424,7.9 C23.0944,8.52 23.4370667,9.01866667 24.1570667,9.40666667 C24.1570667,8.89733333 24.1197333,8.36133333 24.0477333,7.82666667 C23.9370667,7.32933333 23.8997333,6.80666667 23.9370667,6.28266667 C23.4370667,6.89066667 23.1784,7.42533333 23.1424,7.9" id="Fill-80" fill="#333F48"></path>
                <path d="M24.2049333,9.40706667 C24.8782667,8.9204 25.1329333,8.37373333 25.0116,7.76573333 C24.9022667,7.30306667 24.5609333,6.80573333 23.9862667,6.28306667 C23.9609333,6.79373333 24.0102667,7.3284 24.1449333,7.83906667 C24.2676,8.36173333 24.2796,8.8724 24.2049333,9.40706667" id="Fill-82" fill="#333F48"></path>
                <path d="M20.9666667,10.3668 C20.552,10.8161333 20.516,11.4241333 20.8586667,12.1894667 C21.1746667,11.7641333 21.4693333,11.3268 21.7253333,10.8534667 C21.9573333,10.3788 22.2386667,9.94146667 22.5813333,9.54013333 C21.824,9.7228 21.2853333,10.0028 20.9666667,10.3668" id="Fill-84" fill="#333F48"></path>
                <path d="M20.8950667,12.202 C21.7257333,12.202 22.2750667,11.934 22.5324,11.3753333 C22.7404,10.938 22.7630667,10.33 22.6177333,9.57666667 C22.2870667,9.978 22.0190667,10.4273333 21.7990667,10.914 C21.5897333,11.3993333 21.2857333,11.838 20.8950667,12.202" id="Fill-86" fill="#333F48"></path>
                <path d="M25.636,5.6148 C25.464,6.2108 25.6973333,6.78146667 26.32,7.30546667 C26.4306667,6.78146667 26.5026667,6.2588 26.54,5.73613333 C26.54,5.2148 26.6013333,4.70413333 26.748,4.19213333 C26.1373333,4.6788 25.7706667,5.15346667 25.636,5.6148" id="Fill-88" fill="#333F48"></path>
                <path d="M26.3677333,7.30493333 C27.1144,6.96493333 27.5050667,6.49026667 27.4930667,5.87026667 C27.4797333,5.38493333 27.2477333,4.82493333 26.7957333,4.19426667 C26.6624,4.7036 26.6130667,5.22626667 26.6370667,5.7596 C26.6504,6.2956 26.5530667,6.79293333 26.3677333,7.30493333" id="Fill-90" fill="#333F48"></path>
                <path d="M27.688,2.8316 C27.5173333,3.4276 27.7373333,3.9876 28.3733333,4.52093333 C28.4826667,3.99826667 28.556,3.4756 28.58,2.95293333 C28.58,2.41826667 28.6413333,1.9076 28.8,1.39693333 C28.1773333,1.8836 27.8106667,2.35826667 27.688,2.8316" id="Fill-92" fill="#333F48"></path>
                <path d="M28.4093333,4.52106667 C29.1666667,4.18106667 29.5346667,3.6944 29.5346667,3.07573333 C29.5346667,2.60106667 29.288,2.0424 28.836,1.39706667 C28.7026667,1.91973333 28.6666667,2.4304 28.6773333,2.96506667 C28.6773333,3.50106667 28.604,4.0104 28.4093333,4.52106667" id="Fill-94" fill="#333F48"></path>
                <path d="M30.8169333,4.0588 C30.3396,4.47213333 30.2182667,5.06813333 30.4622667,5.85746667 C30.8302667,5.46946667 31.1716,5.08013333 31.4889333,4.6548 C31.7822667,4.21746667 32.1236,3.81613333 32.5142667,3.47613333 C31.7329333,3.56146667 31.1716,3.74413333 30.8169333,4.0588" id="Fill-96" fill="#333F48"></path>
                <path d="M30.4992,5.8824 C31.3165333,6.00373333 31.8792,5.79706667 32.2218667,5.2744 C32.4898667,4.8744 32.5885333,4.2784 32.5512,3.50106667 C32.1725333,3.86373333 31.8432,4.2664 31.5738667,4.71573333 C31.2938667,5.16506667 30.9378667,5.5544 30.4992,5.8824" id="Fill-98" fill="#333F48"></path>
                <path d="M34.2869333,5.50546667 C33.6762667,5.49346667 33.1869333,5.86946667 32.8442667,6.61213333 C33.3696,6.5748 33.8949333,6.5028 34.4082667,6.39346667 C34.9229333,6.2468 35.4349333,6.17346667 35.9736,6.17346667 C35.3242667,5.73746667 34.7749333,5.50546667 34.2869333,5.50546667" id="Fill-100" fill="#333F48"></path>
                <path d="M32.8442667,6.65973333 C33.3816,7.27973333 33.9576,7.51173333 34.5429333,7.33973333 C34.9949333,7.20773333 35.4829333,6.8304 35.9736,6.2224 C35.4469333,6.2464 34.9336,6.33173333 34.4082667,6.4904 C33.9202667,6.64773333 33.3816,6.69706667 32.8442667,6.65973333" id="Fill-102" fill="#333F48"></path>
                <path d="M29.3989333,11.618 C28.9949333,12.0926667 28.9829333,12.7006667 29.3509333,13.4526667 C29.6549333,13.0046667 29.9242667,12.566 30.1682667,12.0806667 C30.3882667,11.594 30.6456,11.1566667 30.9869333,10.7566667 C30.2176,10.962 29.7042667,11.242 29.3989333,11.618" id="Fill-104" fill="#333F48"></path>
                <path d="M29.3872,13.4657333 C30.2178667,13.4417333 30.7538667,13.1510667 30.9872,12.5777333 C31.1832,12.1417333 31.1952,11.5337333 31.0245333,10.7804 C30.7058667,11.1817333 30.4498667,11.6430667 30.2538667,12.1417333 C30.0472,12.6284 29.7645333,13.0644 29.3872,13.4657333" id="Fill-106" fill="#333F48"></path>
                <path d="M33.8598667,9.06666667 C33.5905333,9.62533333 33.7238667,10.2093333 34.2492,10.8533333 C34.4438667,10.3666667 34.6158667,9.856 34.7385333,9.33333333 C34.8118667,8.82266667 34.9838667,8.32533333 35.2038667,7.864 C34.5185333,8.22666667 34.0785333,8.628 33.8598667,9.06666667" id="Fill-108" fill="#333F48"></path>
                <path d="M34.2869333,10.8648 C35.0936,10.6581333 35.5442667,10.2461333 35.6442667,9.63813333 C35.7282667,9.16346667 35.5936,8.56746667 35.2402667,7.87546667 C35.0322667,8.35013333 34.8976,8.84746667 34.8122667,9.38346667 C34.7522667,9.9048 34.5682667,10.3914667 34.2869333,10.8648" id="Fill-110" fill="#333F48"></path>
                <path d="M36.9133333,9.26133333 C36.4973333,9.70933333 36.4613333,10.3173333 36.792,11.084 C37.108,10.6586667 37.4026667,10.22 37.672,9.76 C37.9026667,9.28533333 38.1973333,8.86 38.54,8.472 C37.7933333,8.628 37.2306667,8.89733333 36.9133333,9.26133333" id="Fill-112" fill="#333F48"></path>
                <path d="M36.8286667,11.1076 C37.6473333,11.1209333 38.1966667,10.8529333 38.478,10.2942667 C38.686,9.85693333 38.722,9.26093333 38.5753333,8.48226667 C38.2446667,8.89693333 37.9646667,9.33293333 37.7446667,9.8196 C37.5246667,10.3049333 37.2193333,10.7316 36.8286667,11.1076" id="Fill-114" fill="#333F48"></path>
                <path d="M38.5148,11.6434667 C37.9521333,11.8861333 37.6481333,12.4328 37.6481333,13.2474667 C38.1241333,12.9914667 38.5628,12.7128 38.9908,12.3954667 C39.3934667,12.0674667 39.8468,11.7874667 40.3108,11.5701333 C39.5521333,11.4114667 38.9414667,11.4368 38.5148,11.6434667" id="Fill-116" fill="#333F48"></path>
                <path d="M37.6724,13.284 C38.4177333,13.6373333 39.0390667,13.612 39.5164,13.2226667 C39.8710667,12.8946667 40.1524,12.372 40.3350667,11.6066667 C39.8710667,11.8373333 39.4310667,12.128 39.0390667,12.4933333 C38.6484,12.8466667 38.1844,13.1013333 37.6724,13.284" id="Fill-118" fill="#333F48"></path>
                <path d="M41.5696,14.0497333 C40.9829333,13.8417333 40.3962667,14.0497333 39.8456,14.6444 C40.3602667,14.7910667 40.8736,14.8750667 41.4109333,14.9364 C41.9242667,14.9484 42.4482667,15.0457333 42.9362667,15.2164 C42.4736,14.5830667 42.0216,14.1950667 41.5696,14.0497333" id="Fill-120" fill="#333F48"></path>
                <path d="M39.8352,14.6929333 C40.1525333,15.4596 40.6165333,15.8476 41.2272,15.8716 C41.7152,15.8956 42.2898667,15.6782667 42.9365333,15.2529333 C42.4365333,15.1182667 41.9112,15.0342667 41.3738667,15.0342667 C40.8485333,15.0089333 40.3352,14.9129333 39.8352,14.6929333" id="Fill-122" fill="#333F48"></path>
                <path d="M41.2518667,17.2333333 C40.8612,16.7466667 40.2745333,16.6133333 39.4678667,16.82 C39.8358667,17.2093333 40.2372,17.5733333 40.6412,17.9013333 C41.0812,18.1933333 41.4718667,18.5466667 41.8012,18.9466667 C41.7398667,18.1693333 41.5692,17.5973333 41.2518667,17.2333333" id="Fill-124" fill="#333F48"></path>
                <path d="M39.4432,16.8686667 C39.2965333,17.6713333 39.4778667,18.254 40.0045333,18.606 C40.3965333,18.874 40.9952,18.9953333 41.7778667,18.9833333 C41.4338667,18.594 41.0312,18.242 40.5672,17.9633333 C40.1285333,17.6713333 39.7485333,17.3073333 39.4432,16.8686667" id="Fill-126" fill="#333F48"></path>
                <path d="M28.3234667,16.8081333 C28.1888,16.2014667 27.7008,15.8241333 26.8941333,15.6654667 C27.0394667,16.1761333 27.2474667,16.6628 27.4794667,17.1481333 C27.7488,17.5988 27.9448,18.0721333 28.0674667,18.5828 C28.3608,17.8534667 28.4461333,17.2694667 28.3234667,16.8081333" id="Fill-128" fill="#333F48"></path>
                <path d="M26.8456,15.678 C26.3682667,16.358 26.2829333,16.966 26.5882667,17.5006667 C26.8456,17.914 27.3216,18.278 28.0309333,18.5953333 C27.8962667,18.0953333 27.6629333,17.61 27.3949333,17.1726667 C27.1136,16.7233333 26.9296,16.226 26.8456,15.678" id="Fill-130" fill="#333F48"></path>
                <path d="M31.5617333,16.1394667 C31.4150667,15.5314667 30.9377333,15.1674667 30.1190667,15.0088 C30.2777333,15.5208 30.4737333,15.9941333 30.7177333,16.4794667 C30.9870667,16.9288 31.1710667,17.4154667 31.3057333,17.9154667 C31.5990667,17.1848 31.6844,16.6021333 31.5617333,16.1394667" id="Fill-132" fill="#333F48"></path>
                <path d="M30.0825333,15.0210667 C29.6065333,15.7024 29.5212,16.2984 29.8265333,16.8450667 C30.0705333,17.2450667 30.5598667,17.6090667 31.2692,17.9384 C31.1212,17.4277333 30.9012,16.9544 30.6212,16.5037333 C30.3518667,16.0544 30.1572,15.5557333 30.0825333,15.0210667" id="Fill-134" fill="#333F48"></path>
                <path d="M34.494,15.9572 C34.2993333,15.3612 33.798,15.0092 32.9793333,14.9118667 C33.1753333,15.4105333 33.4073333,15.8718667 33.6753333,16.3345333 C33.958,16.7718667 34.1766667,17.2332 34.3486667,17.7438667 C34.5793333,17.0025333 34.63,16.3945333 34.494,15.9572" id="Fill-136" fill="#333F48"></path>
                <path d="M32.942,14.9246667 C32.5153333,15.6286667 32.4673333,16.2366667 32.7966667,16.7473333 C33.0646667,17.1486667 33.566,17.4766667 34.2993333,17.7566667 C34.1286667,17.27 33.8833333,16.8086667 33.578,16.358 C33.2726667,15.9326667 33.0646667,15.4593333 32.942,14.9246667" id="Fill-138" fill="#333F48"></path>
                <path d="M37.8677333,16.6017333 C37.6477333,16.0177333 37.1330667,15.7017333 36.3144,15.6550667 C36.5357333,16.1284 36.7917333,16.5884 37.0717333,17.0390667 C37.3904,17.4524 37.6477333,17.9137333 37.8317333,18.4004 C38.0130667,17.6470667 38.0504,17.0510667 37.8677333,16.6017333" id="Fill-140" fill="#333F48"></path>
                <path d="M36.2778667,15.6656 C35.8752,16.3829333 35.8632,16.9909333 36.2298667,17.4882667 C36.5232,17.8776 37.0352,18.1802667 37.7938667,18.4242667 C37.5858667,17.9389333 37.3165333,17.4882667 36.9738667,17.0629333 C36.6578667,16.6629333 36.4245333,16.1882667 36.2778667,15.6656" id="Fill-142" fill="#333F48"></path>
                <path d="M27.8469333,10.5608 C27.6402667,9.97813333 27.1269333,9.65013333 26.3082667,9.5888 C26.5149333,10.0634667 26.7709333,10.5368 27.0402667,10.9861333 C27.3589333,11.4114667 27.6016,11.8741333 27.7869333,12.3608 C27.9936,11.6074667 28.0189333,11.0101333 27.8469333,10.5608" id="Fill-144" fill="#333F48"></path>
                <path d="M26.2596,9.60106667 C25.8556,10.3184 25.8316,10.9370667 26.1969333,11.4357333 C26.4782667,11.8250667 27.0049333,12.1290667 27.7489333,12.3717333 C27.5542667,11.8850667 27.2849333,11.4477333 26.9542667,11.0224 C26.6369333,10.5970667 26.4049333,10.1357333 26.2596,9.60106667" id="Fill-146" fill="#333F48"></path>
                <path d="M23.9862667,13.0529333 C23.6316,13.5516 23.6689333,14.1582667 24.1089333,14.8636 C24.3636,14.4022667 24.5969333,13.9276 24.7916,13.4422667 C24.9636,12.9316 25.1836,12.4809333 25.4769333,12.0436 C24.7569333,12.3116 24.2422667,12.6516 23.9862667,13.0529333" id="Fill-148" fill="#333F48"></path>
                <path d="M24.1450667,14.8752 C24.9637333,14.7792 25.4637333,14.4378667 25.6730667,13.8552 C25.8064,13.4045333 25.7570667,12.7978667 25.5130667,12.0685333 C25.2437333,12.5058667 25.0237333,12.9792 24.8784,13.4898667 C24.7304,13.9885333 24.4744,14.4498667 24.1450667,14.8752" id="Fill-150" fill="#333F48"></path>
                <path d="M10.8377333,6.12586667 C10.5324,6.6592 10.6297333,7.26853333 11.1190667,7.9352 C11.3390667,7.44986667 11.5230667,6.9632 11.6817333,6.45253333 C11.7910667,5.9312 11.9750667,5.45786667 12.2310667,5.0072 C11.5230667,5.3352 11.0577333,5.7112 10.8377333,6.12586667" id="Fill-152" fill="#333F48"></path>
                <path d="M11.1554667,7.94813333 C11.9608,7.76546667 12.4394667,7.38946667 12.5848,6.79346667 C12.6714667,6.32013333 12.5714667,5.73746667 12.2674667,5.02013333 C12.0354667,5.48146667 11.8768,5.9788 11.7661333,6.48946667 C11.6688,7.01213333 11.4501333,7.4988 11.1554667,7.94813333" id="Fill-154" fill="#333F48"></path>
                <path d="M15.0904,7.32893333 C15.6170667,7.64493333 16.2277333,7.5836 16.9104,7.12226667 C16.4464,6.8796 15.9570667,6.66093333 15.4570667,6.49026667 C14.9437333,6.35693333 14.4797333,6.15026667 14.0264,5.88226667 C14.3330667,6.5996 14.6877333,7.07293333 15.0904,7.32893333" id="Fill-156" fill="#333F48"></path>
                <path d="M16.9354667,7.08546667 C16.7994667,6.27213333 16.4341333,5.78546667 15.8354667,5.6268 C15.3714667,5.50546667 14.7861333,5.56546667 14.0394667,5.83346667 C14.5048,6.10146667 14.9928,6.2828 15.5061333,6.41746667 C16.0194667,6.5388 16.4834667,6.76946667 16.9354667,7.08546667" id="Fill-158" fill="#333F48"></path>
                <path d="M32.0265333,8.86026667 C31.5612,8.45893333 30.9505333,8.43493333 30.2065333,8.78693333 C30.6332,9.09093333 31.0852,9.38293333 31.5505333,9.6256 C32.0265333,9.84426667 32.4665333,10.1242667 32.8812,10.4522667 C32.6732,9.6976 32.3918667,9.16426667 32.0265333,8.86026667" id="Fill-160" fill="#333F48"></path>
                <path d="M30.1685333,8.82306667 C30.1818667,9.64973333 30.4738667,10.1844 31.0365333,10.4390667 C31.4752,10.6337333 32.0858667,10.6470667 32.8578667,10.4884 C32.4418667,10.1724 31.9765333,9.90573333 31.4752,9.69773333 C30.9992,9.50306667 30.5725333,9.2124 30.1685333,8.82306667" id="Fill-162" fill="#333F48"></path>
                <path d="M10.3013333,10.9748 C10.8266667,10.6348 11.0333333,10.0628 10.912,9.23613333 C10.472,9.56546667 10.0813333,9.90546667 9.70133333,10.2934667 C9.36,10.6828 8.95733333,11.0361333 8.516,11.3148 C9.312,11.3508 9.89733333,11.2294667 10.3013333,10.9748" id="Fill-164" fill="#333F48"></path>
                <path d="M10.8742667,9.2124 C10.0809333,8.9684 9.47026667,9.09106667 9.0676,9.56573333 C8.76226667,9.92973333 8.56626667,10.5004 8.49293333,11.2777333 C8.9196,10.9870667 9.3116,10.6217333 9.65293333,10.1964 C9.9836,9.79506667 10.3996,9.45506667 10.8742667,9.2124" id="Fill-166" fill="#333F48"></path>
                <path d="M32.6972,12.4448 C32.7585333,13.0528 33.1745333,13.5154667 33.9558667,13.7701333 C33.8598667,13.2474667 33.7358667,12.7368 33.5905333,12.2381333 C33.3945333,11.7528 33.2732,11.2421333 33.2238667,10.7314667 C32.8212,11.3994667 32.6612,11.9714667 32.6972,12.4448" id="Fill-168" fill="#333F48"></path>
                <path d="M33.9926667,13.7697333 C34.5686667,13.1750667 34.7393333,12.5910667 34.5193333,12.0190667 C34.3353333,11.5817333 33.9206667,11.1444 33.2473333,10.7190667 C33.3206667,11.2297333 33.4673333,11.7524 33.6766667,12.2390667 C33.8833333,12.7244 33.9806667,13.2230667 33.9926667,13.7697333" id="Fill-170" fill="#333F48"></path>
                <path d="M5.43666667,9.3336 C5.974,9.6616 6.586,9.6016 7.27,9.15093333 C6.794,8.90826667 6.31666667,8.6776 5.81666667,8.49626667 C5.31533333,8.3616 4.83933333,8.1416 4.398,7.86293333 C4.69133333,8.59226667 5.046,9.07893333 5.43666667,9.3336" id="Fill-172" fill="#333F48"></path>
                <path d="M7.28173333,9.1148 C7.1604,8.30013333 6.80573333,7.81346667 6.21906667,7.63213333 C5.75506667,7.4988 5.1444,7.5708 4.39773333,7.8268 C4.86306667,8.0828 5.33906667,8.28813333 5.86573333,8.42146667 C6.39106667,8.55613333 6.85506667,8.7988 7.28173333,9.1148" id="Fill-174" fill="#333F48"></path>
                <path d="M70.4029333,10.5568 C71.2016,11.3768 71.6109333,12.4994667 71.6362667,13.9314667 C71.5589333,15.7234667 71.1229333,16.8474667 70.3522667,17.3581333 C69.5802667,17.8701333 68.8856,18.1248 68.2949333,18.0488 C66.8816,17.9981333 65.8256,17.5354667 65.0549333,16.6674667 C64.2602667,15.7714667 63.8496,14.6488 63.8496,13.2928 C63.9002667,11.7341333 64.2856,10.6861333 65.0042667,10.1221333 C65.7496,9.55946667 66.5456,9.30346667 67.3936,9.33146667 C68.6296,9.33146667 69.6322667,9.7648 70.4029333,10.5568 M73.8736,13.4714667 C73.8736,11.9634667 73.3069333,10.8128 72.2536,9.94346667 C71.1736,9.10213333 69.7082667,8.66613333 67.8322667,8.61413333 C65.6202667,8.6928 64.0296,9.27946667 63.0776,10.3288 C62.1002667,11.3994667 61.6109333,12.5261333 61.6389333,13.7021333 C61.6109333,14.9034667 62.1002667,16.0288 63.0776,17.1021333 C64.0296,18.1248 65.5696,18.6861333 67.6776,18.7634667 C69.5802667,18.7128 71.1229333,18.2008 72.2016,17.2301333 C73.3069333,16.2328 73.8736,14.9808 73.8736,13.4714667" id="Fill-176" fill="#333F48"></path>
                <path d="M77.3169333,13.6258667 C77.3169333,13.5472 77.3449333,13.5472 77.3956,13.5472 L78.0356,13.5472 C78.6009333,13.5472 79.0382667,13.6765333 79.3222667,13.8552 C79.8622667,14.2125333 80.2222667,14.6232 80.4262667,15.0325333 C80.6316,15.4658667 80.7356,15.7992 80.7356,16.1312 C80.7102667,16.8472 80.4782667,17.3072 80.0929333,17.5365333 C79.7076,17.7925333 79.3222667,17.9205333 78.8849333,17.8952 C78.5769333,17.9445333 78.1916,17.8952 77.8302667,17.7658667 C77.6249333,17.6898667 77.4462667,17.5632 77.3956,17.4085333 C77.3169333,17.2285333 77.2902667,16.9232 77.3169333,16.5138667 L77.3169333,13.6258667 Z M78.0636,9.4072 C78.7062667,9.43253333 79.1929333,9.6632 79.4769333,10.0458667 C79.7836,10.4552 79.9382667,10.8898667 79.9382667,11.3765333 C79.9129333,11.9885333 79.7076,12.4232 79.2702667,12.7298667 C78.9876,12.8845333 78.6009333,12.9352 78.0862667,12.9352 C77.7796,12.9352 77.5489333,12.9098667 77.3956,12.9098667 C77.3449333,12.9098667 77.3169333,12.8578667 77.3169333,12.7552 L77.3169333,9.63786667 C77.2902667,9.50853333 77.3449333,9.43253333 77.4462667,9.43253333 C77.6249333,9.4072 77.8302667,9.4072 78.0636,9.4072 L78.0636,9.4072 Z M74.2062667,8.81786667 C74.0009333,8.79253333 73.8716,8.84453333 73.8716,8.94586667 C73.8716,9.0512 73.9502667,9.07386667 74.1289333,9.07386667 C74.3622667,9.07386667 74.5662667,9.0992 74.6942667,9.12586667 C75.1316,9.20186667 75.3382667,9.43253333 75.3382667,9.84186667 L75.3382667,10.6072 C75.3622667,10.9658667 75.3622667,11.6058667 75.3622667,12.5778667 L75.3622667,14.8272 C75.3622667,16.0552 75.3382667,16.9752 75.2876,17.5365333 C75.2876,17.9445333 75.1049333,18.1752 74.8489333,18.2525333 C74.7209333,18.2525333 74.5662667,18.2792 74.3356,18.2792 C74.1542667,18.2792 74.0769333,18.3298667 74.0769333,18.4058667 C74.0769333,18.4832 74.2062667,18.5338667 74.3862667,18.5338667 C74.6942667,18.5338667 75.0289333,18.5338667 75.4142667,18.5085333 C75.8009333,18.5338667 76.0582667,18.5338667 76.2622667,18.5085333 C76.5449333,18.5085333 76.9822667,18.5338667 77.5489333,18.5338667 C78.1142667,18.5592 78.5236,18.5592 78.7302667,18.5845333 C80.0929333,18.5338667 81.0956,18.2258667 81.7369333,17.6645333 C82.3809333,17.1018667 82.6889333,16.4898667 82.6889333,15.7738667 C82.6356,15.0325333 82.3289333,14.4432 81.7636,13.9592 C81.1969333,13.4965333 80.5809333,13.1912 79.9382667,13.0125333 C80.3742667,12.7832 80.7609333,12.4738667 81.1222667,12.0658667 C81.4302667,11.7072 81.6102667,11.2472 81.6342667,10.7632 C81.6609333,10.3538667 81.4809333,9.94453333 81.0449333,9.53386667 C80.6316,9.07386667 79.7582667,8.84453333 78.4489333,8.81786667 C78.1916,8.81786667 77.8556,8.81786667 77.4196,8.84453333 L76.2369333,8.84453333 L75.3889333,8.84453333 C75.0036,8.81786667 74.5929333,8.81786667 74.2062667,8.81786667 L74.2062667,8.81786667 Z" id="Fill-178" fill="#333F48"></path>
                <path d="M83.2792,8.94746667 C83.2792,9.0488 83.3578667,9.07413333 83.5365333,9.07413333 C83.7432,9.07413333 83.8978667,9.10213333 83.9992,9.1248 C84.4632,9.20213333 84.6672,9.4328 84.6672,9.8408 L84.6672,10.6101333 C84.6938667,10.9661333 84.6938667,11.6061333 84.6938667,12.5781333 L84.6938667,14.8274667 C84.6938667,16.0554667 84.6672,16.9754667 84.6165333,17.5354667 C84.5912,17.9448 84.4632,18.1754667 84.1805333,18.2528 C84.0512,18.2528 83.8698667,18.2794667 83.6645333,18.2794667 C83.4845333,18.2794667 83.4085333,18.3301333 83.4085333,18.4061333 C83.4085333,18.5328 83.5125333,18.5848 83.7178667,18.5848 C84.0272,18.5581333 84.3605333,18.5581333 84.7458667,18.5328 C85.1058667,18.5328 85.3885333,18.5074667 85.5938667,18.5074667 C86.1858667,18.5074667 86.8272,18.5328 87.5738667,18.5328 C88.2925333,18.5581333 89.1925333,18.5848 90.2205333,18.5848 C90.5805333,18.5848 90.8098667,18.5581333 90.9392,18.5328 C91.0432,18.4821333 91.1192,18.3554667 91.1445333,18.2274667 C91.1952,17.9981333 91.2738667,17.6901333 91.3018667,17.3581333 C91.3245333,17.0261333 91.3778667,16.7941333 91.3778667,16.6928 C91.3778667,16.5394667 91.3245333,16.4368 91.2512,16.4114667 C91.1445333,16.4114667 91.0672,16.5128 91.0672,16.6168 C91.0165333,16.9208 90.8872,17.1781333 90.6818667,17.4088 C90.3498667,17.6901333 89.7565333,17.7914667 88.9618667,17.7408 C87.8818667,17.7408 87.2392,17.6648 87.0325333,17.4848 C86.7512,17.2808 86.6472,16.3861333 86.6978667,14.7768 L86.6978667,12.5781333 L86.6978667,10.6101333 C86.6978667,10.2754667 86.6978667,10.0194667 86.7245333,9.8408 C86.7245333,9.4328 86.9045333,9.17546667 87.2898667,9.1248 C87.4712,9.10213333 87.6765333,9.07413333 87.8565333,9.07413333 C88.0338667,9.07413333 88.1125333,9.0488 88.1125333,8.94746667 C88.1125333,8.84346667 88.0338667,8.7928 87.8058667,8.81813333 C87.4965333,8.81813333 87.1098667,8.81813333 86.6472,8.84346667 L85.6445333,8.84346667 L84.7458667,8.84346667 C84.3338667,8.81813333 83.9738667,8.81813333 83.5872,8.81813333 C83.3832,8.7928 83.2792,8.84346667 83.2792,8.94746667" id="Fill-180" fill="#333F48"></path>
                <path d="M106.001867,7.61733333 C107.389867,7.64266667 108.520533,8.128 109.4472,9.07466667 C110.397867,10.0466667 110.861867,11.376 110.884533,13.1133333 C110.861867,14.5453333 110.604533,15.6186667 110.140533,16.3093333 C109.677867,17.0253333 109.1392,17.4853333 108.520533,17.6906667 C107.929867,17.8946667 107.440533,17.996 107.005867,17.996 C105.412533,17.9453333 104.152533,17.3853333 103.252533,16.3626667 C102.376533,15.288 101.916533,13.9586667 101.916533,12.3466667 C101.941867,10.48 102.376533,9.25466667 103.225867,8.564 C104.048533,7.89866667 105.000533,7.56533333 106.001867,7.61733333 M100.244533,10.1226667 C99.7805333,11.044 99.5498667,11.912 99.5498667,12.8066667 C99.5498667,13.728 99.7805333,14.648 100.244533,15.5426667 C100.7072,16.436 101.452533,17.2053333 102.4552,17.792 C103.4312,18.4066667 104.717867,18.7386667 106.312533,18.764 C108.469867,18.7133333 110.140533,18.124 111.372533,16.9493333 C112.581867,15.7733333 113.197867,14.316 113.225867,12.5266667 C113.197867,10.812 112.581867,9.432 111.400533,8.40933333 C110.217867,7.41333333 108.573867,6.92666667 106.465867,6.90133333 C104.8192,6.92666667 103.481867,7.25866667 102.4552,7.87333333 C101.452533,8.48533333 100.7072,9.25466667 100.244533,10.1226667" id="Fill-182" fill="#333F48"></path>
                <path d="M57.6789333,7.0796 C57.4229333,7.0556 57.2656,7.13293333 57.2429333,7.23426667 C57.2429333,7.3356 57.3189333,7.38626667 57.5242667,7.38626667 C57.8082667,7.38626667 58.0896,7.41293333 58.3989333,7.49026667 C58.5789333,7.54093333 58.7322667,7.6676 58.8362667,7.8716 C58.9376,8.0516 58.9642667,8.38493333 58.9642667,8.8436 L59.1442667,15.6449333 L59.0669333,15.6449333 C58.8362667,15.4662667 58.3216,14.9796 57.5242667,14.2129333 C56.7282667,13.4209333 56.0096,12.7556 55.3669333,12.1689333 C54.1069333,11.0182667 52.9496,9.94493333 51.9216,8.99826667 C50.9202667,8.02626667 50.3269333,7.46226667 50.1989333,7.31026667 C49.9416,7.0276 49.7376,6.8756 49.5576,6.85026667 C49.4016,6.8756 49.3522667,7.0276 49.3522667,7.38626667 L49.1976,16.3089333 C49.1976,16.9742667 49.1722667,17.4342667 49.0949333,17.7156 C49.0429333,17.9969333 48.8882667,18.1502667 48.6829333,18.2009333 C48.4256,18.2782667 48.1669333,18.2782667 47.9109333,18.2782667 C47.7309333,18.2782667 47.6802667,18.3022667 47.6802667,18.4062667 C47.6802667,18.5356 47.8096,18.5836 48.0149333,18.5836 C48.4789333,18.5836 48.8642667,18.5582667 49.1976,18.5356 C49.5576,18.5356 49.7376,18.5076 49.8389333,18.5076 C50.1229333,18.5356 50.8416,18.5582667 51.8949333,18.5836 C52.1536,18.5836 52.2802667,18.5356 52.2802667,18.4062667 C52.2802667,18.3022667 52.1789333,18.2782667 52.0242667,18.2782667 C51.7416,18.2782667 51.4336,18.2516 51.1509333,18.1756 C50.9696,18.1249333 50.8416,17.9969333 50.7402667,17.7409333 C50.6362667,17.4849333 50.5842667,17.0516 50.5602667,16.4902667 L50.3776,10.1222667 L50.4309333,10.1222667 C50.6109333,10.3262667 51.0976,10.7876 51.8442667,11.5542667 C52.6149333,12.2956 53.4376,13.1129333 54.3882667,13.9316 C55.2896,14.7502667 56.2122667,15.5929333 57.1402667,16.4369333 C58.0389333,17.2809333 58.7856,17.9449333 59.3482667,18.4062667 C59.5549333,18.6089333 59.7362667,18.7382667 59.9162667,18.7636 C60.0696,18.7636 60.1482667,18.6089333 60.1482667,18.2782667 L60.3256,8.69026667 C60.3256,7.9236 60.5322667,7.51426667 60.9442667,7.4396 C61.1496,7.38626667 61.3042667,7.38626667 61.4576,7.38626667 C61.6629333,7.38626667 61.7669333,7.3356 61.7669333,7.23426667 C61.7402667,7.13293333 61.6109333,7.0556 61.3549333,7.0796 C60.5056,7.1076 59.9669333,7.13293333 59.7362667,7.13293333 C59.2976,7.13293333 58.6056,7.1076 57.6789333,7.0796" id="Fill-184" fill="#333F48"></path>
                <path d="M94.6658667,9.6884 C94.6658667,9.60973333 94.7165333,9.55906667 94.7698667,9.55906667 C95.0018667,9.55906667 95.3872,9.58706667 95.9272,9.58706667 C96.5178667,9.60973333 96.9032,9.60973333 97.0818667,9.63773333 C97.4418667,9.6884 97.7005333,9.7164 97.8272,9.8164 C97.9565333,9.8924 98.0072,9.99506667 98.0858667,10.0977333 C98.1618667,10.3030667 98.2152,10.4537333 98.2152,10.5830667 C98.1898667,10.6844 98.2152,10.7364 98.3418667,10.7364 C98.4458667,10.6844 98.4965333,10.6097333 98.4965333,10.5310667 C98.4965333,10.4537333 98.5218667,10.3030667 98.5218667,10.0977333 C98.5472,9.91773333 98.5752,9.79106667 98.5992,9.6884 C98.6525333,9.1764 98.7032,8.89506667 98.7032,8.8444 C98.7285333,8.79373333 98.6765333,8.76706667 98.6258667,8.76706667 C98.5218667,8.76706667 98.4458667,8.79373333 98.3685333,8.79373333 C98.2152,8.79373333 97.9818667,8.81773333 97.7005333,8.8444 L96.6445333,8.8444 L94.8458667,8.8444 L93.6392,8.8444 L92.7125333,8.8444 L91.5045333,8.8444 C91.2738667,8.81773333 91.1725333,8.8444 91.1725333,8.94706667 C91.1725333,9.04973333 91.2738667,9.07506667 91.4285333,9.07506667 C91.6592,9.07506667 91.8405333,9.10173333 91.9938667,9.12573333 C92.4298667,9.20173333 92.6618667,9.4324 92.6618667,9.84173333 L92.6618667,10.6097333 L92.6618667,12.5777333 L92.6618667,14.8524 C92.6618667,16.0550667 92.6378667,16.9750667 92.5832,17.5630667 C92.5592,17.9470667 92.4298667,18.1750667 92.1472,18.2524 C92.0192,18.2524 91.8405333,18.2790667 91.6338667,18.2790667 C91.4538667,18.2790667 91.3778667,18.3297333 91.4032,18.4070667 C91.4032,18.4844 91.5045333,18.5337333 91.6872,18.5337333 C91.9938667,18.5337333 92.3272,18.5337333 92.7125333,18.5084 L93.5618667,18.5084 C93.9978667,18.5084 94.5898667,18.5337333 95.2845333,18.5337333 C96.0032,18.5590667 96.9285333,18.5844 98.0072,18.5844 C98.5472,18.6097333 98.8312,18.5084 98.8565333,18.2524 C98.8818667,18.0990667 98.9085333,17.8710667 98.9605333,17.5630667 C99.0112,17.2817333 99.0352,17.0257333 99.0352,16.8470667 C99.0352,16.6670667 98.9845333,16.5657333 98.8818667,16.5404 C98.8312,16.5404 98.7792,16.6164 98.7285333,16.7697333 C98.6525333,17.2564 98.4458667,17.5630667 98.0858667,17.6897333 C97.5978667,17.8430667 97.1338667,17.8710667 96.6725333,17.8710667 C95.9272,17.8710667 95.4138667,17.7924 95.1298667,17.6390667 C94.8205333,17.5110667 94.6658667,17.2310667 94.6658667,16.7950667 L94.6658667,15.8750667 L94.6658667,14.8777333 L94.6658667,13.8564 C94.6658667,13.7777333 94.6938667,13.7270667 94.7698667,13.7004 C95.0018667,13.7004 95.3872,13.7270667 95.9512,13.7537333 C96.5178667,13.7537333 96.8778667,13.7777333 97.0578667,13.8044 C97.5978667,13.8297333 97.8552,14.0097333 97.8805333,14.2657333 C97.9312,14.6470667 97.9818667,14.8524 98.1112,14.8524 C98.2405333,14.8270667 98.3165333,14.7244 98.2658667,14.5724 C98.2658667,14.5204 98.2658667,14.3924 98.2912,14.1870667 C98.3165333,14.0097333 98.3418667,13.8564 98.3418667,13.7004 C98.4458667,13.0884 98.4712,12.7804 98.4712,12.7297333 C98.4712,12.6537333 98.3952,12.6030667 98.3418667,12.6030667 C98.2912,12.6030667 98.2152,12.6790667 98.0858667,12.7804 C97.9565333,12.9110667 97.7005333,12.9870667 97.3405333,12.9870667 C97.1085333,12.9870667 96.6725333,13.0124 96.0805333,13.0124 L94.7698667,13.0124 C94.7165333,12.9870667 94.6658667,12.9350667 94.6658667,12.8590667 L94.6658667,9.6884 Z" id="Fill-186" fill="#333F48"></path>
                <g id="Group-190" transform="translate(110.666667, 8.145467)">
                    <mask id="mask-4" fill="white">
                        <use xlink:href="#path-3"></use>
                    </mask>
                    <g id="Clip-189"></g>
                    <path d="M4.9484,6.47773333 C4.8724,6.47773333 4.8724,6.4244 4.8724,6.37373333 L6.41506667,3.05106667 C6.43906667,3.05106667 6.46706667,3.0764 6.49106667,3.1524 L7.87773333,6.37373333 C7.90573333,6.4244 7.87773333,6.44973333 7.82706667,6.47773333 L4.9484,6.47773333 Z M6.8004,0.419066667 C6.64573333,0.419066667 6.49106667,0.5964 6.36306667,0.9284 L2.4804,8.98173333 C2.25106667,9.6204 1.8644,10.0044 1.24573333,10.1337333 L0.837733333,10.1337333 C0.707066667,10.1337333 0.655066667,10.1844 0.655066667,10.2604 C0.655066667,10.3884 0.733733333,10.4390667 0.913733333,10.4390667 C1.3244,10.4390667 1.68573333,10.4137333 2.01773333,10.3884 C2.3524,10.3884 2.55773333,10.3630667 2.6364,10.3630667 C3.17506667,10.3884 3.71506667,10.4137333 4.30573333,10.4390667 C4.43373333,10.4390667 4.51106667,10.3884 4.51106667,10.2604 C4.53773333,10.1844 4.46173333,10.1337333 4.30573333,10.1337333 L4.1004,10.1337333 C3.66173333,10.1337333 3.45773333,10.0044 3.4844,9.74973333 C3.4844,9.59506667 3.58706667,9.33906667 3.71506667,8.98173333 L4.48706667,7.26973333 C4.51106667,7.19373333 4.56306667,7.16706667 4.6404,7.19373333 L8.1364,7.19373333 C8.21106667,7.16706667 8.2644,7.19373333 8.28973333,7.26973333 L9.44706667,9.84973333 C9.44706667,10.0044 9.3964,10.1070667 9.29373333,10.1337333 C9.13906667,10.1337333 9.08706667,10.1844 9.11373333,10.2604 C9.11373333,10.3377333 9.2404,10.3884 9.54973333,10.3884 C10.7564,10.4137333 11.6564,10.4390667 12.2497333,10.4390667 L12.3777333,10.4390667 L12.6070667,10.4390667 L12.6857333,10.4390667 C12.8924,10.4137333 13.0950667,10.4137333 13.3030667,10.3884 C13.6884,10.3884 13.9444,10.3630667 14.1244,10.3630667 C14.3310667,10.3630667 14.6897333,10.3884 15.1297333,10.3884 C15.5390667,10.4137333 15.9764,10.4390667 16.3857333,10.4390667 C16.5670667,10.4390667 16.6964,10.3884 16.6964,10.2604 C16.6964,10.1844 16.6430667,10.1337333 16.4897333,10.1337333 C16.2564,10.1337333 16.0284,10.1070667 15.7697333,10.0804 C15.4110667,10.0044 15.2310667,9.79906667 15.2310667,9.41773333 C15.2030667,8.82973333 15.2030667,7.90973333 15.2310667,6.68173333 L15.2310667,5.50573333 L15.2817333,5.50573333 L15.4110667,5.6844 C15.5390667,5.8644 15.8710667,6.2204 16.3857333,6.75773333 C16.9270667,7.29373333 17.4657333,7.8564 18.0324,8.39373333 C18.5724,8.9564 18.9577333,9.33906667 19.2150667,9.5444 C19.7804,10.0550667 20.4217333,10.3377333 21.1430667,10.3884 C21.3990667,10.4137333 21.7337333,10.4390667 22.1430667,10.4390667 L23.4297333,10.4390667 C23.6897333,10.4390667 23.7884,10.3884 23.7630667,10.2604 C23.7630667,10.1844 23.7124,10.1337333 23.5844,10.1337333 C23.4030667,10.1590667 23.1204,10.1070667 22.6844,9.97906667 C21.9404,9.6204 21.2697333,9.16173333 20.6524,8.5724 C20.4497333,8.39373333 20.0644,8.06173333 19.4950667,7.5244 C18.9070667,6.9884 18.3657333,6.47773333 17.8017333,5.9124 C17.2617333,5.4044 16.8750667,5.01906667 16.6697333,4.78973333 C16.9510667,4.5084 17.4924,4.02306667 18.2377333,3.40973333 C18.9577333,2.7444 19.4724,2.30973333 19.7804,2.05373333 C20.3710667,1.54306667 20.8844,1.23373333 21.3484,1.10706667 C21.6550667,1.00573333 21.9644,0.953733333 22.2217333,0.9284 C22.3497333,0.9284 22.4270667,0.903066667 22.4270667,0.8004 C22.4270667,0.699066667 22.3257333,0.647066667 22.1697333,0.6724 C21.9137333,0.6724 21.6297333,0.6724 21.3204,0.699066667 L20.4497333,0.699066667 L19.6510667,0.699066667 C19.3430667,0.6724 19.1097333,0.6724 18.9310667,0.6724 C18.7524,0.647066667 18.7004,0.699066667 18.7004,0.8004 C18.7004,0.877733333 18.7524,0.9284 18.8804,0.9284 C19.0084,0.979066667 19.0870667,1.0564 19.0870667,1.20973333 C19.0617333,1.41373333 18.8284,1.74706667 18.3657333,2.1804 C18.0577333,2.43773333 17.5697333,2.8964 16.8497333,3.56173333 C16.1310667,4.2004 15.5897333,4.68573333 15.2817333,4.9684 L15.2310667,4.9684 L15.2310667,4.4324 L15.2310667,2.46173333 L15.2310667,1.6964 C15.2310667,1.28706667 15.4110667,1.0324 15.7697333,0.979066667 C15.9244,0.953733333 16.0524,0.9284 16.1817333,0.9284 C16.3097333,0.9284 16.3857333,0.903066667 16.3857333,0.8004 C16.3857333,0.699066667 16.2844,0.647066667 16.0524,0.6724 C15.7964,0.6724 15.4617333,0.6724 15.0764,0.699066667 L14.1777333,0.699066667 L13.3030667,0.699066667 C12.8924,0.6724 12.4790667,0.6724 12.0924,0.6724 C11.8897333,0.647066667 11.7604,0.699066667 11.7604,0.8004 C11.7604,0.903066667 11.8364,0.9284 12.0164,0.9284 C12.2497333,0.9284 12.4550667,0.953733333 12.5817333,0.979066667 C13.0204,1.0564 13.2270667,1.28706667 13.2270667,1.6964 L13.2270667,2.46173333 L13.2270667,4.4324 L13.2270667,6.68173333 C13.2524,7.90973333 13.2270667,8.82973333 13.1737333,9.39106667 C13.1737333,9.79906667 13.0204,10.0044 12.7377333,10.0804 C12.6857333,10.1070667 12.6070667,10.1070667 12.4790667,10.1070667 C12.4550667,10.1070667 12.3777333,10.1070667 12.2497333,10.0804 C12.1204,10.0804 11.9404,9.97906667 11.7350667,9.82706667 C11.5297333,9.6204 11.2977333,9.26306667 10.9884,8.70173333 C10.6537333,8.00973333 10.2177333,7.08973333 9.67906667,5.96573333 C9.13906667,4.81506667 8.62706667,3.74173333 8.1604,2.7444 C7.6724,1.74706667 7.39106667,1.10706667 7.2364,0.827066667 C7.13506667,0.545733333 6.97906667,0.419066667 6.8004,0.419066667 L6.8004,0.419066667 Z" id="Fill-188" fill="#333F48" mask="url(#mask-4)"></path>
                </g>
            </g>
        </g>
    </g>
</svg>