<svg xmlns="http://www.w3.org/2000/svg" width="84.12" height="29.456" viewBox="0 0 84.12 29.456">
  <g id="Petsy-logotype" transform="translate(-0.739 1170.801)">
    <path id="Path_795" data-name="Path 795" d="M1501.66-1170.766c-.282.146-.683.987-1.365,2.857-.129.353-.343.937-.476,1.3l-.244.655-.275.02a2.188,2.188,0,0,0-1.537.584,1.36,1.36,0,0,0-.285.393,4.969,4.969,0,0,0-.33,2,5.59,5.59,0,0,0-.023,1.325c.053.146.091.151,1.131.151h.932v.118c0,.189-.191,2.635-.29,3.7-.368,3.965-.4,4.406-.441,5.184a5.6,5.6,0,0,0,.693,3.411,3.9,3.9,0,0,0,.864.874,5.083,5.083,0,0,0,2.3.723,12.171,12.171,0,0,0,2-.048,3.237,3.237,0,0,0,2.738-1.781,4.426,4.426,0,0,0,.431-2.129c0-.773-.078-1.086-.3-1.285a.457.457,0,0,0-.436-.128c-.166.035-.212.06-.564.315a1.885,1.885,0,0,1-1.247.519.774.774,0,0,1-.574-.164c-.229-.2-.292-.484-.29-1.335,0-.947.065-1.877.312-4.522.151-1.625.3-3.313.3-3.4,0-.045.035-.048,1.045-.048.589,0,1.156-.013,1.3-.028a2.918,2.918,0,0,0,.945-.25,2.019,2.019,0,0,0,.927-1.562c.061-.385.187-2.177.161-2.287a.408.408,0,0,0-.2-.27c-.083-.048-.139-.05-1.93-.058a15.131,15.131,0,0,1-1.846-.038c0-.015.018-.257.038-.534a6.564,6.564,0,0,0-.144-2.708,3.718,3.718,0,0,0-.375-.8,1.709,1.709,0,0,0-.894-.637,3.461,3.461,0,0,0-1.257-.141C1501.818-1170.806,1501.738-1170.8,1501.66-1170.766Z" transform="translate(-1458.666)" fill="#5334da"/>
    <path id="Path_796" data-name="Path 796" d="M11.829-991.035a6.99,6.99,0,0,0-1.574.325,4.592,4.592,0,0,0-2.534,2.255l-.108.2-.03-.237a2.313,2.313,0,0,0-.491-1.171,2.836,2.836,0,0,0-2.076-1.025,23,23,0,0,0-2.539,0c-.1.038-.144.1-.191.287q-.057.238-.267,3.144c-.063.879-.262,3.5-.441,5.819-.421,5.456-.62,8.149-.8,10.757a6.88,6.88,0,0,0,.156,2.62,1.922,1.922,0,0,0,.514.806,2.123,2.123,0,0,0,.967.574,6.271,6.271,0,0,0,2.2.232c1.038,0,1.192-.025,1.292-.222a6.314,6.314,0,0,0,.217-1.756c.063-.763.146-1.776.189-2.255s.086-1.04.1-1.247.071-.826.126-1.373.111-1.174.128-1.391a3.013,3.013,0,0,1,.045-.4,2.933,2.933,0,0,1,.179.348A4.46,4.46,0,0,0,8.733-972.7a4.613,4.613,0,0,0,1.539.428,9.466,9.466,0,0,0,1.534-.01,6.637,6.637,0,0,0,3.784-1.746,10.928,10.928,0,0,0,3.076-6.794,18.44,18.44,0,0,0-.076-4.975c-.428-2.519-1.537-4.086-3.411-4.822A7.973,7.973,0,0,0,11.829-991.035Zm-1.086,4.421a2.259,2.259,0,0,1,1.574,1.262,5.805,5.805,0,0,1,.519,2.474,12.185,12.185,0,0,1-.29,3.34,3.53,3.53,0,0,1-2.6,2.874,3.046,3.046,0,0,1-1.015-.028,2.551,2.551,0,0,1-1.721-1.889,11.405,11.405,0,0,1-.184-4.678,5.929,5.929,0,0,1,.8-2.224,2.765,2.765,0,0,1,1.146-.97A3.251,3.251,0,0,1,10.744-986.614Z" transform="translate(0 -175.209)" fill="#5334da"/>
    <path id="Path_797" data-name="Path 797" d="M811.493-990.789a10.358,10.358,0,0,0-2.557.453,8.4,8.4,0,0,0-4.66,3.648,13.906,13.906,0,0,0-1.1,2.418,13.79,13.79,0,0,0-.655,3.313,22.811,22.811,0,0,0,0,2.456,7.231,7.231,0,0,0,1.577,3.958,6.723,6.723,0,0,0,3.441,2.174,11.107,11.107,0,0,0,3.247.373,10.353,10.353,0,0,0,4-.773,4.313,4.313,0,0,0,1.751-1.325,2.577,2.577,0,0,0,.448-1.741,1.835,1.835,0,0,0-.421-1.068,2.671,2.671,0,0,0-1.816-.993.823.823,0,0,0-.436,0,.751.751,0,0,0-.247.111,5.1,5.1,0,0,0-.4.446,3.638,3.638,0,0,1-.859.831,2.117,2.117,0,0,1-1.38.38,2.952,2.952,0,0,1-1.587-.282,2.943,2.943,0,0,1-1.61-2.209,5.736,5.736,0,0,1-.088-.753v-.093l.423-.015a18.125,18.125,0,0,0,3.366-.345,17.823,17.823,0,0,0,2.569-.713,7.225,7.225,0,0,0,2.564-1.65,7.552,7.552,0,0,0,.718-.935,4.731,4.731,0,0,0,.652-1.915,8.305,8.305,0,0,0,.013-1.5,4.287,4.287,0,0,0-2.368-3.5,7.5,7.5,0,0,0-2.95-.746C812.8-990.8,811.833-990.809,811.493-990.789Zm.134,4.419a1.462,1.462,0,0,1,1.028.867,1.716,1.716,0,0,1,.174.811,2.046,2.046,0,0,1-1.348,1.915,7.194,7.194,0,0,1-2.93.652l-.31.015.018-.108a13.654,13.654,0,0,1,.418-1.874,3.718,3.718,0,0,1,1.572-2.124,2.074,2.074,0,0,1,.607-.181A3.14,3.14,0,0,1,811.627-986.37Z" transform="translate(-781.551 -175.465)" fill="#5334da"/>
    <path id="Path_798" data-name="Path 798" d="M2007.059-990.6a8.771,8.771,0,0,0-4.245,1.3,5.674,5.674,0,0,0-2.109,2.59,6.768,6.768,0,0,0-.3,1.189,10.232,10.232,0,0,0,0,2.041,4.478,4.478,0,0,0,1.058,2.373,5.915,5.915,0,0,0,1.693,1.35,12.5,12.5,0,0,0,1.66.728c1.847.746,2.4,1.073,2.63,1.537a1.165,1.165,0,0,1,.028.993c-.136.28-.358.416-.857.524a5.443,5.443,0,0,1-1.448.108,5.444,5.444,0,0,1-2.023-.373,13.187,13.187,0,0,1-1.328-.637,1.317,1.317,0,0,0-.733-.191,1.4,1.4,0,0,0-.69.171,3.054,3.054,0,0,0-.693.718,2.7,2.7,0,0,0-.443,2.086,1.853,1.853,0,0,0,.8.935,11.492,11.492,0,0,0,5.215,1.333,19.143,19.143,0,0,0,2.3-.038,6.773,6.773,0,0,0,3.388-1.219,7.221,7.221,0,0,0,.882-.874,4.98,4.98,0,0,0,1.043-2.587,8.627,8.627,0,0,0,0-1.35,4.906,4.906,0,0,0-.411-1.511,5.468,5.468,0,0,0-1.69-1.874,8.6,8.6,0,0,0-2.141-1.066,13.569,13.569,0,0,1-2.955-1.355,1.333,1.333,0,0,1-.612-.94,1.554,1.554,0,0,1,1.333-1.68,2.471,2.471,0,0,1,.7-.055,1.6,1.6,0,0,1,1.353.438,1.117,1.117,0,0,1,.31.416,2.75,2.75,0,0,1,.247,1.106c.038.514.055.552.259.635a1.63,1.63,0,0,0,.64.048,5.206,5.206,0,0,0,.791-.043,2.735,2.735,0,0,0,2.575-2.151,5.9,5.9,0,0,0,.038-1.275,3.444,3.444,0,0,0-1.04-2.081,3.743,3.743,0,0,0-1.3-.844,6.981,6.981,0,0,0-1.809-.431A18.544,18.544,0,0,0,2007.059-990.6Z" transform="translate(-1948.109 -175.65)" fill="#5334da"/>
    <path id="Path_799" data-name="Path 799" d="M2646.106-977.932a.821.821,0,0,0-.678.68c-.071.277-.635,7.6-.723,9.394a17.57,17.57,0,0,0,.028,2.041c.229,2.169,1.056,3.633,2.494,4.416a6.623,6.623,0,0,0,3.174.627,9.081,9.081,0,0,0,1.5-.174,5.417,5.417,0,0,0,1.406-.557,5.569,5.569,0,0,0,1.837-1.779c.121-.186.229-.345.237-.353a15.911,15.911,0,0,1-.131,2.076,6.606,6.606,0,0,1-.653,2.2,3.739,3.739,0,0,1-.718.985,3.087,3.087,0,0,1-2.62.9,4.063,4.063,0,0,1-1.962-.411,2.753,2.753,0,0,1-1.25-1.31c-.2-.4-.27-.428-.788-.406a3.38,3.38,0,0,0-2.769,1.26,2.2,2.2,0,0,0-.146,2.046,3.68,3.68,0,0,0,1.071,1.257,9.718,9.718,0,0,0,4.975,1.642,21.326,21.326,0,0,0,2.809,0,9.065,9.065,0,0,0,4.4-1.378,6.615,6.615,0,0,0,2.013-2.139,8.313,8.313,0,0,0,1.071-3.542c.015-.154.086-1.076.154-2.053s.184-2.529.254-3.451c.26-3.461.325-4.386.423-5.857a24.313,24.313,0,0,0,.141-3.993,2.237,2.237,0,0,0-1.587-1.907,5.876,5.876,0,0,0-2.031-.227,4.55,4.55,0,0,0-1.118.03.583.583,0,0,0-.456.4c-.023.068-.134,1.255-.312,3.343-.29,3.391-.3,3.509-.38,4.058a8.084,8.084,0,0,1-1.5,3.955,2.577,2.577,0,0,1-.917.715,1.986,1.986,0,0,1-1.071.227,1.769,1.769,0,0,1-1.018-.212,2.12,2.12,0,0,1-1.111-1.882,16.641,16.641,0,0,1,.24-3.194,33.053,33.053,0,0,0,.358-4.56,4.358,4.358,0,0,0-.191-1.391,1.652,1.652,0,0,0-.443-.7,2.425,2.425,0,0,0-1.245-.642,6.489,6.489,0,0,0-1.728-.136C2646.6-977.939,2646.134-977.939,2646.106-977.932Z" transform="translate(-2576.828 -187.997)" fill="#5334da"/>
  </g>
</svg>
