<svg width="40" height="40" viewBox="0 0 40 40" fill="none" xmlns="http://www.w3.org/2000/svg">
<g id="aim 1">
<g id="Group">
<path id="Vector" d="M25.5486 16.0666C25.3307 16.2844 25.0453 16.3933 24.7598 16.3933C23.775 16.3933 23.2664 15.1938 23.9711 14.4892C24.0361 14.4243 26.7187 11.7416 26.7918 11.6685C24.9365 10.1601 22.5724 9.25439 20.0006 9.25439C14.0549 9.25439 9.21777 14.0915 9.21777 20.0372C9.21777 25.9828 14.0549 30.82 20.0006 30.82C25.9462 30.82 30.7833 25.9828 30.7833 20.0372C30.7833 17.4652 29.8777 15.1012 28.3693 13.246C28.2959 13.3194 25.6131 16.0021 25.5486 16.0666ZM21.1174 24.8604V25.0939C21.1174 25.7099 20.618 26.2094 20.002 26.2094C19.3859 26.2094 18.8865 25.7099 18.8865 25.0939V24.9866C18.3722 24.8966 17.9026 24.7043 17.3096 24.3162C16.7941 23.9788 16.6498 23.2874 16.9872 22.7719C17.3246 22.2563 18.0159 22.1121 18.5314 22.4495C19.0743 22.8047 19.2507 22.8321 19.9945 22.8272C20.712 22.8226 20.9979 22.2596 21.0538 21.9277C21.104 21.6295 21.0477 21.2329 20.4948 21.0374C19.6477 20.7376 18.6452 20.3549 17.9462 19.8068C16.4126 18.6044 16.8782 15.8609 18.8866 15.1305V14.9691C18.8866 14.3531 19.386 13.8537 20.002 13.8537C20.6181 13.8537 21.1175 14.3531 21.1175 14.9691V15.0609C21.8565 15.2787 22.3734 15.7388 22.3734 15.7388C22.8235 16.1555 22.8531 16.858 22.4382 17.3108C22.0228 17.7642 21.3192 17.7955 20.865 17.3819C20.5758 17.1676 20.1392 17.0765 19.6765 17.2167C19.3772 17.307 19.2974 17.6152 19.28 17.7076C19.2438 17.9 19.2953 18.0295 19.3228 18.0511C19.7786 18.4085 20.6875 18.7389 21.2391 18.9341C24.1788 19.9742 23.8196 23.8839 21.1174 24.8604Z" fill="#EE885A"/>
<path id="Vector_2" d="M35.93 5.68493H37.922C38.538 5.68493 39.0374 5.1855 39.0374 4.56947C39.0374 3.95344 38.538 3.45401 37.922 3.45401H36.5834V2.11546C36.5834 1.49943 36.084 1 35.4679 1C34.8519 1 34.3525 1.49943 34.3525 2.11546V4.10745L32.5967 5.86326L34.1742 7.44074L35.93 5.68493Z" fill="#EE885A"/>
<g id="Vector_3">
<path d="M29.9524 11.6624C31.8614 13.9274 33.0138 16.85 33.0138 20.0372C33.0138 27.2129 27.1758 33.0509 20.0001 33.0509C12.8243 33.0509 6.98637 27.2129 6.98637 20.0372C6.98637 12.8614 12.8243 7.02346 20.0001 7.02346C23.1872 7.02346 26.1099 8.1758 28.3749 10.0849L32.5965 5.86323C29.1222 2.76768 24.6915 1.07434 20.0001 1.07434C9.50293 1.07434 0.962891 9.58106 0.962891 20.0372C0.962891 30.4933 9.50293 39 20.0001 39C25.0652 39 29.8272 37.0275 33.4088 33.4459C40.5649 26.2898 40.8009 14.8783 34.1739 7.44072L29.9524 11.6624Z" fill="#FAAF60"/>
<path d="M29.9524 11.6624C31.8614 13.9274 33.0138 16.85 33.0138 20.0372C33.0138 27.2129 27.1758 33.0509 20.0001 33.0509C12.8243 33.0509 6.98637 27.2129 6.98637 20.0372C6.98637 12.8614 12.8243 7.02346 20.0001 7.02346C23.1872 7.02346 26.1099 8.1758 28.3749 10.0849L32.5965 5.86323C29.1222 2.76768 24.6915 1.07434 20.0001 1.07434C9.50293 1.07434 0.962891 9.58106 0.962891 20.0372C0.962891 30.4933 9.50293 39 20.0001 39C25.0652 39 29.8272 37.0275 33.4088 33.4459C40.5649 26.2898 40.8009 14.8783 34.1739 7.44072L29.9524 11.6624Z" fill="#FAAF60"/>
</g>
</g>
</g>
</svg>
