<svg width="40" height="40" viewBox="0 0 40 40" fill="none" xmlns="http://www.w3.org/2000/svg">
<path d="M37.1427 10.4241V9.15182C37.1427 7.49024 35.7908 6.13843 34.1293 6.13843H31.7185V3.86164C31.7185 3.30691 31.2688 2.85718 30.7141 2.85718C30.1593 2.85718 29.7096 3.30691 29.7096 3.86164V6.13843H26.3614V3.86164C26.3614 3.30691 25.9117 2.85718 25.3569 2.85718C24.8022 2.85718 24.3525 3.30691 24.3525 3.86164V6.13843H21.0043V3.86164C21.0043 3.30691 20.5545 2.85718 19.9998 2.85718C19.4451 2.85718 18.9953 3.30691 18.9953 3.86164V6.13843H15.6471V3.86164C15.6471 3.30691 15.1974 2.85718 14.6426 2.85718C14.0879 2.85718 13.6382 3.30691 13.6382 3.86164V6.13843H10.29V3.86164C10.29 3.30691 9.84024 2.85718 9.28551 2.85718C8.73077 2.85718 8.28104 3.30691 8.28104 3.86164V6.13843H5.87033C4.20874 6.13843 2.85693 7.49024 2.85693 9.15182V10.4241H37.1427Z" fill="#EE885A"/>
<path d="M19.9996 16.1831C15.8271 16.1831 12.4326 19.5776 12.4326 23.7501C12.4326 27.9225 15.8271 31.317 19.9996 31.317C24.1721 31.317 27.5666 27.9225 27.5666 23.7501C27.5666 19.5776 24.1721 16.1831 19.9996 16.1831ZM21.0035 28.1038V28.3137C21.0035 28.8684 20.5538 29.3182 19.999 29.3182C19.4443 29.3182 18.9946 28.8684 18.9946 28.3137V28.2173C18.5318 28.1362 18.109 27.963 17.5748 27.6135C17.1105 27.3098 16.9804 26.6873 17.2841 26.2231C17.5878 25.7588 18.2104 25.6287 18.6746 25.9324C19.1642 26.2527 19.3228 26.2777 19.9922 26.273C20.6384 26.2687 20.8959 25.7615 20.9462 25.4625C20.9913 25.194 20.9406 24.8371 20.4428 24.6612C19.6088 24.3663 18.7536 24.028 18.1478 23.5529C16.7683 22.4709 17.1847 19.9995 18.9947 19.3419V19.1965C18.9947 18.6418 19.4444 18.192 19.9991 18.192C20.5538 18.192 21.0036 18.6418 21.0036 19.1965V19.2522C21.4985 19.3919 21.8971 19.6445 22.1709 19.923C22.5599 20.3186 22.5545 20.9545 22.159 21.3434C21.7637 21.7322 21.1282 21.7271 20.7393 21.3323C20.6832 21.2775 20.3738 21.0195 19.7039 21.2213C19.4364 21.3019 19.3646 21.5792 19.3489 21.6623C19.3162 21.8357 19.3628 21.9526 19.3877 21.9722C19.7665 22.2694 20.4722 22.5408 21.1124 22.7672C23.7598 23.7029 23.4373 27.2239 21.0035 28.1038Z" fill="#EE885A"/>
<path d="M2.85693 12.4331V34.0626C2.85693 35.7242 4.20874 37.1429 5.87033 37.1429H34.1293C35.7908 37.1429 37.1427 35.7242 37.1427 34.0626V12.4331H2.85693ZM19.9998 33.326C14.7196 33.326 10.4239 29.0303 10.4239 23.7501C10.4239 18.4699 14.7196 14.1742 19.9998 14.1742C25.28 14.1742 29.5757 18.4699 29.5757 23.7501C29.5757 29.0303 25.28 33.326 19.9998 33.326Z" fill="#FAAF60"/>
<path d="M2.85693 12.4331V34.0626C2.85693 35.7242 4.20874 37.1429 5.87033 37.1429H34.1293C35.7908 37.1429 37.1427 35.7242 37.1427 34.0626V12.4331H2.85693ZM19.9998 33.326C14.7196 33.326 10.4239 29.0303 10.4239 23.7501C10.4239 18.4699 14.7196 14.1742 19.9998 14.1742C25.28 14.1742 29.5757 18.4699 29.5757 23.7501C29.5757 29.0303 25.28 33.326 19.9998 33.326Z" fill="#FAAF60"/>
</svg>
