<svg width="26" height="26" viewBox="0 0 26 26" fill="none" xmlns="http://www.w3.org/2000/svg">
<path d="M25.8574 5.81811V4.86387C25.8574 3.61768 24.8435 2.60382 23.5973 2.60382H21.7893V0.896232C21.7893 0.480182 21.452 0.142883 21.0359 0.142883C20.6199 0.142883 20.2826 0.480182 20.2826 0.896232V2.60382H17.7714V0.896232C17.7714 0.480182 17.4341 0.142883 17.0181 0.142883C16.602 0.142883 16.2647 0.480182 16.2647 0.896232V2.60382H13.7536V0.896232C13.7536 0.480182 13.4163 0.142883 13.0002 0.142883C12.5842 0.142883 12.2469 0.480182 12.2469 0.896232V2.60382H9.7357V0.896232C9.7357 0.480182 9.3984 0.142883 8.98235 0.142883C8.5663 0.142883 8.229 0.480182 8.229 0.896232V2.60382H5.71784V0.896232C5.71784 0.480182 5.38054 0.142883 4.9645 0.142883C4.54845 0.142883 4.21115 0.480182 4.21115 0.896232V2.60382H2.40311C1.15692 2.60382 0.143066 3.61768 0.143066 4.86387V5.81811H25.8574Z" fill="white"/>
<path d="M13.0004 10.1373C9.87106 10.1373 7.3252 12.6832 7.3252 15.8126C7.3252 18.9419 9.87106 21.4878 13.0004 21.4878C16.1298 21.4878 18.6756 18.9419 18.6756 15.8126C18.6756 12.6832 16.1298 10.1373 13.0004 10.1373ZM13.7534 19.0778V19.2353C13.7534 19.6513 13.4161 19.9886 13 19.9886C12.584 19.9886 12.2467 19.6513 12.2467 19.2353V19.163C11.8996 19.1021 11.5825 18.9722 11.1818 18.7101C10.8336 18.4824 10.7361 18.0154 10.9638 17.6673C11.1916 17.3191 11.6585 17.2215 12.0067 17.4493C12.3739 17.6895 12.4929 17.7083 12.9949 17.7048C13.4795 17.7015 13.6727 17.3211 13.7104 17.0969C13.7442 16.8955 13.7062 16.6278 13.3328 16.4959C12.7074 16.2748 12.066 16.021 11.6116 15.6646C10.5769 14.8531 10.8893 12.9997 12.2467 12.5064V12.3974C12.2467 11.9813 12.584 11.644 13.0001 11.644C13.4161 11.644 13.7534 11.9813 13.7534 12.3974V12.4392C14.1246 12.5439 14.4235 12.7334 14.6289 12.9422C14.9207 13.2389 14.9166 13.7159 14.62 14.0076C14.3235 14.2992 13.8469 14.2953 13.5552 13.9992C13.5131 13.9582 13.2811 13.7647 12.7786 13.916C12.578 13.9764 12.5242 14.1844 12.5124 14.2467C12.4879 14.3768 12.5228 14.4645 12.5415 14.4791C12.8256 14.702 13.3548 14.9056 13.835 15.0754C15.8206 15.7771 15.5787 18.4179 13.7534 19.0778Z" fill="white"/>
<path d="M0.143066 7.32483V23.5469C0.143066 24.7931 1.15692 25.8572 2.40311 25.8572H23.5973C24.8435 25.8572 25.8574 24.7931 25.8574 23.5469V7.32483H0.143066ZM13.0002 22.9945C9.04006 22.9945 5.81829 19.7727 5.81829 15.8126C5.81829 11.8524 9.04006 8.63063 13.0002 8.63063C16.9604 8.63063 20.1821 11.8524 20.1821 15.8126C20.1821 19.7727 16.9604 22.9945 13.0002 22.9945Z" fill="#FFE600"/>
</svg>
