<svg width="40" height="40" viewBox="0 0 40 40" fill="none" xmlns="http://www.w3.org/2000/svg">
<g id="clipboard (1) 1" clip-path="url(#clip0_2772_15305)">
<g id="XMLID_897_">
<path id="XMLID_946_" d="M9.41211 0H20.0003V4.70588H9.41211V0Z" fill="#EE885A"/>
<g id="XMLID_1103_">
<path d="M21.825 33.2611C19.8613 30.658 18.8235 27.5586 18.8235 24.298V14.0882H19.9706C21.27 14.0882 22.3235 13.0347 22.3235 11.7353V10.5882H29.4118V9.41177V0H22.3529V7.05882H7.05882V0H0V40H16.4706H29.4118V38.6264V38.5479C26.365 37.6308 23.7451 35.8067 21.825 33.2611ZM7.05882 31.7647H4.70588V29.4118H7.05882V31.7647ZM7.05882 27.0588H4.70588V24.7059H7.05882V27.0588ZM7.05882 22.3529H4.70588V20H7.05882V22.3529ZM7.05882 17.6471H4.70588V15.2941H7.05882V17.6471ZM7.05882 12.9412H4.70588V10.5882H7.05882V12.9412ZM15.2941 31.7647H9.41177V29.4118H15.2941V31.7647ZM15.2941 27.0588H9.41177V24.7059H15.2941V27.0588ZM15.2941 22.3529H9.41177V20H15.2941V22.3529ZM15.2941 17.6471H9.41177V15.2941H15.2941V17.6471ZM15.2941 12.9412H9.41177V10.5882H15.2941V12.9412Z" fill="#FAAF60"/>
<path d="M21.825 33.2611C19.8613 30.658 18.8235 27.5586 18.8235 24.298V14.0882H19.9706C21.27 14.0882 22.3235 13.0347 22.3235 11.7353V10.5882H29.4118V9.41177V0H22.3529V7.05882H7.05882V0H0V40H16.4706H29.4118V38.6264V38.5479C26.365 37.6308 23.7451 35.8067 21.825 33.2611ZM7.05882 31.7647H4.70588V29.4118H7.05882V31.7647ZM7.05882 27.0588H4.70588V24.7059H7.05882V27.0588ZM7.05882 22.3529H4.70588V20H7.05882V22.3529ZM7.05882 17.6471H4.70588V15.2941H7.05882V17.6471ZM7.05882 12.9412H4.70588V10.5882H7.05882V12.9412ZM15.2941 31.7647H9.41177V29.4118H15.2941V31.7647ZM15.2941 27.0588H9.41177V24.7059H15.2941V27.0588ZM15.2941 22.3529H9.41177V20H15.2941V22.3529ZM15.2941 17.6471H9.41177V15.2941H15.2941V17.6471ZM15.2941 12.9412H9.41177V10.5882H15.2941V12.9412Z" fill="#FAAF60"/>
</g>
<path id="XMLID_1115_" d="M38.8229 16.4412C37.5417 16.4412 36.4993 15.3988 36.4993 14.1176V12.9412H24.6758V14.1176C24.6758 15.3988 23.6334 16.4412 22.3523 16.4412H21.1758V24.298C21.1758 27.0431 22.0496 29.6525 23.7028 31.8442C25.3559 34.0357 27.6248 35.5927 30.2643 36.3469L30.5876 36.4393L30.9108 36.3469C33.5503 35.5927 35.8193 34.0357 37.4724 31.8442C39.1255 29.6525 39.9993 27.0431 39.9993 24.298V16.4412H38.8229ZM29.3397 27.4677L26.0122 24.1401L27.6759 22.4764L29.3397 24.1401L33.4992 19.9807L35.1629 21.6445L29.3397 27.4677Z" fill="#EE885A"/>
</g>
</g>
<defs>
<clipPath id="clip0_2772_15305">
<rect width="40" height="40" fill="white"/>
</clipPath>
</defs>
</svg>
