<svg width="40" height="40" viewBox="0 0 40 40" fill="none" xmlns="http://www.w3.org/2000/svg">
<g id="divorce 1">
<g id="Group">
<path id="Vector" d="M22.8432 34.0361C23.4749 34.0361 23.9871 33.5239 23.9871 32.8922C23.9871 32.2604 23.4749 31.7482 22.8432 31.7482C22.2114 31.7482 21.6992 32.2604 21.6992 32.8922C21.6992 33.5239 22.2114 34.0361 22.8432 34.0361Z" fill="#EE885A"/>
<path id="Vector_2" d="M6.99229 6.25543V2.31256C6.99229 1.85441 7.07913 1.41102 7.2436 1H7.02265C4.17347 1 1.85547 3.32371 1.85547 6.17987V6.52878C2.27911 6.35303 2.74305 6.25543 3.22948 6.25543H6.99229Z" fill="#EE885A"/>
<g id="Vector_3">
<path d="M20.8135 26.0006L14.5694 26.8531V29.0797H7.93599V26.8531H14.5694L14.9157 24.5365H7.93599V22.3099H15.2487L15.4925 20.6794C15.5297 20.4446 15.5799 20.2139 15.6412 19.9873H7.93599V17.7608H16.7348C16.9148 17.5236 17.111 17.2968 17.3247 17.083L18.8735 15.5342H7.93599V13.3076H21.1001L29.0411 5.36668V1.0001H10.618C10.2264 0.997427 9.86234 1.13636 9.59753 1.39747C9.42475 1.5678 9.21879 1.86482 9.21879 2.31266V8.48209H3.22948C2.47186 8.48209 1.85547 9.10011 1.85547 9.85981V39H29.0411V19.5372L24.41 24.1682C23.4282 25.1501 22.1846 25.7837 20.8135 26.0006ZM18.1081 8.59676H23.5682V10.8233H18.1081V8.59676ZM26.2143 32.8922C26.2143 34.7507 24.7023 36.2627 22.8438 36.2627C20.9853 36.2627 19.4733 34.7507 19.4733 32.8922C19.4733 31.0337 20.9853 29.5217 22.8438 29.5217C24.7023 29.5217 26.2143 31.0337 26.2143 32.8922Z" fill="#FAAF60"/>
<path d="M20.8135 26.0006L14.5694 26.8531V29.0797H7.93599V26.8531H14.5694L14.9157 24.5365H7.93599V22.3099H15.2487L15.4925 20.6794C15.5297 20.4446 15.5799 20.2139 15.6412 19.9873H7.93599V17.7608H16.7348C16.9148 17.5236 17.111 17.2968 17.3247 17.083L18.8735 15.5342H7.93599V13.3076H21.1001L29.0411 5.36668V1.0001H10.618C10.2264 0.997427 9.86234 1.13636 9.59753 1.39747C9.42475 1.5678 9.21879 1.86482 9.21879 2.31266V8.48209H3.22948C2.47186 8.48209 1.85547 9.10011 1.85547 9.85981V39H29.0411V19.5372L24.41 24.1682C23.4282 25.1501 22.1846 25.7837 20.8135 26.0006ZM18.1081 8.59676H23.5682V10.8233H18.1081V8.59676ZM26.2143 32.8922C26.2143 34.7507 24.7023 36.2627 22.8438 36.2627C20.9853 36.2627 19.4733 34.7507 19.4733 32.8922C19.4733 31.0337 20.9853 29.5217 22.8438 29.5217C24.7023 29.5217 26.2143 31.0337 26.2143 32.8922Z" fill="#FAAF60"/>
</g>
<path id="Vector_4" d="M33.5232 15.0559V18.2996L31.5215 20.3015L33.0959 21.8759L35.7498 19.2219V12.8293L33.5232 15.0559Z" fill="#EE885A"/>
<path id="Vector_5" d="M32.9578 12.5763L28.9164 8.53485L18.8463 18.605C18.1882 19.263 17.7634 20.0968 17.6179 21.016L17.0801 24.4126L20.4766 23.8748C21.3957 23.7294 22.2294 23.3046 22.8877 22.6464L32.9578 12.5763Z" fill="#EE885A"/>
<path id="Vector_6" d="M30.4863 6.96338L34.0986 3.35111L38.1394 7.39192L34.5271 11.0042L30.4863 6.96338Z" fill="#EE885A"/>
</g>
</g>
</svg>
