<svg width="40" height="40" viewBox="0 0 40 40" fill="none" xmlns="http://www.w3.org/2000/svg">
<path fill-rule="evenodd" clip-rule="evenodd" d="M26.5097 10.9128L19.4914 19.5907L20.2239 13.3641L20.2245 13.3587L20.2224 13.357H15.255L21.8914 4.85726L21.5421 10.9128H26.5097ZM20.8829 2.81C15.6892 2.81 11.4678 7.03234 11.4678 12.2223C11.4678 17.4127 15.6893 21.6349 20.8829 21.6349C26.0725 21.6349 30.2939 17.4127 30.2939 12.2223C30.2939 7.03226 26.0725 2.81 20.8829 2.81Z" fill="#EE885A"/>
<path d="M38.5684 28.4007L25.7069 36.3881C24.4604 37.1538 23.0975 37.3454 21.6474 36.957L10.3916 33.9404C10.2088 33.8922 10.0177 33.9176 9.85563 34.011L4.35031 37.19L0 29.6612L10.2338 23.7349C11.6714 22.9027 13.2253 22.2051 14.8666 22.7369C15.3527 22.8948 15.9302 23.0942 16.541 23.3056L16.5501 23.3082L16.561 23.3119C18.4065 23.9486 20.6575 24.7253 22.9958 25.2894C23.238 25.3479 23.4812 25.404 23.7249 25.4575C24.1321 25.5464 24.4811 25.802 24.7055 26.1751C24.9589 26.5864 25.0295 27.0867 24.9049 27.5474C24.6722 28.4104 23.8038 28.9548 22.9271 28.7864C22.9147 28.7835 14.1269 26.433 14.1269 26.433C13.7529 26.3316 13.3665 26.5556 13.2627 26.9308C13.163 27.3068 13.3873 27.6932 13.7612 27.7938L22.4452 30.1197C24.3897 30.642 25.9977 30.7326 27.9837 29.5745L34.5213 25.7678C37.2802 24.1598 39.1874 24.513 39.794 25.5214C40.2553 26.2933 39.9811 27.5294 38.5684 28.4007Z" fill="#FAAF60"/>
<path d="M38.5684 28.4007L25.7069 36.3881C24.4604 37.1538 23.0975 37.3454 21.6474 36.957L10.3916 33.9404C10.2088 33.8922 10.0177 33.9176 9.85563 34.011L4.35031 37.19L0 29.6612L10.2338 23.7349C11.6714 22.9027 13.2253 22.2051 14.8666 22.7369C15.3527 22.8948 15.9302 23.0942 16.541 23.3056L16.5501 23.3082L16.561 23.3119C18.4065 23.9486 20.6575 24.7253 22.9958 25.2894C23.238 25.3479 23.4812 25.404 23.7249 25.4575C24.1321 25.5464 24.4811 25.802 24.7055 26.1751C24.9589 26.5864 25.0295 27.0867 24.9049 27.5474C24.6722 28.4104 23.8038 28.9548 22.9271 28.7864C22.9147 28.7835 14.1269 26.433 14.1269 26.433C13.7529 26.3316 13.3665 26.5556 13.2627 26.9308C13.163 27.3068 13.3873 27.6932 13.7612 27.7938L22.4452 30.1197C24.3897 30.642 25.9977 30.7326 27.9837 29.5745L34.5213 25.7678C37.2802 24.1598 39.1874 24.513 39.794 25.5214C40.2553 26.2933 39.9811 27.5294 38.5684 28.4007Z" fill="#FAAF60"/>
</svg>
