<svg xmlns="http://www.w3.org/2000/svg" xml:space="preserve" fill-rule="evenodd" stroke-linejoin="round" stroke-miterlimit="2" clip-rule="evenodd" viewBox="0 0 288 290">
<defs>
  <linearGradient id="gradient" gradientTransform="rotate(90)">
      <stop offset="10%" stop-color="rgba(0,0,0,0)" />
      <stop offset="30%" stop-color="rgba(255,255,255,0.1)" />
  </linearGradient>
  </defs>
  <path fill="url(#gradient)" fill-rule="nonzero" d="M250.23 1.13h-22.654L215.255 22.42h24.202l11.521 19.813h-23.827l12.122 20.916-11.697 20.206h-22.228a1.473 1.473 0 0 0-1.386-1.066 1.575 1.575 0 0 0-.374.05l-11.221-19.36-.103-.181h-24.677l12.13 20.923-11.918 20.55 11.91 20.558-11.697 20.192H144.61l-12.122-20.922-12.13 20.922H96.113l12.232 21.099.103.183h23.402l-10.898 18.81a1.687 1.687 0 0 0-.381-.05c-.65.015-1.217.46-1.386 1.089H73.129l-11.807-20.375-.103-.184h-24.67l12.232 21.084.103.184h23.827l11.734 20.185-11.521 19.827-11.602-20.01-.103-.183h-24.67l12.232 21.113.103.183h47.229l-10.898 18.812a1.329 1.329 0 0 0-.381-.06 1.47 1.47 0 0 0-1.386 1.075H60.801l-11.703 20.17-11.492-19.812.213-.365h-.418l-.213-.365-.213.364H13.148l-11.3 19.535a1.471 1.471 0 0 0-1.418.377 1.458 1.458 0 0 0-.001 2.067 1.47 1.47 0 0 0 1.037.428 1.47 1.47 0 0 0 1.386-1.067h22.226l12.11 20.865 11.91-20.566 11.594 20.018.11.183h23.82l.213.365.212-.365h23.827l11.734-20.186 11.602 20.018.103.182h24.67l-12.225-21.106-.11-.182H96.964l-11.118-19.17c.182-.178.311-.403.374-.65h22.653l11.734-20.192 11.558 19.994.11.183h23.835l11.103 19.155a1.405 1.405 0 0 0-.426 1.016 1.465 1.465 0 0 0 2.205 1.09c.282-.166.5-.421.619-.725h46.026l11.829 20.405.103.182h48.086l11.918-20.558h.425l-.213-.365.213-.365h-.425l-11.808-20.376-.11-.183H250.97l11.536 19.88a1.464 1.464 0 0 0 0 2.03l-10.912 18.827-11.287-19.477-12.13-20.923 12.13-20.916h-24.23l-11.822-20.36-.103-.183h-22.631a1.474 1.474 0 0 0-1.936-1.026 1.465 1.465 0 0 0-.796 2.035c.257.502.782.813 1.346.796a1.25 1.25 0 0 0 .374-.06l11.22 19.368.11.183h23.416l-11.477 19.805h-47.265l-11.661-20.178 12.123-20.923H132.7l-11.117-19.17c.182-.178.311-.403.374-.65h22.653l11.324-19.542c.24.064.493.064.733 0l11.22 19.36.103.181h47.625l11.066 19.017a1.457 1.457 0 0 0-.079 2.445 1.471 1.471 0 0 0 1.969-.262c.156-.188.263-.41.31-.648h23.336l-11.888-20.53h23.402l12.335-21.28h-24.67l-11.69 20.164-11.499-19.835 11.117-19.177a1.473 1.473 0 0 0 1.722-.738 1.454 1.454 0 0 0-.143-1.555 1.469 1.469 0 0 0-2.591.554h-46.055L180.56 124.82l11.492-19.827 11.594 20.01.103.181h23.827l.213.365.212-.364h23.402l11.807 20.374.103.184h24.67l-12.225-21.106-.11-.183h-23.402l11.492-19.826h.426l-.213-.365 12.122-20.916h-23.071a1.517 1.517 0 0 0-.374-.657l11.11-19.17h24.245l-11.917-20.558-12.232-21.105-.103-.183h-23.394l10.897-18.812a1.47 1.47 0 0 0 1.727-.737 1.457 1.457 0 0 0-.796-2.035 1.475 1.475 0 0 0-1.531.322 1.454 1.454 0 0 0-.404.704v.015-.001ZM49.288 227.238l-11.47-19.827h22.976l11.492 19.827H49.288Zm94.897 41.854 11.492 19.827h-22.976l-11.492-19.827h22.976Zm108.054-20.588h22.984l11.484 19.828h-21.803a1.463 1.463 0 0 0-1.386-1.067 1.575 1.575 0 0 0-.374.05l-10.905-18.81Zm12.665 20.558h21.803l-11.484 19.828h-22.984l10.905-18.813c.122.033.248.05.374.051a1.463 1.463 0 0 0 1.386-1.066Zm-13.508-226.1 11.528 19.836h-23.013l-11.455-19.835h22.94Zm-1.166 41.11c.062.246.192.47.374.65l-10.905 18.803-11.243-19.44 21.774-.013Zm-34.564 19.82h-22.984l10.906-18.806c.122.032.247.05.374.05a1.474 1.474 0 0 0 1.386-1.066h21.803l-11.485 19.82v.002Zm-13.09-19.82c.062.246.191.47.374.65l-10.898 18.803-11.265-19.44 21.789-.013Zm13.721 20.185 11.492-19.82 5.221 9.007 6.271 10.813-11.492 19.827-5.2-8.993-6.292-10.834Zm24.04-.366 10.905-18.804c.24.066.493.066.733 0l10.949 18.82-22.587-.016Zm-48.498-40.377 11.111 19.17c-.181.181-.31.409-.374.656h-22.229l-11.484-19.826h22.976Zm-36.91 102.058h-21.81l11.491-19.82h22.977l-10.898 18.804a1.629 1.629 0 0 0-.374-.052 1.468 1.468 0 0 0-1.386 1.068Zm2.772 0a1.468 1.468 0 0 0-.374-.65l10.898-18.804 11.279 19.454h-21.803Zm-13.729-20.185-11.484 19.82-5.64-9.738-5.867-10.097 11.492-19.828 11.499 19.843Zm-35.099 20.185-11.491-19.82h22.976l11.492 19.82h-22.977ZM49.31 186.15 37.818 166.3h22.976l11.492 19.85H49.31Zm47.228.73 3.755 6.488 7.73 13.31H85.046L73.562 186.88h22.976Zm35.312 20.529-5.742 9.914-5.75 9.912H97.382l5.749-9.912 5.742-9.915h22.977Zm-58.288 19.827 11.484-19.827h22.977l-5.706 9.914-5.742 9.912H73.562Zm9.886 21.288c.066.245.194.47.374.65l-11.11 19.17H49.734l11.514-19.82h22.2Zm-69.875 0h22.975l-11.492 19.82H2.829a1.389 1.389 0 0 0-.374-.65l11.118-19.17Zm12.122 20.177 11.492-19.811 11.272 19.454.212.365-.212.366-11.272 19.462-11.492-19.836Zm35.554 20.2-11.514-19.826h22.976l11.492 19.827H61.249Zm24.252 0 11.463-19.826h22.954l-11.47 19.827H85.501Zm10.825-20.2-11.492 19.836-5.215-9.009-6.27-10.827 11.11-19.177c.24.075.495.075.734 0l11.133 19.177ZM86.22 247.787a1.457 1.457 0 0 0-.367-.657l11.11-19.162h22.955l-11.47 19.827-22.228-.007Zm46.481 0-11.492-19.827h22.976l11.492 19.827h-22.976Zm36.91 20.535a1.468 1.468 0 0 0-1.386-1.065 1.525 1.525 0 0 0-.374.05l-10.905-18.811h22.976l11.492 19.826h-21.803Zm34.138-19.826 11.506 19.835h-22.991l-11.477-19.828 22.962-.007Zm35.708 20.595 11.513 19.827h-22.976l-11.492-19.827h22.955Zm-23.395-.731-11.484-19.828h22.998l11.485 19.828h-22.999Zm-23.82-41.095-11.088-19.198a1.46 1.46 0 0 0 .367-.657h22.228l11.506 19.827-23.013.029Zm24.202.732h22.558l-11.426 19.775H204.6l11.477-19.804h.433l-.066.029Zm-60.826-20.543-11.492 19.827h-22.917l5.742-9.915 5.749-9.912h22.918Zm-23.827-.731h-22.918l-6.6-11.324-4.891-8.518h21.803a1.468 1.468 0 0 0 1.386 1.066c.129 0 .257-.02.381-.058l10.839 18.834Zm12.394-20.572h-22.228a1.455 1.455 0 0 0-.367-.65l11.11-19.177h22.229c.064.243.19.468.367.65l-11.111 19.177Zm24.252 0-11.117-19.192c.18-.183.309-.41.374-.657h22.221l.212.365 11.287 19.484h-22.977Zm47.669 0-11.484-19.827h22.954l11.485 19.827h-22.955Zm-12.335-19.827 11.484 19.827h-22.991l-11.477-19.85 22.984.023Zm47.199 40.392h-22.067a1.467 1.467 0 0 0-1.386-1.075h-.139l-10.876-18.76h22.955l11.513 19.835Zm23.827-40.379-11.491 19.814h-22.977l11.492-19.82 22.976.007Zm-36.485-20.586c.063.246.192.471.374.65l-11.11 19.17H204.6l11.484-19.82h22.228Zm-34.563 19.82h-22.962l11.492-19.82h22.976l-11.506 19.82Zm-12.123-20.185-11.491 19.82-11.485-19.82.213-.365 11.279-19.462 11.484 19.827Zm-22.983-41.117 11.492-19.82 11.279 19.455.212.365-.212.365-11.279 19.463-11.492-19.828Zm35.531 20.192-11.492-19.825h22.984l11.485 19.827h-22.977v-.001Zm71.056.73 11.485 19.828h-22.977l-11.492-19.828h22.984Zm-23.827-.73h-22.947l11.485-19.826h22.983l-11.521 19.826Zm12.123-20.922-10.869-18.805c.179-.18.308-.404.374-.65h21.774l-11.279 19.456v-.002ZM250.23 83.353h-21.774l11.485-19.828h22.983L251.99 82.339a1.575 1.575 0 0 0-.374-.051 1.468 1.468 0 0 0-1.386 1.067v-.001Zm36.477-20.558h-22.969L252.246 42.96h22.977l11.484 19.835Zm-23.394-40.377 11.492 19.813h-22.984l-11.484-19.827 22.976.014Zm-23.827-.73H216.51L228.001 1.86h22.229c.062.248.189.474.366.658l-11.11 19.17Z"/>
</svg>
