<svg width="40" height="40" viewBox="0 0 40 40" fill="none" xmlns="http://www.w3.org/2000/svg">
<path d="M34.7656 11.5625H38L31.6016 2L25.2734 11.5625H28.4375V35.8906H26.3281V21.0547H21.0547V35.8906H18.9453V25.2734H13.6719V35.8906H11.5625V29.4922H6.28906V35.8906H2V38H38V35.8906H34.7656V11.5625Z" fill="#FAAF60"/>
<path d="M34.7656 11.5625H38L31.6016 2L25.2734 11.5625H28.4375V35.8906H26.3281V21.0547H21.0547V35.8906H18.9453V25.2734H13.6719V35.8906H11.5625V29.4922H6.28906V35.8906H2V38H38V35.8906H34.7656V11.5625Z" fill="#FAAF60"/>
<path d="M11.5351 21C16.7624 21 21 16.7624 21 11.5351C21 6.3077 16.7624 2 11.5351 2C6.3077 2 2 6.3077 2 11.5351C2 16.7624 6.3077 21 11.5351 21ZM11.5351 12.5867C9.79543 12.5867 8.38007 11.1714 8.38007 9.43173C8.38007 8.06238 9.26193 6.90611 10.4834 6.47038V4.17343H12.5867V6.47038C13.8082 6.90611 14.69 8.06238 14.69 9.43173H12.5867C12.5867 8.8514 12.1154 8.38007 11.5351 8.38007C10.9547 8.38007 10.4834 8.8514 10.4834 9.43173C10.4834 10.0121 10.9547 10.4834 11.5351 10.4834C13.2747 10.4834 14.69 11.8988 14.69 13.6384C14.69 15.0077 13.8082 16.164 12.5867 16.5997V18.8967H10.4834V16.5997C9.26193 16.164 8.38007 15.0077 8.38007 13.6384H10.4834C10.4834 14.2187 10.9547 14.69 11.5351 14.69C12.1154 14.69 12.5867 14.2187 12.5867 13.6384C12.5867 13.058 12.1154 12.5867 11.5351 12.5867Z" fill="#EE885A"/>
</svg>
