<svg width="40" height="40" viewBox="0 0 40 40" fill="none" xmlns="http://www.w3.org/2000/svg">
<g id="hypoallergenic 1">
<g id="Group">
<g id="Vector">
<path d="M11.7969 34.7735V40H14.1406V34.7735L12.9688 35.5468L11.7969 34.7735Z" fill="#FAAF60"/>
<path d="M11.7969 34.7735V40H14.1406V34.7735L12.9688 35.5468L11.7969 34.7735Z" fill="#FAAF60"/>
</g>
<path id="Vector_2" d="M27.0312 40C31.554 40 35.2344 36.3196 35.2344 31.7969C35.2344 30.5698 34.9445 29.4159 34.4595 28.3695L27.0312 35.7977L23.0304 31.7969L24.6875 30.1398L27.0312 32.4835L33.1392 26.3755C31.6355 24.683 29.4677 23.5938 27.0312 23.5938C22.5085 23.5938 18.8281 27.2741 18.8281 31.7969C18.8281 36.3196 22.5085 40 27.0312 40Z" fill="#EE885A"/>
<g id="Vector_3">
<path d="M14.1406 21.7734L21.1719 14.7656V8.67188L14.1406 15.7266V21.7734Z" fill="#FAAF60"/>
<path d="M14.1406 21.7734L21.1719 14.7656V8.67188L14.1406 15.7266V21.7734Z" fill="#FAAF60"/>
</g>
<g id="Vector_4">
<path d="M4.76562 18.0469V26.9453C4.76562 28.9141 5.74992 30.7188 7.36719 31.8204L11.7969 34.7735V25.1016L4.76562 18.0469Z" fill="#FAAF60"/>
<path d="M4.76562 18.0469V26.9453C4.76562 28.9141 5.74992 30.7188 7.36719 31.8204L11.7969 34.7735V25.1016L4.76562 18.0469Z" fill="#FAAF60"/>
</g>
<g id="Vector_5">
<path d="M21.1719 23.0354V18.0469L14.1406 25.1016V34.7734L16.6183 33.1216C16.5625 32.683 16.4844 32.2505 16.4844 31.7969C16.4844 28.1484 18.3484 24.9298 21.1719 23.0354Z" fill="#FAAF60"/>
<path d="M21.1719 23.0354V18.0469L14.1406 25.1016V34.7734L16.6183 33.1216C16.5625 32.683 16.4844 32.2505 16.4844 31.7969C16.4844 28.1484 18.3484 24.9298 21.1719 23.0354Z" fill="#FAAF60"/>
</g>
<g id="Vector_6">
<path d="M12.9688 0C9.28914 0 6.17188 2.43742 5.14062 5.7657L11.797 12.3984V7.03125H14.1407V12.3984L20.797 5.76562C19.7658 2.43742 16.6485 0 12.9688 0V0Z" fill="#FAAF60"/>
<path d="M12.9688 0C9.28914 0 6.17188 2.43742 5.14062 5.7657L11.797 12.3984V7.03125H14.1407V12.3984L20.797 5.76562C19.7658 2.43742 16.6485 0 12.9688 0V0Z" fill="#FAAF60"/>
</g>
<g id="Vector_7">
<path d="M4.76562 14.7656L11.7969 21.7733V15.7266L4.76562 8.69537V14.7656Z" fill="#FAAF60"/>
<path d="M4.76562 14.7656L11.7969 21.7733V15.7266L4.76562 8.69537V14.7656Z" fill="#FAAF60"/>
</g>
</g>
</g>
</svg>
