<svg width="40" height="40" viewBox="0 0 40 40" fill="none" xmlns="http://www.w3.org/2000/svg">
<g id="law 1">
<g id="Group">
<path id="Vector" d="M3.22748 1C1.99293 1 0.992188 2.00082 0.992188 3.2353V9.94118H5.46278V3.2353C5.46278 2.00074 4.46196 1 3.22748 1Z" fill="#EE885A"/>
<path id="Vector_2" d="M15.5218 36.2059C15.5218 37.2391 15.2083 38.2003 14.6719 39H29.6414C32.6518 39 35.2234 37.1443 36.2961 34.5294H15.5218V36.2059Z" fill="#EE885A"/>
<path id="Vector_3" d="M27.9496 22.1007C33.9451 22.4264 39.3181 17.0558 38.9923 11.058C32.9968 10.7323 27.6239 16.103 27.9496 22.1007Z" fill="#EE885A"/>
<g id="Vector_4">
<path d="M34.5972 22.6859C31.3882 24.5111 28.4505 24.3506 28.4579 24.3497C27.9966 24.3497 27.7129 24.3239 27.3272 24.3054L26.0444 25.5883H30.0521V27.8236H12.1697V25.5883H22.8832L25.7467 22.7248L25.7193 22.222C25.4135 16.593 29.1939 11.2926 34.5972 9.46149V6.66275C34.5972 3.54026 32.0568 1 28.9344 1H7.09766C7.4793 1.65807 7.6991 2.42128 7.6991 3.2353V36.2059C7.6991 37.7491 8.95005 39 10.4932 39C12.0363 39 13.2873 37.7491 13.2873 36.2059V32.2941H34.5972V22.6859ZM12.1697 12.1765H23.3462V14.4118H12.1697V12.1765ZM12.1697 16.6471H23.3462V18.8824H12.1697V16.6471ZM12.1697 21.1177H19.9932V23.353H12.1697V21.1177Z" fill="#FAAF60"/>
<path d="M34.5972 22.6859C31.3882 24.5111 28.4505 24.3506 28.4579 24.3497C27.9966 24.3497 27.7129 24.3239 27.3272 24.3054L26.0444 25.5883H30.0521V27.8236H12.1697V25.5883H22.8832L25.7467 22.7248L25.7193 22.222C25.4135 16.593 29.1939 11.2926 34.5972 9.46149V6.66275C34.5972 3.54026 32.0568 1 28.9344 1H7.09766C7.4793 1.65807 7.6991 2.42128 7.6991 3.2353V36.2059C7.6991 37.7491 8.95005 39 10.4932 39C12.0363 39 13.2873 37.7491 13.2873 36.2059V32.2941H34.5972V22.6859ZM12.1697 12.1765H23.3462V14.4118H12.1697V12.1765ZM12.1697 16.6471H23.3462V18.8824H12.1697V16.6471ZM12.1697 21.1177H19.9932V23.353H12.1697V21.1177Z" fill="#FAAF60"/>
</g>
</g>
</g>
</svg>
