<svg width="32" height="32" viewBox="0 0 32 32" fill="none" xmlns="http://www.w3.org/2000/svg">
<g clip-path="url(#clip0_3218_1971)">
<path d="M22.3994 4.95901C24.3027 6.09318 25.9062 7.69015 27.0404 9.59999L28.6113 8.0291C28.8655 7.77488 29.2761 7.77488 29.5369 8.0291L30.0909 8.58314C30.5081 9.00031 31.2186 8.69395 31.199 8.10731L31.0165 1.61516C31.0035 1.2697 30.7297 0.99593 30.3842 0.982893L23.8921 0.800383C23.3054 0.780828 22.9991 1.49132 23.4163 1.90848L23.9703 2.46253C24.2245 2.72326 24.2245 3.13391 23.9703 3.38812L22.3994 4.95901Z" fill="#FAAF60"/>
<path d="M22.3994 4.95901C24.3027 6.09318 25.9062 7.69015 27.0404 9.59999L28.6113 8.0291C28.8655 7.77488 29.2761 7.77488 29.5369 8.0291L30.0909 8.58314C30.5081 9.00031 31.2186 8.69395 31.199 8.10731L31.0165 1.61516C31.0035 1.2697 30.7297 0.99593 30.3842 0.982893L23.8921 0.800383C23.3054 0.780828 22.9991 1.49132 23.4163 1.90848L23.9703 2.46253C24.2245 2.72326 24.2245 3.13391 23.9703 3.38812L22.3994 4.95901Z" fill="#FAAF60"/>
<path d="M1.9138 8.58314L2.46745 8.0291C2.72148 7.77488 3.13184 7.77488 3.38587 8.0291L4.95564 9.59999C6.09551 7.69015 7.69785 6.09318 9.59981 4.95901L8.03004 3.38812C7.77601 3.13391 7.77601 2.72326 8.03004 2.46253L8.58369 1.90848C9.00056 1.49132 8.69442 0.780828 8.10169 0.800383L1.62069 0.982893C1.27547 0.99593 0.995388 1.2697 0.988875 1.61516L0.799981 8.10731C0.786954 8.69395 1.49693 9.00031 1.9138 8.58314Z" fill="#FAAF60"/>
<path d="M1.9138 8.58314L2.46745 8.0291C2.72148 7.77488 3.13184 7.77488 3.38587 8.0291L4.95564 9.59999C6.09551 7.69015 7.69785 6.09318 9.59981 4.95901L8.03004 3.38812C7.77601 3.13391 7.77601 2.72326 8.03004 2.46253L8.58369 1.90848C9.00056 1.49132 8.69442 0.780828 8.10169 0.800383L1.62069 0.982893C1.27547 0.99593 0.995388 1.2697 0.988875 1.61516L0.799981 8.10731C0.786954 8.69395 1.49693 9.00031 1.9138 8.58314Z" fill="#FAAF60"/>
<path d="M9.59981 27.0441C7.69133 25.9043 6.09551 24.3084 4.95564 22.4L3.38587 23.9697C3.13184 24.2238 2.72148 24.2238 2.46745 23.9697L1.9138 23.4161C1.49693 22.9992 0.786954 23.3053 0.799981 23.8981L0.988875 30.3791C0.995388 30.7243 1.27547 31.0044 1.62069 31.0109L8.10169 31.1998C8.69442 31.2128 9.00056 30.5028 8.58369 30.086L8.03004 29.5323C7.77601 29.2783 7.77601 28.8679 8.03004 28.6139L9.59981 27.0441Z" fill="#FAAF60"/>
<path d="M9.59981 27.0441C7.69133 25.9043 6.09551 24.3084 4.95564 22.4L3.38587 23.9697C3.13184 24.2238 2.72148 24.2238 2.46745 23.9697L1.9138 23.4161C1.49693 22.9992 0.786954 23.3053 0.799981 23.8981L0.988875 30.3791C0.995388 30.7243 1.27547 31.0044 1.62069 31.0109L8.10169 31.1998C8.69442 31.2128 9.00056 30.5028 8.58369 30.086L8.03004 29.5323C7.77601 29.2783 7.77601 28.8679 8.03004 28.6139L9.59981 27.0441Z" fill="#FAAF60"/>
<path d="M30.0909 23.4103L29.5369 23.9644C29.2761 24.2186 28.8655 24.2186 28.6113 23.9644L27.0469 22.4C25.9062 24.3033 24.3027 25.9003 22.3994 27.0411L23.9703 28.612C24.2245 28.8662 24.2245 29.2769 23.9703 29.5311L23.4163 30.0851C22.9991 30.5023 23.3054 31.2128 23.8921 31.1998L30.3842 31.0108C30.7297 31.0042 31.0035 30.7239 31.0165 30.3785L31.199 23.8927C31.2186 23.2995 30.5081 22.9931 30.0909 23.4103Z" fill="#FAAF60"/>
<path d="M30.0909 23.4103L29.5369 23.9644C29.2761 24.2186 28.8655 24.2186 28.6113 23.9644L27.0469 22.4C25.9062 24.3033 24.3027 25.9003 22.3994 27.0411L23.9703 28.612C24.2245 28.8662 24.2245 29.2769 23.9703 29.5311L23.4163 30.0851C22.9991 30.5023 23.3054 31.2128 23.8921 31.1998L30.3842 31.0108C30.7297 31.0042 31.0035 30.7239 31.0165 30.3785L31.199 23.8927C31.2186 23.2995 30.5081 22.9931 30.0909 23.4103Z" fill="#FAAF60"/>
<path d="M16.7998 16.8V20C17.2986 19.9322 17.6872 19.767 17.9789 19.4894C18.2511 19.2416 18.3998 18.8737 18.3998 18.4606C18.3998 18.0475 18.2896 17.7093 18.0502 17.4692C17.8364 17.2202 17.415 16.995 16.7998 16.8Z" fill="#EE885A"/>
<path d="M13.5996 12.7139C13.5996 13.1197 13.7664 13.4631 14.09 13.6897C14.4343 13.9473 15.0815 14.1739 15.9996 14.4V11.2C15.259 11.2315 14.6745 11.4032 14.2361 11.6917C13.8192 11.9486 13.5996 12.2921 13.5996 12.7139Z" fill="#EE885A"/>
<path d="M26.3996 16C26.3996 10.256 21.7436 5.59998 15.9996 5.59998C10.2557 5.59998 5.59961 10.256 5.59961 16C5.59961 21.7439 10.2557 26.4 15.9996 26.4C21.7436 26.4 26.3996 21.7439 26.3996 16ZM19.7525 21.1244C19.0016 21.7984 18.0137 22.1584 16.7651 22.2348V23.5294H15.616V22.2118C13.9541 22.0585 12.445 21.3845 11.1273 20.2353L12.468 18.642C13.4716 19.5383 14.5208 20.0511 15.616 20.2353V16.7043C14.245 16.3752 13.2414 15.9461 12.5826 15.4097C11.9546 14.8812 11.6558 14.0769 11.6558 13.0429C11.6558 11.9938 12.0007 11.1434 12.7437 10.4694C13.4716 9.8185 14.4444 9.44276 15.616 9.37424V8.47055H16.7651V9.3894C18.0901 9.49668 19.3543 9.96396 20.5338 10.7682L19.3616 12.4459C18.5573 11.8713 17.6919 11.5113 16.7651 11.3889V14.8048H16.8191C18.2131 15.1339 19.2397 15.563 19.898 16.1297C20.5338 16.6813 20.8708 17.4777 20.8708 18.5425C20.8708 19.6001 20.5035 20.4735 19.7525 21.1244Z" fill="#EE885A"/>
</g>
<defs>
<clipPath id="clip0_3218_1971">
<rect width="32" height="32" fill="white"/>
</clipPath>
</defs>
</svg>
