<svg width="40" height="40" viewBox="0 0 40 40" fill="none" xmlns="http://www.w3.org/2000/svg">
<path d="M19.8019 31.0336C19.8019 27.5775 21.3714 24.4815 23.8346 22.4195L21.9999 19.9999L18.4999 23.4999L16 20.9999L14 23.4999L11 20.4999L0 39.9999H24.277C21.5607 37.9479 19.8019 34.6924 19.8019 31.0336Z" fill="#FAAF60"/>
<path d="M19.8019 31.0336C19.8019 27.5775 21.3714 24.4815 23.8346 22.4195L21.9999 19.9999L18.4999 23.4999L16 20.9999L14 23.4999L11 20.4999L0 39.9999H24.277C21.5607 37.9479 19.8019 34.6924 19.8019 31.0336Z" fill="#FAAF60"/>
<path d="M31.0336 22.0674C26.0896 22.0674 22.0674 26.0896 22.0674 31.0337C22.0674 35.9777 26.0896 40 31.0336 40C35.9776 39.9999 39.9998 35.9776 39.9998 31.0336C39.9998 26.0896 35.9776 22.0674 31.0336 22.0674ZM33.8081 34.0421C33.3692 34.4955 32.7435 34.7948 31.9313 34.9397V36.1474H30.3971V34.994C29.8531 34.9651 29.3325 34.8815 28.8358 34.7438C28.3389 34.6062 27.9273 34.4356 27.6009 34.2324L28.4278 32.361C28.7904 32.5715 29.1966 32.7401 29.6464 32.8669C30.0961 32.994 30.5278 33.0574 30.9412 33.0574C31.2965 33.0574 31.5505 33.023 31.7028 32.9541C31.8552 32.8851 31.9313 32.7818 31.9313 32.6439C31.9313 32.4844 31.8316 32.3648 31.6321 32.2849C31.4325 32.2051 31.1045 32.1181 30.6474 32.0237C30.0599 31.9005 29.5703 31.768 29.1785 31.6266C28.7868 31.4852 28.4458 31.2531 28.1558 30.9303C27.8656 30.6077 27.7206 30.1705 27.7206 29.6193C27.7206 28.981 27.9507 28.4334 28.4115 27.9763C28.8721 27.5194 29.5339 27.2293 30.3972 27.1059V25.92H31.9313V27.0842C32.8017 27.1641 33.5379 27.3744 34.14 27.7153L33.3675 29.5759C32.6203 29.1988 31.9131 29.0101 31.2459 29.0101C30.5857 29.0101 30.2558 29.1697 30.2558 29.4888C30.2558 29.6411 30.3537 29.7554 30.5495 29.8316C30.7454 29.9077 31.0681 29.9894 31.5179 30.0764C32.0981 30.1852 32.5877 30.3103 32.9868 30.4518C33.3856 30.5932 33.7321 30.8236 34.0259 31.1427C34.3196 31.462 34.4665 31.8972 34.4665 32.4483C34.4664 33.0574 34.2469 33.5888 33.8081 34.0421Z" fill="#EE885A"/>
<path d="M15.2678 0C15.2678 0.361478 15.2678 11.3781 15.2678 11.1161L12 17.6535L14.2793 19.9999L16.2563 17.9646L18.2334 19.9999L20.5127 17.6535L17.2449 11.1161V8.14139H27L24.3645 4.0707L27 0H15.2678Z" fill="#EE885A"/>
</svg>
