<svg width="83" height="32" viewBox="0 0 83 32" fill="none" xmlns="http://www.w3.org/2000/svg">
<path d="M12.9771 31.0952C10.7982 31.0952 8.89162 30.7526 7.25745 30.0673C5.62327 29.3583 4.2733 28.4013 3.20753 27.1961C2.16545 25.9909 1.37204 24.5848 0.82732 22.9779C0.306278 21.3473 0.0457573 19.6223 0.0457573 17.8027C0.0457573 16.0067 0.329962 14.3052 0.898371 12.6983C1.49046 11.0678 2.33124 9.64991 3.42069 8.44471C4.53382 7.23952 5.90747 6.28246 7.54165 5.57352C9.17583 4.86459 11.0232 4.51012 13.0836 4.51012C15.2625 4.51012 17.1691 4.86459 18.8033 5.57352C20.4611 6.25883 21.8229 7.20407 22.8887 8.40926C23.9781 9.61446 24.7952 11.0323 25.34 12.6629C25.8847 14.2698 26.157 15.9831 26.157 17.8027C26.157 19.6223 25.8728 21.3473 25.3044 22.9779C24.7597 24.5848 23.9308 25.9909 22.8176 27.1961C21.7282 28.4013 20.3545 29.3583 18.6967 30.0673C17.0388 30.7526 15.1323 31.0952 12.9771 31.0952ZM13.0481 25.4237C15.0849 25.4237 16.6244 24.7502 17.6664 23.4033C18.7085 22.0563 19.2296 20.1894 19.2296 17.8027C19.2296 15.3923 18.7085 13.5136 17.6664 12.1666C16.6244 10.796 15.1086 10.1107 13.1192 10.1107C11.1771 10.1107 9.66134 10.796 8.57189 12.1666C7.50612 13.5372 6.97324 15.4159 6.97324 17.8027C6.97324 20.1422 7.4706 21.9972 8.46532 23.3678C9.46003 24.7384 10.9876 25.4237 13.0481 25.4237Z" fill="black"/>
<path d="M12.9771 31.0952C10.7982 31.0952 8.89162 30.7526 7.25745 30.0673C5.62327 29.3583 4.2733 28.4013 3.20753 27.1961C2.16545 25.9909 1.37204 24.5848 0.82732 22.9779C0.306278 21.3473 0.0457573 19.6223 0.0457573 17.8027C0.0457573 16.0067 0.329962 14.3052 0.898371 12.6983C1.49046 11.0678 2.33124 9.64991 3.42069 8.44471C4.53382 7.23952 5.90747 6.28246 7.54165 5.57352C9.17583 4.86459 11.0232 4.51012 13.0836 4.51012C15.2625 4.51012 17.1691 4.86459 18.8033 5.57352C20.4611 6.25883 21.8229 7.20407 22.8887 8.40926C23.9781 9.61446 24.7952 11.0323 25.34 12.6629C25.8847 14.2698 26.157 15.9831 26.157 17.8027C26.157 19.6223 25.8728 21.3473 25.3044 22.9779C24.7597 24.5848 23.9308 25.9909 22.8176 27.1961C21.7282 28.4013 20.3545 29.3583 18.6967 30.0673C17.0388 30.7526 15.1323 31.0952 12.9771 31.0952ZM13.0481 25.4237C15.0849 25.4237 16.6244 24.7502 17.6664 23.4033C18.7085 22.0563 19.2296 20.1894 19.2296 17.8027C19.2296 15.3923 18.7085 13.5136 17.6664 12.1666C16.6244 10.796 15.1086 10.1107 13.1192 10.1107C11.1771 10.1107 9.66134 10.796 8.57189 12.1666C7.50612 13.5372 6.97324 15.4159 6.97324 17.8027C6.97324 20.1422 7.4706 21.9972 8.46532 23.3678C9.46003 24.7384 10.9876 25.4237 13.0481 25.4237Z" fill="black"/>
<path d="M49.8679 20.6739C49.8679 22.328 49.6547 23.805 49.2284 25.1047C48.8021 26.3808 48.21 27.456 47.4521 28.3304C46.7179 29.1811 45.8298 29.8309 44.7877 30.2799C43.7456 30.7289 42.6206 30.9534 41.4128 30.9534C39.7312 30.9534 38.3931 30.5517 37.3984 29.7482C36.4274 28.9448 35.6813 27.8932 35.1603 26.5935V30.7407H28.7657V2.5251H35.1958V15.2151C35.8116 13.7263 36.676 12.6038 37.7892 11.8476C38.9023 11.0678 40.2523 10.6779 41.8391 10.6779C42.9759 10.6779 44.0298 10.8787 45.0009 11.2805C45.9956 11.6822 46.8482 12.2966 47.5587 13.1237C48.2929 13.9272 48.8613 14.9669 49.2639 16.243C49.6665 17.4955 49.8679 18.9724 49.8679 20.6739ZM39.1036 26.0618C40.6194 26.0618 41.7088 25.5891 42.372 24.6439C43.0351 23.6987 43.3667 22.4226 43.3667 20.8156C43.3667 19.1615 43.0351 17.8499 42.372 16.8811C41.7088 15.9122 40.6194 15.4277 39.1036 15.4277C37.6115 15.4277 36.5221 15.924 35.8353 16.9165C35.1721 17.8854 34.8287 19.1851 34.805 20.8156C34.805 22.4462 35.1247 23.7341 35.7642 24.6793C36.4274 25.601 37.5405 26.0618 39.1036 26.0618Z" fill="black"/>
<path d="M49.8679 20.6739C49.8679 22.328 49.6547 23.805 49.2284 25.1047C48.8021 26.3808 48.21 27.456 47.4521 28.3304C46.7179 29.1811 45.8298 29.8309 44.7877 30.2799C43.7456 30.7289 42.6206 30.9534 41.4128 30.9534C39.7312 30.9534 38.3931 30.5517 37.3984 29.7482C36.4274 28.9448 35.6813 27.8932 35.1603 26.5935V30.7407H28.7657V2.5251H35.1958V15.2151C35.8116 13.7263 36.676 12.6038 37.7892 11.8476C38.9023 11.0678 40.2523 10.6779 41.8391 10.6779C42.9759 10.6779 44.0298 10.8787 45.0009 11.2805C45.9956 11.6822 46.8482 12.2966 47.5587 13.1237C48.2929 13.9272 48.8613 14.9669 49.2639 16.243C49.6665 17.4955 49.8679 18.9724 49.8679 20.6739ZM39.1036 26.0618C40.6194 26.0618 41.7088 25.5891 42.372 24.6439C43.0351 23.6987 43.3667 22.4226 43.3667 20.8156C43.3667 19.1615 43.0351 17.8499 42.372 16.8811C41.7088 15.9122 40.6194 15.4277 39.1036 15.4277C37.6115 15.4277 36.5221 15.924 35.8353 16.9165C35.1721 17.8854 34.8287 19.1851 34.805 20.8156C34.805 22.4462 35.1247 23.7341 35.7642 24.6793C36.4274 25.601 37.5405 26.0618 39.1036 26.0618Z" fill="black"/>
<path d="M51.623 4.86459C51.623 3.70666 51.9665 2.76141 52.6533 2.02884C53.3401 1.29628 54.323 0.929993 55.6019 0.929993C56.8335 0.929993 57.7926 1.29628 58.4795 2.02884C59.1663 2.76141 59.5097 3.70666 59.5097 4.86459C59.5097 5.97525 59.1545 6.88505 58.4439 7.59399C57.7571 8.30293 56.8098 8.65739 55.6019 8.65739C54.323 8.65739 53.3401 8.30293 52.6533 7.59399C51.9665 6.88505 51.623 5.97525 51.623 4.86459ZM58.7281 10.8905V30.7407H52.2625V10.8905H58.7281Z" fill="black"/>
<path d="M51.623 4.86459C51.623 3.70666 51.9665 2.76141 52.6533 2.02884C53.3401 1.29628 54.323 0.929993 55.6019 0.929993C56.8335 0.929993 57.7926 1.29628 58.4795 2.02884C59.1663 2.76141 59.5097 3.70666 59.5097 4.86459C59.5097 5.97525 59.1545 6.88505 58.4439 7.59399C57.7571 8.30293 56.8098 8.65739 55.6019 8.65739C54.323 8.65739 53.3401 8.30293 52.6533 7.59399C51.9665 6.88505 51.623 5.97525 51.623 4.86459ZM58.7281 10.8905V30.7407H52.2625V10.8905H58.7281Z" fill="black"/>
<path d="M81.5947 25.5655C80.7657 27.1961 79.5579 28.5312 77.9711 29.571C76.3843 30.5871 74.3238 31.0952 71.7896 31.0952C69.9897 31.0952 68.4147 30.8471 67.0647 30.3508C65.7384 29.8309 64.6253 29.122 63.7253 28.224C62.849 27.326 62.1859 26.2626 61.7359 25.0338C61.3096 23.7814 61.0964 22.4344 61.0964 20.9929C61.0964 19.5514 61.3333 18.1926 61.8069 16.9165C62.3043 15.6404 63.003 14.5297 63.9029 13.5845C64.8266 12.6393 65.9634 11.8949 67.3134 11.3513C68.6634 10.7842 70.191 10.5006 71.8962 10.5006C73.6488 10.5006 75.1645 10.7724 76.4435 11.3159C77.7461 11.8594 78.8118 12.5802 79.6408 13.4782C80.4697 14.3525 81.0855 15.3805 81.4881 16.562C81.8907 17.7436 82.092 18.9724 82.092 20.2485V22.1626H67.2424C67.4081 23.4623 67.8818 24.4548 68.6634 25.1402C69.4449 25.8255 70.5225 26.1681 71.8962 26.1681C72.9383 26.1681 73.7791 25.9672 74.4185 25.5655C75.058 25.1402 75.6027 24.4548 76.0527 23.5096L81.5947 25.5655ZM71.7541 15.1796C70.5225 15.1796 69.5278 15.5104 68.7699 16.1721C68.0121 16.8338 67.5266 17.779 67.3134 19.0079H75.8395C75.7685 17.8736 75.4014 16.9519 74.7382 16.243C74.0988 15.5341 73.1041 15.1796 71.7541 15.1796Z" fill="black"/>
<path d="M81.5947 25.5655C80.7657 27.1961 79.5579 28.5312 77.9711 29.571C76.3843 30.5871 74.3238 31.0952 71.7896 31.0952C69.9897 31.0952 68.4147 30.8471 67.0647 30.3508C65.7384 29.8309 64.6253 29.122 63.7253 28.224C62.849 27.326 62.1859 26.2626 61.7359 25.0338C61.3096 23.7814 61.0964 22.4344 61.0964 20.9929C61.0964 19.5514 61.3333 18.1926 61.8069 16.9165C62.3043 15.6404 63.003 14.5297 63.9029 13.5845C64.8266 12.6393 65.9634 11.8949 67.3134 11.3513C68.6634 10.7842 70.191 10.5006 71.8962 10.5006C73.6488 10.5006 75.1645 10.7724 76.4435 11.3159C77.7461 11.8594 78.8118 12.5802 79.6408 13.4782C80.4697 14.3525 81.0855 15.3805 81.4881 16.562C81.8907 17.7436 82.092 18.9724 82.092 20.2485V22.1626H67.2424C67.4081 23.4623 67.8818 24.4548 68.6634 25.1402C69.4449 25.8255 70.5225 26.1681 71.8962 26.1681C72.9383 26.1681 73.7791 25.9672 74.4185 25.5655C75.058 25.1402 75.6027 24.4548 76.0527 23.5096L81.5947 25.5655ZM71.7541 15.1796C70.5225 15.1796 69.5278 15.5104 68.7699 16.1721C68.0121 16.8338 67.5266 17.779 67.3134 19.0079H75.8395C75.7685 17.8736 75.4014 16.9519 74.7382 16.243C74.0988 15.5341 73.1041 15.1796 71.7541 15.1796Z" fill="black"/>
</svg>
