<svg width="61" height="24" viewBox="0 0 61 24" fill="none" xmlns="http://www.w3.org/2000/svg">
<path d="M9.49562 23.0698C7.9013 23.0698 6.50628 22.8186 5.31054 22.316C4.1148 21.7961 3.12701 21.0943 2.34719 20.2105C1.58469 19.3267 1.00415 18.2955 0.605566 17.1171C0.224316 15.9214 0.0336914 14.6563 0.0336914 13.322C0.0336914 12.0049 0.241646 10.7572 0.657555 9.57878C1.09079 8.38304 1.70599 7.34327 2.50315 6.45946C3.31764 5.57566 4.32275 4.87381 5.51849 4.35392C6.71423 3.83404 8.06594 3.5741 9.57361 3.5741C11.1679 3.5741 12.563 3.83404 13.7587 4.35392C14.9718 4.85648 15.9682 5.54966 16.748 6.43347C17.5452 7.31728 18.1431 8.35705 18.5416 9.55279C18.9402 10.7312 19.1395 11.9876 19.1395 13.322C19.1395 14.6563 18.9316 15.9214 18.5156 17.1171C18.1171 18.2955 17.5105 19.3267 16.696 20.2105C15.8989 21.0943 14.8938 21.7961 13.6807 22.316C12.4676 22.8186 11.0726 23.0698 9.49562 23.0698ZM9.54761 18.9107C11.038 18.9107 12.1644 18.4168 12.9269 17.4291C13.6894 16.4413 14.0706 15.0722 14.0706 13.322C14.0706 11.5544 13.6894 10.1767 12.9269 9.18887C12.1644 8.18375 11.0553 7.6812 9.5996 7.6812C8.17858 7.6812 7.06949 8.18375 6.27233 9.18887C5.4925 10.194 5.10258 11.5717 5.10258 13.322C5.10258 15.0376 5.4665 16.398 6.19434 17.4031C6.92218 18.4082 8.03994 18.9107 9.54761 18.9107Z" fill="#FAAF60"/>
<path d="M9.49562 23.0698C7.9013 23.0698 6.50628 22.8186 5.31054 22.316C4.1148 21.7961 3.12701 21.0943 2.34719 20.2105C1.58469 19.3267 1.00415 18.2955 0.605566 17.1171C0.224316 15.9214 0.0336914 14.6563 0.0336914 13.322C0.0336914 12.0049 0.241646 10.7572 0.657555 9.57878C1.09079 8.38304 1.70599 7.34327 2.50315 6.45946C3.31764 5.57566 4.32275 4.87381 5.51849 4.35392C6.71423 3.83404 8.06594 3.5741 9.57361 3.5741C11.1679 3.5741 12.563 3.83404 13.7587 4.35392C14.9718 4.85648 15.9682 5.54966 16.748 6.43347C17.5452 7.31728 18.1431 8.35705 18.5416 9.55279C18.9402 10.7312 19.1395 11.9876 19.1395 13.322C19.1395 14.6563 18.9316 15.9214 18.5156 17.1171C18.1171 18.2955 17.5105 19.3267 16.696 20.2105C15.8989 21.0943 14.8938 21.7961 13.6807 22.316C12.4676 22.8186 11.0726 23.0698 9.49562 23.0698ZM9.54761 18.9107C11.038 18.9107 12.1644 18.4168 12.9269 17.4291C13.6894 16.4413 14.0706 15.0722 14.0706 13.322C14.0706 11.5544 13.6894 10.1767 12.9269 9.18887C12.1644 8.18375 11.0553 7.6812 9.5996 7.6812C8.17858 7.6812 7.06949 8.18375 6.27233 9.18887C5.4925 10.194 5.10258 11.5717 5.10258 13.322C5.10258 15.0376 5.4665 16.398 6.19434 17.4031C6.92218 18.4082 8.03994 18.9107 9.54761 18.9107Z" fill="#FAAF60"/>
<path d="M36.4889 15.4275C36.4889 16.6406 36.3329 17.7237 36.021 18.6768C35.7091 19.6126 35.2758 20.4011 34.7213 21.0423C34.1841 21.6661 33.5342 22.1427 32.7717 22.472C32.0092 22.8012 31.186 22.9659 30.3022 22.9659C29.0718 22.9659 28.0927 22.6713 27.3649 22.082C26.6544 21.4928 26.1085 20.7217 25.7272 19.7686V22.8099H21.0483V2.11841H25.7532V11.4244C26.2038 10.3326 26.8363 9.50946 27.6508 8.95492C28.4653 8.38304 29.4531 8.09711 30.6142 8.09711C31.446 8.09711 32.2172 8.24441 32.9277 8.53901C33.6555 8.83361 34.2794 9.28418 34.7993 9.89071C35.3365 10.4799 35.7524 11.2424 36.047 12.1782C36.3416 13.0967 36.4889 14.1798 36.4889 15.4275ZM28.6126 19.3786C29.7217 19.3786 30.5189 19.032 31.0041 18.3389C31.4893 17.6457 31.7319 16.7099 31.7319 15.5315C31.7319 14.3184 31.4893 13.3566 31.0041 12.6461C30.5189 11.9356 29.7217 11.5803 28.6126 11.5803C27.5209 11.5803 26.7237 11.9443 26.2211 12.6721C25.7359 13.3826 25.4846 14.3357 25.4673 15.5315C25.4673 16.7272 25.7013 17.6717 26.1691 18.3649C26.6544 19.0407 27.4689 19.3786 28.6126 19.3786Z" fill="#FAAF60"/>
<path d="M36.4889 15.4275C36.4889 16.6406 36.3329 17.7237 36.021 18.6768C35.7091 19.6126 35.2758 20.4011 34.7213 21.0423C34.1841 21.6661 33.5342 22.1427 32.7717 22.472C32.0092 22.8012 31.186 22.9659 30.3022 22.9659C29.0718 22.9659 28.0927 22.6713 27.3649 22.082C26.6544 21.4928 26.1085 20.7217 25.7272 19.7686V22.8099H21.0483V2.11841H25.7532V11.4244C26.2038 10.3326 26.8363 9.50946 27.6508 8.95492C28.4653 8.38304 29.4531 8.09711 30.6142 8.09711C31.446 8.09711 32.2172 8.24441 32.9277 8.53901C33.6555 8.83361 34.2794 9.28418 34.7993 9.89071C35.3365 10.4799 35.7524 11.2424 36.047 12.1782C36.3416 13.0967 36.4889 14.1798 36.4889 15.4275ZM28.6126 19.3786C29.7217 19.3786 30.5189 19.032 31.0041 18.3389C31.4893 17.6457 31.7319 16.7099 31.7319 15.5315C31.7319 14.3184 31.4893 13.3566 31.0041 12.6461C30.5189 11.9356 29.7217 11.5803 28.6126 11.5803C27.5209 11.5803 26.7237 11.9443 26.2211 12.6721C25.7359 13.3826 25.4846 14.3357 25.4673 15.5315C25.4673 16.7272 25.7013 17.6717 26.1691 18.3649C26.6544 19.0407 27.4689 19.3786 28.6126 19.3786Z" fill="#FAAF60"/>
<path d="M37.7732 3.83404C37.7732 2.98489 38.0244 2.29171 38.527 1.75449C39.0296 1.21728 39.7487 0.948669 40.6845 0.948669C41.5857 0.948669 42.2875 1.21728 42.7901 1.75449C43.2926 2.29171 43.5439 2.98489 43.5439 3.83404C43.5439 4.64853 43.284 5.31571 42.7641 5.8356C42.2615 6.35549 41.5683 6.61543 40.6845 6.61543C39.7487 6.61543 39.0296 6.35549 38.527 5.8356C38.0244 5.31571 37.7732 4.64853 37.7732 3.83404ZM42.972 8.25307V22.8099H38.2411V8.25307H42.972Z" fill="#FAAF60"/>
<path d="M37.7732 3.83404C37.7732 2.98489 38.0244 2.29171 38.527 1.75449C39.0296 1.21728 39.7487 0.948669 40.6845 0.948669C41.5857 0.948669 42.2875 1.21728 42.7901 1.75449C43.2926 2.29171 43.5439 2.98489 43.5439 3.83404C43.5439 4.64853 43.284 5.31571 42.7641 5.8356C42.2615 6.35549 41.5683 6.61543 40.6845 6.61543C39.7487 6.61543 39.0296 6.35549 38.527 5.8356C38.0244 5.31571 37.7732 4.64853 37.7732 3.83404ZM42.972 8.25307V22.8099H38.2411V8.25307H42.972Z" fill="#FAAF60"/>
<path d="M59.7036 19.0147C59.0971 20.2105 58.2133 21.1896 57.0522 21.9521C55.8911 22.6972 54.3835 23.0698 52.5292 23.0698C51.2122 23.0698 50.0597 22.8879 49.072 22.524C48.1015 22.1427 47.287 21.6228 46.6285 20.9643C45.9873 20.3058 45.5021 19.5259 45.1728 18.6248C44.8609 17.7063 44.7049 16.7186 44.7049 15.6615C44.7049 14.6043 44.8782 13.6079 45.2248 12.6721C45.5887 11.7363 46.0999 10.9218 46.7585 10.2286C47.4343 9.53546 48.2661 8.98958 49.2539 8.591C50.2417 8.17509 51.3595 7.96713 52.6072 7.96713C53.8896 7.96713 54.9987 8.16642 55.9345 8.565C56.8876 8.96358 57.6674 9.49213 58.2739 10.1507C58.8805 10.7919 59.3311 11.5457 59.6257 12.4122C59.9203 13.2786 60.0676 14.1798 60.0676 15.1156V16.5193H49.2019C49.3232 17.4724 49.6698 18.2002 50.2417 18.7028C50.8136 19.2053 51.6021 19.4566 52.6072 19.4566C53.3697 19.4566 53.9849 19.3093 54.4528 19.0147C54.9207 18.7028 55.3193 18.2002 55.6485 17.507L59.7036 19.0147ZM52.5032 11.3984C51.6021 11.3984 50.8742 11.641 50.3197 12.1262C49.7651 12.6115 49.4099 13.3046 49.2539 14.2058H55.4926C55.4406 13.374 55.172 12.6981 54.6867 12.1782C54.2188 11.6583 53.491 11.3984 52.5032 11.3984Z" fill="#FAAF60"/>
<path d="M59.7036 19.0147C59.0971 20.2105 58.2133 21.1896 57.0522 21.9521C55.8911 22.6972 54.3835 23.0698 52.5292 23.0698C51.2122 23.0698 50.0597 22.8879 49.072 22.524C48.1015 22.1427 47.287 21.6228 46.6285 20.9643C45.9873 20.3058 45.5021 19.5259 45.1728 18.6248C44.8609 17.7063 44.7049 16.7186 44.7049 15.6615C44.7049 14.6043 44.8782 13.6079 45.2248 12.6721C45.5887 11.7363 46.0999 10.9218 46.7585 10.2286C47.4343 9.53546 48.2661 8.98958 49.2539 8.591C50.2417 8.17509 51.3595 7.96713 52.6072 7.96713C53.8896 7.96713 54.9987 8.16642 55.9345 8.565C56.8876 8.96358 57.6674 9.49213 58.2739 10.1507C58.8805 10.7919 59.3311 11.5457 59.6257 12.4122C59.9203 13.2786 60.0676 14.1798 60.0676 15.1156V16.5193H49.2019C49.3232 17.4724 49.6698 18.2002 50.2417 18.7028C50.8136 19.2053 51.6021 19.4566 52.6072 19.4566C53.3697 19.4566 53.9849 19.3093 54.4528 19.0147C54.9207 18.7028 55.3193 18.2002 55.6485 17.507L59.7036 19.0147ZM52.5032 11.3984C51.6021 11.3984 50.8742 11.641 50.3197 12.1262C49.7651 12.6115 49.4099 13.3046 49.2539 14.2058H55.4926C55.4406 13.374 55.172 12.6981 54.6867 12.1782C54.2188 11.6583 53.491 11.3984 52.5032 11.3984Z" fill="#FAAF60"/>
</svg>
