<svg width="40" height="40" viewBox="0 0 40 40" fill="none" xmlns="http://www.w3.org/2000/svg">
<g id="protection (1) 1">
<g id="Vector">
<path d="M9.45312 29.4531C9.45312 34.8726 13.5617 39.4156 18.8281 40V35.1109C17.4641 34.6281 16.4844 33.3242 16.4844 31.7968H18.8281C18.8281 32.4429 19.3539 32.9687 20 32.9687C20.6461 32.9687 21.1719 32.4429 21.1719 31.7968C21.1719 31.1507 20.6461 30.625 20 30.625C18.0617 30.625 16.4844 29.0476 16.4844 27.1093C16.4844 25.582 17.4641 24.2781 18.8281 23.7953V18.9711C13.5617 19.5554 9.45312 24.0336 9.45312 29.4531Z" fill="#FAAF60"/>
<path d="M9.45312 29.4531C9.45312 34.8726 13.5617 39.4156 18.8281 40V35.1109C17.4641 34.6281 16.4844 33.3242 16.4844 31.7968H18.8281C18.8281 32.4429 19.3539 32.9687 20 32.9687C20.6461 32.9687 21.1719 32.4429 21.1719 31.7968C21.1719 31.1507 20.6461 30.625 20 30.625C18.0617 30.625 16.4844 29.0476 16.4844 27.1093C16.4844 25.582 17.4641 24.2781 18.8281 23.7953V18.9711C13.5617 19.5554 9.45312 24.0336 9.45312 29.4531Z" fill="#FAAF60"/>
</g>
<g id="Vector_2">
<path d="M23.5156 27.1093H21.1719C21.1719 26.4633 20.6461 25.9375 20 25.9375C19.3539 25.9375 18.8281 26.4633 18.8281 27.1093C18.8281 27.7554 19.3539 28.2812 20 28.2812C21.9383 28.2812 23.5156 29.8586 23.5156 31.7968C23.5156 33.3242 22.5359 34.6281 21.1719 35.1109V40C26.4383 39.4156 30.5469 34.8726 30.5469 29.4531C30.5469 24.0336 26.4383 19.5554 21.1719 18.9711V23.7953C22.5359 24.2781 23.5156 25.582 23.5156 27.1093Z" fill="#FAAF60"/>
<path d="M23.5156 27.1093H21.1719C21.1719 26.4633 20.6461 25.9375 20 25.9375C19.3539 25.9375 18.8281 26.4633 18.8281 27.1093C18.8281 27.7554 19.3539 28.2812 20 28.2812C21.9383 28.2812 23.5156 29.8586 23.5156 31.7968C23.5156 33.3242 22.5359 34.6281 21.1719 35.1109V40C26.4383 39.4156 30.5469 34.8726 30.5469 29.4531C30.5469 24.0336 26.4383 19.5554 21.1719 18.9711V23.7953C22.5359 24.2781 23.5156 25.582 23.5156 27.1093Z" fill="#FAAF60"/>
</g>
<path id="Vector_3" d="M20 0C11.6 0 4.76562 6.83438 4.76562 15.2344V17.5781H7.10938V15.6586C7.71563 15.0133 8.55156 14.6484 9.45312 14.6484C10.3547 14.6484 11.1906 15.0125 11.7969 15.6586V17.5781H14.1406V15.6586C14.7469 15.0125 15.5828 14.6484 16.4844 14.6484C17.3859 14.6484 18.2219 15.0125 18.8281 15.6586V18.9711C19.2125 18.9281 19.6039 18.9062 20 18.9062C20.3961 18.9062 20.7875 18.9281 21.1719 18.9711V15.6586C21.7781 15.0125 22.6141 14.6484 23.5156 14.6484C24.4172 14.6484 25.2531 15.0125 25.8594 15.6586V17.5781H28.2031V15.6586C28.8094 15.0125 29.6453 14.6484 30.5469 14.6484C31.4484 14.6484 32.2844 15.0133 32.8906 15.6586V17.5781H35.2344V15.2344C35.2344 6.83438 28.4 0 20 0Z" fill="#EE885A"/>
</g>
</svg>
