<svg width="40" height="40" viewBox="0 0 40 40" fill="none" xmlns="http://www.w3.org/2000/svg">
<path d="M19.8828 12.3633C15.6423 12.3633 12.1924 15.813 12.1924 20.0538C12.1924 24.2945 15.6423 27.7442 19.8828 27.7442C24.1235 27.7442 27.5733 24.2945 27.5733 20.0538C27.5733 15.813 24.1235 12.3633 19.8828 12.3633ZM18.7842 24.9097L14.7192 20.8228L16.2573 19.2847L18.7842 21.7896L23.5085 17.0875L25.0464 18.6255L18.7842 24.9097ZM19.8828 12.3633C15.6423 12.3633 12.1924 15.813 12.1924 20.0538C12.1924 24.2945 15.6423 27.7442 19.8828 27.7442C24.1235 27.7442 27.5733 24.2945 27.5733 20.0538C27.5733 15.813 24.1235 12.3633 19.8828 12.3633ZM18.7842 24.9097L14.7192 20.8228L16.2573 19.2847L18.7842 21.7896L23.5085 17.0875L25.0464 18.6255L18.7842 24.9097ZM19.8828 1.23053L3.40332 8.19563V14.2969C3.40332 24.8658 9.7097 34.3797 19.4434 38.5545L19.8828 38.7305L20.3223 38.5545C30.0562 34.3797 36.3623 24.8658 36.3623 14.2969V8.19563L19.8828 1.23053ZM19.8828 29.9415C14.4338 29.9415 9.99512 25.503 9.99512 20.0538C9.99512 14.6043 14.4338 10.1661 19.8828 10.1661C25.332 10.1661 29.7705 14.6043 29.7705 20.0538C29.7705 25.503 25.332 29.9415 19.8828 29.9415ZM19.8828 12.3633C15.6423 12.3633 12.1924 15.813 12.1924 20.0538C12.1924 24.2945 15.6423 27.7442 19.8828 27.7442C24.1235 27.7442 27.5733 24.2945 27.5733 20.0538C27.5733 15.813 24.1235 12.3633 19.8828 12.3633ZM18.7842 24.9097L14.7192 20.8228L16.2573 19.2847L18.7842 21.7896L23.5085 17.0875L25.0464 18.6255L18.7842 24.9097ZM19.8828 12.3633C15.6423 12.3633 12.1924 15.813 12.1924 20.0538C12.1924 24.2945 15.6423 27.7442 19.8828 27.7442C24.1235 27.7442 27.5733 24.2945 27.5733 20.0538C27.5733 15.813 24.1235 12.3633 19.8828 12.3633ZM18.7842 24.9097L14.7192 20.8228L16.2573 19.2847L18.7842 21.7896L23.5085 17.0875L25.0464 18.6255L18.7842 24.9097ZM19.8828 12.3633C15.6423 12.3633 12.1924 15.813 12.1924 20.0538C12.1924 24.2945 15.6423 27.7442 19.8828 27.7442C24.1235 27.7442 27.5733 24.2945 27.5733 20.0538C27.5733 15.813 24.1235 12.3633 19.8828 12.3633ZM18.7842 24.9097L14.7192 20.8228L16.2573 19.2847L18.7842 21.7896L23.5085 17.0875L25.0464 18.6255L18.7842 24.9097Z" fill="#EE885A"/>
<path d="M19.8999 12.4C18.377 12.4 16.8883 12.8516 15.6221 13.6976C14.3558 14.5437 13.3689 15.7463 12.7861 17.1533C12.2033 18.5603 12.0508 20.1085 12.3479 21.6022C12.645 23.0958 13.3784 24.4678 14.4553 25.5447C15.5321 26.6215 16.9041 27.3549 18.3978 27.652C19.8914 27.9491 21.4396 27.7966 22.8466 27.2138C24.2536 26.631 25.4562 25.6441 26.3023 24.3779C27.1484 23.1116 27.6 21.6229 27.6 20.1C27.5973 18.0586 26.7852 16.1016 25.3418 14.6582C23.8983 13.2147 21.9413 12.4026 19.8999 12.4ZM18.7985 24.9663L14.7333 20.871L16.2853 19.339L18.8085 21.8422L23.5447 17.1361L25.0867 18.6781L18.7985 24.9663Z" fill="#FAAF60"/>
<path d="M19.8999 12.4C18.377 12.4 16.8883 12.8516 15.6221 13.6976C14.3558 14.5437 13.3689 15.7463 12.7861 17.1533C12.2033 18.5603 12.0508 20.1085 12.3479 21.6022C12.645 23.0958 13.3784 24.4678 14.4553 25.5447C15.5321 26.6215 16.9041 27.3549 18.3978 27.652C19.8914 27.9491 21.4396 27.7966 22.8466 27.2138C24.2536 26.631 25.4562 25.6441 26.3023 24.3779C27.1484 23.1116 27.6 21.6229 27.6 20.1C27.5973 18.0586 26.7852 16.1016 25.3418 14.6582C23.8983 13.2147 21.9413 12.4026 19.8999 12.4ZM18.7985 24.9663L14.7333 20.871L16.2853 19.339L18.8085 21.8422L23.5447 17.1361L25.0867 18.6781L18.7985 24.9663Z" fill="#FAE5CD"/>
</svg>
