<svg width="20" height="20" viewBox="0 0 20 20" fill="none" xmlns="http://www.w3.org/2000/svg">
<g clip-path="url(#clip0_3211_21830)">
<path d="M9.94092 6.18166C7.82067 6.18166 6.0957 7.90652 6.0957 10.0269C6.0957 12.1472 7.82067 13.8721 9.94092 13.8721C12.0613 13.8721 13.7861 12.1472 13.7861 10.0269C13.7861 7.90652 12.0613 6.18166 9.94092 6.18166ZM9.3916 12.4549L7.35913 10.4114L8.12818 9.64235L9.3916 10.8948L11.7538 8.54372L12.5227 9.31277L9.3916 12.4549ZM9.94092 6.18166C7.82067 6.18166 6.0957 7.90652 6.0957 10.0269C6.0957 12.1472 7.82067 13.8721 9.94092 13.8721C12.0613 13.8721 13.7861 12.1472 13.7861 10.0269C13.7861 7.90652 12.0613 6.18166 9.94092 6.18166ZM9.3916 12.4549L7.35913 10.4114L8.12818 9.64235L9.3916 10.8948L11.7538 8.54372L12.5227 9.31277L9.3916 12.4549ZM9.94092 0.615257L1.70117 4.09781V7.14846C1.70117 12.4329 4.85436 17.1898 9.72119 19.2772L9.94092 19.3653L10.1606 19.2772C15.0276 17.1898 18.1807 12.4329 18.1807 7.14846V4.09781L9.94092 0.615257ZM9.94092 14.9707C7.21642 14.9707 4.99707 12.7515 4.99707 10.0269C4.99707 7.30215 7.21642 5.08303 9.94092 5.08303C12.6655 5.08303 14.8848 7.30215 14.8848 10.0269C14.8848 12.7515 12.6655 14.9707 9.94092 14.9707ZM9.94092 6.18166C7.82067 6.18166 6.0957 7.90652 6.0957 10.0269C6.0957 12.1472 7.82067 13.8721 9.94092 13.8721C12.0613 13.8721 13.7861 12.1472 13.7861 10.0269C13.7861 7.90652 12.0613 6.18166 9.94092 6.18166ZM9.3916 12.4549L7.35913 10.4114L8.12818 9.64235L9.3916 10.8948L11.7538 8.54372L12.5227 9.31277L9.3916 12.4549ZM9.94092 6.18166C7.82067 6.18166 6.0957 7.90652 6.0957 10.0269C6.0957 12.1472 7.82067 13.8721 9.94092 13.8721C12.0613 13.8721 13.7861 12.1472 13.7861 10.0269C13.7861 7.90652 12.0613 6.18166 9.94092 6.18166ZM9.3916 12.4549L7.35913 10.4114L8.12818 9.64235L9.3916 10.8948L11.7538 8.54372L12.5227 9.31277L9.3916 12.4549ZM9.94092 6.18166C7.82067 6.18166 6.0957 7.90652 6.0957 10.0269C6.0957 12.1472 7.82067 13.8721 9.94092 13.8721C12.0613 13.8721 13.7861 12.1472 13.7861 10.0269C13.7861 7.90652 12.0613 6.18166 9.94092 6.18166ZM9.3916 12.4549L7.35913 10.4114L8.12818 9.64235L9.3916 10.8948L11.7538 8.54372L12.5227 9.31277L9.3916 12.4549Z" fill="#FAAF60"/>
<path d="M9.94092 6.18166C7.82067 6.18166 6.0957 7.90652 6.0957 10.0269C6.0957 12.1472 7.82067 13.8721 9.94092 13.8721C12.0613 13.8721 13.7861 12.1472 13.7861 10.0269C13.7861 7.90652 12.0613 6.18166 9.94092 6.18166ZM9.3916 12.4549L7.35913 10.4114L8.12818 9.64235L9.3916 10.8948L11.7538 8.54372L12.5227 9.31277L9.3916 12.4549ZM9.94092 6.18166C7.82067 6.18166 6.0957 7.90652 6.0957 10.0269C6.0957 12.1472 7.82067 13.8721 9.94092 13.8721C12.0613 13.8721 13.7861 12.1472 13.7861 10.0269C13.7861 7.90652 12.0613 6.18166 9.94092 6.18166ZM9.3916 12.4549L7.35913 10.4114L8.12818 9.64235L9.3916 10.8948L11.7538 8.54372L12.5227 9.31277L9.3916 12.4549ZM9.94092 0.615257L1.70117 4.09781V7.14846C1.70117 12.4329 4.85436 17.1898 9.72119 19.2772L9.94092 19.3653L10.1606 19.2772C15.0276 17.1898 18.1807 12.4329 18.1807 7.14846V4.09781L9.94092 0.615257ZM9.94092 14.9707C7.21642 14.9707 4.99707 12.7515 4.99707 10.0269C4.99707 7.30215 7.21642 5.08303 9.94092 5.08303C12.6655 5.08303 14.8848 7.30215 14.8848 10.0269C14.8848 12.7515 12.6655 14.9707 9.94092 14.9707ZM9.94092 6.18166C7.82067 6.18166 6.0957 7.90652 6.0957 10.0269C6.0957 12.1472 7.82067 13.8721 9.94092 13.8721C12.0613 13.8721 13.7861 12.1472 13.7861 10.0269C13.7861 7.90652 12.0613 6.18166 9.94092 6.18166ZM9.3916 12.4549L7.35913 10.4114L8.12818 9.64235L9.3916 10.8948L11.7538 8.54372L12.5227 9.31277L9.3916 12.4549ZM9.94092 6.18166C7.82067 6.18166 6.0957 7.90652 6.0957 10.0269C6.0957 12.1472 7.82067 13.8721 9.94092 13.8721C12.0613 13.8721 13.7861 12.1472 13.7861 10.0269C13.7861 7.90652 12.0613 6.18166 9.94092 6.18166ZM9.3916 12.4549L7.35913 10.4114L8.12818 9.64235L9.3916 10.8948L11.7538 8.54372L12.5227 9.31277L9.3916 12.4549ZM9.94092 6.18166C7.82067 6.18166 6.0957 7.90652 6.0957 10.0269C6.0957 12.1472 7.82067 13.8721 9.94092 13.8721C12.0613 13.8721 13.7861 12.1472 13.7861 10.0269C13.7861 7.90652 12.0613 6.18166 9.94092 6.18166ZM9.3916 12.4549L7.35913 10.4114L8.12818 9.64235L9.3916 10.8948L11.7538 8.54372L12.5227 9.31277L9.3916 12.4549Z" fill="#FAE5CD"/>
<path d="M9.94092 6.18166C7.82067 6.18166 6.09571 7.90652 6.09571 10.0269C6.09571 12.1472 7.82067 13.8721 9.94092 13.8721C12.0613 13.8721 13.7861 12.1472 13.7861 10.0269C13.7861 7.90652 12.0613 6.18166 9.94092 6.18166ZM9.3916 12.4549L7.35913 10.4114L8.12818 9.64235L9.3916 10.8948L11.7538 8.54372L12.5227 9.31277L9.3916 12.4549ZM9.94092 6.18166C7.82067 6.18166 6.09571 7.90652 6.09571 10.0269C6.09571 12.1472 7.82067 13.8721 9.94092 13.8721C12.0613 13.8721 13.7861 12.1472 13.7861 10.0269C13.7861 7.90652 12.0613 6.18166 9.94092 6.18166ZM9.3916 12.4549L7.35913 10.4114L8.12818 9.64235L9.3916 10.8948L11.7538 8.54372L12.5227 9.31277L9.3916 12.4549ZM9.94092 0.615257L1.70117 4.09781V7.14846C1.70117 12.4329 4.85436 17.1898 9.7212 19.2772L9.94092 19.3653L10.1606 19.2772C15.0276 17.1898 18.1807 12.4329 18.1807 7.14846V4.09781L9.94092 0.615257ZM9.94092 14.9707C7.21643 14.9707 4.99707 12.7515 4.99707 10.0269C4.99707 7.30215 7.21643 5.08303 9.94092 5.08303C12.6655 5.08303 14.8848 7.30215 14.8848 10.0269C14.8848 12.7515 12.6655 14.9707 9.94092 14.9707ZM9.94092 6.18166C7.82067 6.18166 6.09571 7.90652 6.09571 10.0269C6.09571 12.1472 7.82067 13.8721 9.94092 13.8721C12.0613 13.8721 13.7861 12.1472 13.7861 10.0269C13.7861 7.90652 12.0613 6.18166 9.94092 6.18166ZM9.3916 12.4549L7.35913 10.4114L8.12818 9.64235L9.3916 10.8948L11.7538 8.54372L12.5227 9.31277L9.3916 12.4549ZM9.94092 6.18166C7.82067 6.18166 6.09571 7.90652 6.09571 10.0269C6.09571 12.1472 7.82067 13.8721 9.94092 13.8721C12.0613 13.8721 13.7861 12.1472 13.7861 10.0269C13.7861 7.90652 12.0613 6.18166 9.94092 6.18166ZM9.3916 12.4549L7.35913 10.4114L8.12818 9.64235L9.3916 10.8948L11.7538 8.54372L12.5227 9.31277L9.3916 12.4549ZM9.94092 6.18166C7.82067 6.18166 6.09571 7.90652 6.09571 10.0269C6.09571 12.1472 7.82067 13.8721 9.94092 13.8721C12.0613 13.8721 13.7861 12.1472 13.7861 10.0269C13.7861 7.90652 12.0613 6.18166 9.94092 6.18166ZM9.3916 12.4549L7.35913 10.4114L8.12818 9.64235L9.3916 10.8948L11.7538 8.54372L12.5227 9.31277L9.3916 12.4549Z" fill="#EE885A"/>
<path d="M9.94961 6.19998C9.18815 6.19998 8.44381 6.42578 7.81068 6.84882C7.17755 7.27187 6.68408 7.87315 6.39268 8.57665C6.10128 9.28015 6.02503 10.0543 6.17359 10.8011C6.32214 11.5479 6.68883 12.2339 7.22726 12.7723C7.76569 13.3108 8.45168 13.6775 9.19851 13.826C9.94534 13.9746 10.7194 13.8983 11.4229 13.6069C12.1264 13.3155 12.7277 12.8221 13.1508 12.1889C13.5738 11.5558 13.7996 10.8114 13.7996 10.05C13.7983 9.02931 13.3922 8.05081 12.6705 7.32908C11.9488 6.60736 10.9703 6.20131 9.94961 6.19998ZM9.39891 12.4831L7.36627 10.4355L8.14227 9.66949L9.4039 10.9211L11.772 8.56806L12.543 9.33906L9.39891 12.4831Z" fill="#FAAF60"/>
<path d="M9.94961 6.19998C9.18815 6.19998 8.44381 6.42578 7.81068 6.84882C7.17755 7.27187 6.68408 7.87315 6.39268 8.57665C6.10128 9.28015 6.02503 10.0543 6.17359 10.8011C6.32214 11.5479 6.68883 12.2339 7.22726 12.7723C7.76569 13.3108 8.45168 13.6775 9.19851 13.826C9.94534 13.9746 10.7194 13.8983 11.4229 13.6069C12.1264 13.3155 12.7277 12.8221 13.1508 12.1889C13.5738 11.5558 13.7996 10.8114 13.7996 10.05C13.7983 9.02931 13.3922 8.05081 12.6705 7.32908C11.9488 6.60736 10.9703 6.20131 9.94961 6.19998ZM9.39891 12.4831L7.36627 10.4355L8.14227 9.66949L9.4039 10.9211L11.772 8.56806L12.543 9.33906L9.39891 12.4831Z" fill="#FAE5CD"/>
</g>
<defs>
<clipPath id="clip0_3211_21830">
<rect width="20" height="20" fill="white"/>
</clipPath>
</defs>
</svg>
