<?xml version="1.0" encoding="UTF-8" standalone="no"?>
<!DOCTYPE svg PUBLIC "-//W3C//DTD SVG 1.1//EN" "http://www.w3.org/Graphics/SVG/1.1/DTD/svg11.dtd">
<svg width="100%" height="100%" viewBox="0 0 27 30" version="1.1" xmlns="http://www.w3.org/2000/svg" xmlns:xlink="http://www.w3.org/1999/xlink" xml:space="preserve" xmlns:serif="http://www.serif.com/" style="fill-rule:evenodd;clip-rule:evenodd;stroke-linejoin:round;stroke-miterlimit:2;">
    <g transform="matrix(1,0,0,1,-10.7227,-8.98441)">
        <path d="M23.906,17.891C20.514,17.891 17.754,20.65 17.754,24.043C17.754,27.436 20.514,30.195 23.906,30.195C27.299,30.195 30.059,27.436 30.059,24.043C30.059,20.65 27.299,17.891 23.906,17.891ZM23.027,27.928L19.775,24.658L21.006,23.428L23.027,25.432L26.807,21.67L28.037,22.9L23.027,27.928ZM23.906,17.891C20.514,17.891 17.754,20.65 17.754,24.043C17.754,27.436 20.514,30.195 23.906,30.195C27.299,30.195 30.059,27.436 30.059,24.043C30.059,20.65 27.299,17.891 23.906,17.891ZM23.027,27.928L19.775,24.658L21.006,23.428L23.027,25.432L26.807,21.67L28.037,22.9L23.027,27.928ZM23.906,8.984L10.723,14.557L10.723,19.438C10.723,27.893 15.768,35.504 23.555,38.844L23.906,38.984L24.258,38.844C32.045,35.504 37.09,27.893 37.09,19.438L37.09,14.557L23.906,8.984ZM23.906,31.953C19.547,31.953 15.996,28.402 15.996,24.043C15.996,19.683 19.547,16.133 23.906,16.133C28.266,16.133 31.816,19.683 31.816,24.043C31.816,28.402 28.266,31.953 23.906,31.953ZM23.906,17.891C20.514,17.891 17.754,20.65 17.754,24.043C17.754,27.436 20.514,30.195 23.906,30.195C27.299,30.195 30.059,27.436 30.059,24.043C30.059,20.65 27.299,17.891 23.906,17.891ZM23.027,27.928L19.775,24.658L21.006,23.428L23.027,25.432L26.807,21.67L28.037,22.9L23.027,27.928ZM23.906,17.891C20.514,17.891 17.754,20.65 17.754,24.043C17.754,27.436 20.514,30.195 23.906,30.195C27.299,30.195 30.059,27.436 30.059,24.043C30.059,20.65 27.299,17.891 23.906,17.891ZM23.027,27.928L19.775,24.658L21.006,23.428L23.027,25.432L26.807,21.67L28.037,22.9L23.027,27.928ZM23.906,17.891C20.514,17.891 17.754,20.65 17.754,24.043C17.754,27.436 20.514,30.195 23.906,30.195C27.299,30.195 30.059,27.436 30.059,24.043C30.059,20.65 27.299,17.891 23.906,17.891ZM23.027,27.928L19.775,24.658L21.006,23.428L23.027,25.432L26.807,21.67L28.037,22.9L23.027,27.928Z" style="fill:rgb(255,230,0);fill-rule:nonzero;"/>
        <path d="M23.92,17.92C22.701,17.92 21.511,18.281 20.498,18.958C19.485,19.635 18.695,20.597 18.229,21.723C17.762,22.848 17.64,24.087 17.878,25.282C18.116,26.477 18.703,27.574 19.564,28.436C20.426,29.297 21.523,29.884 22.718,30.122C23.913,30.359 25.151,30.237 26.277,29.771C27.403,29.305 28.365,28.515 29.042,27.502C29.719,26.489 30.08,25.298 30.08,24.08C30.078,22.447 29.428,20.881 28.273,19.727C27.119,18.572 25.553,17.922 23.92,17.92ZM23.039,27.973L19.786,24.697L21.028,23.471L23.047,25.474L26.836,21.709L28.069,22.943L23.039,27.973Z" style="fill:white;fill-rule:nonzero;"/>
    </g>
</svg>
