<svg width="40" height="40" viewBox="0 0 40 40" fill="none" xmlns="http://www.w3.org/2000/svg">
<path d="M11 11L7.59411 11.2563C6.6464 11.3277 5.80234 11.8116 5.27822 12.584L1.3503 18.3716C0.952798 18.9573 0.889607 19.6903 1.18115 20.3324C1.47276 20.9745 2.07205 21.422 2.7842 21.5295L5.90269 22C6.63219 18.2284 8.37852 14.4661 11 11Z" fill="#FAAF60"/>
<path d="M11 11L7.59411 11.2563C6.6464 11.3277 5.80234 11.8116 5.27822 12.584L1.3503 18.3716C0.952798 18.9573 0.889607 19.6903 1.18115 20.3324C1.47276 20.9745 2.07205 21.422 2.7842 21.5295L5.90269 22C6.63219 18.2284 8.37852 14.4661 11 11Z" fill="#FAAF60"/>
<path d="M18 34.0973L18.4706 37.2158C18.5781 37.928 19.0255 38.5273 19.6676 38.8188C19.9347 38.9401 20.2174 39 20.4988 39C20.894 39 21.2864 38.8818 21.6284 38.6496L27.4162 34.7218C28.1885 34.1976 28.6724 33.3535 28.7437 32.4059L29 29C25.5338 31.6216 21.7716 33.3679 18 34.0973Z" fill="#FAAF60"/>
<path d="M18 34.0973L18.4706 37.2158C18.5781 37.928 19.0255 38.5273 19.6676 38.8188C19.9347 38.9401 20.2174 39 20.4988 39C20.894 39 21.2864 38.8818 21.6284 38.6496L27.4162 34.7218C28.1885 34.1976 28.6724 33.3535 28.7437 32.4059L29 29C25.5338 31.6216 21.7716 33.3679 18 34.0973Z" fill="#FAAF60"/>
<path d="M17.0578 32C17.1648 32 17.2724 31.9912 17.3797 31.9733C18.9822 31.7054 20.5267 31.254 22 30.6632L9.3368 18C8.746 19.4733 8.29464 21.0178 8.02671 22.6203C7.92111 23.252 8.13298 23.8955 8.58579 24.3484L15.6516 31.4142C16.0276 31.7901 16.535 32 17.0578 32Z" fill="#EE885A"/>
<path d="M35.9571 17.9191C39.0017 12.033 39.1145 5.8128 38.9554 2.89559C38.9009 1.89603 38.104 1.09913 37.1044 1.04465C36.6294 1.01871 36.0664 1 35.4319 1C32.1699 1 27.0084 1.49408 22.0808 4.04287C18.1647 6.06845 13.0296 10.5286 10 16.39C10.0358 16.4179 10.0707 16.4476 10.1037 16.4805L23.5196 29.8964C23.5525 29.9293 23.5821 29.9642 23.6101 30C29.4715 26.9703 33.9316 21.8352 35.9571 17.9191ZM23.0272 9.06742C25.2066 6.88801 28.753 6.88778 30.9325 9.06742C31.9884 10.1232 32.5698 11.527 32.5698 13.0201C32.5698 14.5132 31.9884 15.917 30.9325 16.9728C29.8429 18.0624 28.4112 18.6073 26.9799 18.6075C25.5482 18.6075 24.1171 18.0627 23.0272 16.9728C21.9714 15.917 21.3899 14.5132 21.3899 13.0201C21.3899 11.527 21.9714 10.1232 23.0272 9.06742Z" fill="#FAAF60"/>
<path d="M35.9571 17.9191C39.0017 12.033 39.1145 5.8128 38.9554 2.89559C38.9009 1.89603 38.104 1.09913 37.1044 1.04465C36.6294 1.01871 36.0664 1 35.4319 1C32.1699 1 27.0084 1.49408 22.0808 4.04287C18.1647 6.06845 13.0296 10.5286 10 16.39C10.0358 16.4179 10.0707 16.4476 10.1037 16.4805L23.5196 29.8964C23.5525 29.9293 23.5821 29.9642 23.6101 30C29.4715 26.9703 33.9316 21.8352 35.9571 17.9191ZM23.0272 9.06742C25.2066 6.88801 28.753 6.88778 30.9325 9.06742C31.9884 10.1232 32.5698 11.527 32.5698 13.0201C32.5698 14.5132 31.9884 15.917 30.9325 16.9728C29.8429 18.0624 28.4112 18.6073 26.9799 18.6075C25.5482 18.6075 24.1171 18.0627 23.0272 16.9728C21.9714 15.917 21.3899 14.5132 21.3899 13.0201C21.3899 11.527 21.9714 10.1232 23.0272 9.06742Z" fill="#FAAF60"/>
<path d="M24.8787 15.1223C26.0483 16.2925 27.9517 16.2926 29.1213 15.1223C29.6879 14.5554 30 13.8017 30 13C30 12.1982 29.6879 11.4446 29.1213 10.8777C28.5365 10.2925 27.7683 10 27 10C26.2318 10 25.4635 10.2925 24.8787 10.8777C24.3121 11.4446 24 12.1982 24 13C24 13.8017 24.3121 14.5554 24.8787 15.1223Z" fill="#EE885A"/>
<path d="M2.13967 32C2.43134 32 2.72301 31.8888 2.94546 31.6662L6.6662 27.9455C7.11127 27.5004 7.11127 26.7789 6.6662 26.3338C6.22122 25.8887 5.4996 25.8887 5.05454 26.3338L1.3338 30.0545C0.888734 30.4996 0.888734 31.2211 1.3338 31.6662C1.55633 31.8887 1.848 32 2.13967 32Z" fill="#EE885A"/>
<path d="M9.68152 30.3185C9.25695 29.8938 8.56844 29.8938 8.14379 30.3185L1.31849 37.1438C0.893838 37.5685 0.893838 38.2569 1.31849 38.6816C1.53081 38.8939 1.8091 39 2.08739 39C2.36568 39 2.64397 38.8939 2.85622 38.6815L9.68145 31.8562C10.1062 31.4316 10.1062 30.7431 9.68152 30.3185Z" fill="#EE885A"/>
<path d="M12.0545 33.3338L8.3338 37.0545C7.88873 37.4996 7.88873 38.2211 8.3338 38.6662C8.55634 38.8887 8.84801 39 9.13961 39C9.4312 39 9.72295 38.8888 9.94541 38.6662L13.6662 34.9455C14.1113 34.5004 14.1113 33.7789 13.6662 33.3338C13.2212 32.8887 12.4996 32.8887 12.0545 33.3338Z" fill="#EE885A"/>
</svg>
