<?xml version="1.0" encoding="UTF-8" standalone="no"?>
<!DOCTYPE svg PUBLIC "-//W3C//DTD SVG 1.1//EN" "http://www.w3.org/Graphics/SVG/1.1/DTD/svg11.dtd">
<svg width="100%" height="100%" viewBox="0 0 28 18" version="1.1" xmlns="http://www.w3.org/2000/svg" xmlns:xlink="http://www.w3.org/1999/xlink" xml:space="preserve" xmlns:serif="http://www.serif.com/" style="fill-rule:evenodd;clip-rule:evenodd;stroke-linejoin:round;stroke-miterlimit:2;">
    <g transform="matrix(1,0,0,1,-20,-16)">
        <path d="M48,22C48,18.689 45.311,16 42,16L26,16C22.689,16 20,18.689 20,22L20,28C20,31.311 22.689,34 26,34L42,34C45.311,34 48,31.311 48,28L48,22Z" style="fill:rgb(51,51,51);"/>
        <path d="M38,28.134L41.221,25L38,21.866L38.89,21L43,25L38.89,29L38,28.134Z" style="fill:white;fill-rule:nonzero;"/>
        <path d="M30,21.866L26.779,25L30,28.134L29.11,29L25,25L29.11,21L30,21.866Z" style="fill:white;fill-rule:nonzero;"/>
    </g>
</svg>
