<svg width="40" height="40" viewBox="0 0 40 40" fill="none" xmlns="http://www.w3.org/2000/svg">
<path d="M9.23096 34.7734V39.9999H12.3079V34.7734L10.7694 35.5467L9.23096 34.7734Z" fill="#FAAF60"/>
<path d="M9.23096 34.7734V39.9999H12.3079V34.7734L10.7694 35.5467L9.23096 34.7734Z" fill="#FAAF60"/>
<path d="M29.2307 40C35.1682 40 39.9999 36.3196 39.9999 31.7969C39.9999 30.5698 39.6194 29.4159 38.9826 28.3695L29.2307 35.7977L23.9782 31.7969L26.1537 30.1398L29.2307 32.4835L37.2493 26.3755C35.2752 24.683 32.4293 23.5938 29.2307 23.5938C23.2931 23.5938 18.4614 27.2741 18.4614 31.7969C18.4614 36.3196 23.2931 40 29.2307 40Z" fill="#EE885A"/>
<path d="M12.3076 21.7734L21.5384 14.7656V8.67188L12.3076 15.7266V21.7734Z" fill="#FAAF60"/>
<path d="M12.3076 21.7734L21.5384 14.7656V8.67188L12.3076 15.7266V21.7734Z" fill="#FAAF60"/>
<path d="M0 18.0469V26.9453C0 28.9141 1.29221 30.7188 3.41539 31.8204L9.23077 34.7735V25.1016L0 18.0469Z" fill="#FAAF60"/>
<path d="M0 18.0469V26.9453C0 28.9141 1.29221 30.7188 3.41539 31.8204L9.23077 34.7735V25.1016L0 18.0469Z" fill="#FAAF60"/>
<path d="M21.5384 23.0354V18.0469L12.3076 25.1016V34.7734L15.5603 33.1216C15.4871 32.683 15.3845 32.2505 15.3845 31.7969C15.3845 28.1484 17.8316 24.9298 21.5384 23.0354Z" fill="#FAAF60"/>
<path d="M21.5384 23.0354V18.0469L12.3076 25.1016V34.7734L15.5603 33.1216C15.4871 32.683 15.3845 32.2505 15.3845 31.7969C15.3845 28.1484 17.8316 24.9298 21.5384 23.0354Z" fill="#FAAF60"/>
<path d="M10.7692 0C5.93844 0 1.84603 2.43742 0.492188 5.7657L9.23075 12.3984V7.03125H12.3077V12.3984L21.0462 5.76562C19.6924 2.43742 15.6 0 10.7692 0V0Z" fill="#FAAF60"/>
<path d="M10.7692 0C5.93844 0 1.84603 2.43742 0.492188 5.7657L9.23075 12.3984V7.03125H12.3077V12.3984L21.0462 5.76562C19.6924 2.43742 15.6 0 10.7692 0V0Z" fill="#FAAF60"/>
<path d="M0 14.7655L9.23077 21.7733V15.7266L0 8.69531V14.7655Z" fill="#FAAF60"/>
<path d="M0 14.7655L9.23077 21.7733V15.7266L0 8.69531V14.7655Z" fill="#FAAF60"/>
</svg>
