<svg xmlns="http://www.w3.org/2000/svg" width="10" height="12" fill="none">
  <path fill="#EE885A" d="M7.786 2.871C6.862 1.9 6.4 1.354 6.822.51A.352.352 0 0 0 6.508 0c-1.312 0-1.87 1.088-2.236 1.75-.306.55-.51.886-.777.886-.285 0-.392-.18-.401-.404.006-.297-.35-.462-.577-.268C1.287 2.983.058 5.246.13 7.13A4.876 4.876 0 0 0 5.001 12c2.691 0 4.87-2.2 4.87-4.87 0-2.065-1.156-3.281-2.085-4.259ZM5 10.494A3.368 3.368 0 0 1 1.637 7.13c.17-4.457 6.56-4.456 6.728 0a3.368 3.368 0 0 1-3.364 3.364Z"/>
  <path fill="#FAAF60" d="M7.26 6.778h.38a2.648 2.648 0 0 0-.526-1.264c-.341.318-.815-.156-.497-.497a2.648 2.648 0 0 0-1.264-.525v.378a.352.352 0 0 1-.703 0v-.378c-.472.063-.905.25-1.265.526.274.335-.16.77-.496.495-.276.36-.463.793-.525 1.265h.378a.352.352 0 0 1 0 .703h-.378c.062.472.249.905.525 1.265.336-.274.77.16.496.496.36.276.793.463 1.265.525V9.39a.352.352 0 0 1 .703 0v.378c.472-.062.905-.249 1.265-.525-.274-.336.16-.77.495-.496.277-.36.464-.793.526-1.265h-.378c-.466-.017-.466-.686 0-.703Zm-1.069-.341-.941.941a.352.352 0 0 1-.497 0l-.565-.565c-.317-.34.156-.814.497-.497l.316.316.693-.692c.342-.318.815.155.497.497Z"/>
  <path fill="#FAAF60" d="M7.26 6.778h.38a2.648 2.648 0 0 0-.526-1.264c-.341.318-.815-.156-.497-.497a2.648 2.648 0 0 0-1.264-.525v.378a.352.352 0 0 1-.703 0v-.378c-.472.063-.905.25-1.265.526.274.335-.16.77-.496.495-.276.36-.463.793-.525 1.265h.378a.352.352 0 0 1 0 .703h-.378c.062.472.249.905.525 1.265.336-.274.77.16.496.496.36.276.793.463 1.265.525V9.39a.352.352 0 0 1 .703 0v.378c.472-.062.905-.249 1.265-.525-.274-.336.16-.77.495-.496.277-.36.464-.793.526-1.265h-.378c-.466-.017-.466-.686 0-.703Zm-1.069-.341-.941.941a.352.352 0 0 1-.497 0l-.565-.565c-.317-.34.156-.814.497-.497l.316.316.693-.692c.342-.318.815.155.497.497Z"/>
</svg>
