<svg width="180" height="57" viewBox="0 0 180 57" fill="none" xmlns="http://www.w3.org/2000/svg">
<path d="M28.6705 30.6876C28.6705 36.8476 23.7425 42.3916 14.8385 42.3916C6.71847 42.3916 0.446473 38.1356 0.334473 30.7436H8.73447C8.95847 33.8796 11.0305 35.9516 14.6705 35.9516C18.3665 35.9516 20.5505 33.9916 20.5505 31.1916C20.5505 22.7356 0.390473 27.8316 0.446473 13.6636C0.446473 6.60757 6.15847 2.35157 14.2225 2.35157C22.2305 2.35157 27.7185 6.43957 28.2225 13.4956H19.5985C19.4305 10.9196 17.3585 8.90357 13.9985 8.84757C10.9185 8.73557 8.62247 10.2476 8.62247 13.4396C8.62247 21.2796 28.6705 16.9116 28.6705 30.6876Z" fill="#4E31A3"/>
<path d="M30.0915 26.3756C30.0915 16.6876 36.3635 10.4716 44.2595 10.4716C49.2435 10.4716 52.6595 12.8236 54.5075 15.3996V10.9756H62.4035V41.9996H54.5075V37.4636C52.6595 40.1516 49.1315 42.5036 44.2035 42.5036C36.3635 42.5036 30.0915 36.0636 30.0915 26.3756ZM54.5075 26.4876C54.5075 20.6076 50.5875 17.3596 46.2755 17.3596C42.0755 17.3596 38.0995 20.4956 38.0995 26.3756C38.0995 32.2556 42.0755 35.6156 46.2755 35.6156C50.5875 35.6156 54.5075 32.3676 54.5075 26.4876Z" fill="#4E31A3"/>
<path d="M63.3966 10.9756H71.7966L79.6366 34.7756L87.4766 10.9756H95.8206L84.3406 41.9996H74.8206L63.3966 10.9756Z" fill="#4E31A3"/>
<path d="M110.192 16.9116C106.44 16.9116 103.472 19.3196 102.856 23.5756H117.584C117.472 19.4876 114.224 16.9116 110.192 16.9116ZM124.92 32.2556C123.24 37.9676 118.088 42.5036 110.416 42.5036C101.4 42.5036 94.848 36.2316 94.848 26.4876C94.848 16.6876 101.232 10.4716 110.416 10.4716C119.376 10.4716 125.704 16.5756 125.704 25.8156C125.704 26.8236 125.648 27.8316 125.48 28.8396H102.8C103.192 33.4316 106.328 36.0076 110.248 36.0076C113.608 36.0076 115.456 34.3276 116.464 32.2556H124.92Z" fill="#4E31A3"/>
<path d="M128.067 41.9996V0.55957H135.907V41.9996H128.067Z" fill="#4E31A3"/>
<path d="M153.508 32.6476L161.628 10.9756H169.972L150.764 56.6716H142.42L149.14 41.2156L136.708 10.9756H145.5L153.508 32.6476Z" fill="#4E31A3"/>
<path d="M179.071 37.7996C179.071 40.3756 177.055 42.3916 174.311 42.3916C171.455 42.3916 169.439 40.3756 169.439 37.7996C169.439 35.2236 171.455 33.2076 174.311 33.2076C177.055 33.2076 179.071 35.2236 179.071 37.7996Z" fill="#4E31A3"/>
</svg>
