<svg width="242" height="64" viewBox="0 0 242 64" fill="none" xmlns="http://www.w3.org/2000/svg">
<path d="M12.4141 0.61253V4.36814H4.58483V7.65352H11.7063V11.1493H4.58483V14.4099H12.6208V18.1655H0V0.61253H12.4141Z" fill="#11064F"/>
<path d="M20.5691 4.26295C24.8157 4.26295 27.296 6.42227 27.296 10.1346V18.1593H22.9742V14.7811C22.3917 17.0951 20.4814 18.5244 17.9134 18.5244C15.2138 18.5244 13.41 16.9404 13.41 14.5708C13.41 11.966 15.5709 10.4439 19.2725 10.4439H22.9742V10.1284C22.9742 8.44548 22.0786 7.47409 20.4626 7.47409C18.8466 7.47409 18.1138 8.30936 18.1138 9.70766H13.8108C13.8108 6.33565 16.3914 4.25677 20.5691 4.25677V4.26295ZM19.8613 12.7579C18.4771 12.7579 17.7505 13.222 17.7505 14.1129C17.7505 15.0039 18.4896 15.5112 19.7736 15.5112C21.59 15.5112 22.9742 14.4903 22.9742 13.1663V12.7579H19.8613Z" fill="#11064F"/>
<path d="M33.027 18.1655H28.7053V4.63419H33.027V9.52823C33.4467 6.53364 34.668 4.63419 37.236 4.63419H38.1505V8.63728H36.3028C33.7285 8.63728 33.0208 9.75716 33.0208 12.2444V18.1655H33.027Z" fill="#11064F"/>
<path d="M43.6059 18.1655H39.2842V0H43.6059V18.1655Z" fill="#11064F"/>
<path d="M59.0704 4.63419L54.0659 18.314C52.8508 21.6922 50.7776 23.1895 47.3641 23.1895C46.6375 23.1895 45.8483 23.1152 44.9902 22.9667V19.5886C45.6228 19.6814 46.1427 19.7247 46.6124 19.7247C47.9152 19.7247 48.7859 19.3782 49.431 18.5739L44.4265 4.64037H48.9988L51.7798 14.9729L54.6046 4.64037H59.0704V4.63419Z" fill="#11064F"/>
<path d="M65.077 18.1655L70.9584 0.61253H77.2594L83.0468 18.1655H78.155L77.1592 14.577H70.8769L69.8623 18.1655H65.0707H65.077ZM76.1758 10.9884L74.0525 3.31013L71.8916 10.9884H76.1758Z" fill="#11064F"/>
<path d="M89.7925 14.8554C91.2017 14.8554 91.9283 14.0077 92.1851 12.6961H96.4881C96.0496 16.1794 93.4503 18.5306 89.7925 18.5306C85.6649 18.5306 82.7211 15.734 82.7211 11.3906C82.7211 7.04718 85.6586 4.26295 89.7925 4.26295C93.4503 4.26295 96.0559 6.60789 96.4881 10.0974H92.1851C91.9283 8.78577 91.208 7.93813 89.7925 7.93813C88.0638 7.93813 87.0867 9.14463 87.0867 11.3906C87.0867 13.6365 88.07 14.8492 89.7925 14.8492V14.8554Z" fill="#11064F"/>
<path d="M104.48 14.8554C105.889 14.8554 106.616 14.0077 106.873 12.6961H111.176C110.737 16.1794 108.138 18.5306 104.48 18.5306C100.353 18.5306 97.4088 15.734 97.4088 11.3906C97.4088 7.04718 100.346 4.26295 104.48 4.26295C108.138 4.26295 110.744 6.60789 111.176 10.0974H106.873C106.616 8.78577 105.896 7.93813 104.48 7.93813C102.752 7.93813 101.774 9.14463 101.774 11.3906C101.774 13.6365 102.758 14.8492 104.48 14.8492V14.8554Z" fill="#11064F"/>
<path d="M125.838 13.5313C125.068 16.6373 122.506 18.5305 119.118 18.5305C114.94 18.5305 112.103 15.6473 112.103 11.3906C112.103 7.1338 114.903 4.26914 119.043 4.26914C123.183 4.26914 125.901 7.10286 125.901 11.3782C125.901 11.7123 125.882 12.0588 125.845 12.3991H116.212C116.425 14.1995 117.521 15.2452 119.243 15.2452C120.508 15.2452 121.366 14.6759 121.855 13.5313H125.845H125.838ZM121.836 10.0665C121.536 8.34648 120.609 7.48647 119.068 7.48647C117.527 7.48647 116.506 8.40217 116.243 10.0665H121.842H121.836Z" fill="#11064F"/>
<path d="M139.837 9.10132H135.559C135.559 7.90719 134.789 7.22661 133.336 7.22661C132.096 7.22661 131.238 7.72158 131.238 8.46404C131.238 9.42305 132.403 9.62104 133.887 9.87471L134.801 10.0356C136.969 10.413 140.213 10.9822 140.213 14.1933C140.213 16.9466 137.814 18.5306 133.58 18.5306C129.114 18.5306 126.709 16.761 126.709 13.5932H130.987C130.987 14.8554 131.826 15.536 133.543 15.536C135.014 15.536 135.935 15.0472 135.935 14.249C135.935 13.2529 134.864 13.0611 133.117 12.7517L132.202 12.5909C130.217 12.2382 126.966 11.669 126.966 8.53828C126.966 5.8778 129.308 4.26295 133.229 4.26295C137.407 4.26295 139.844 6.08817 139.844 9.09513L139.837 9.10132Z" fill="#11064F"/>
<path d="M154.068 9.10132H149.79C149.79 7.90719 149.019 7.22661 147.566 7.22661C146.326 7.22661 145.468 7.72158 145.468 8.46404C145.468 9.42305 146.633 9.62104 148.118 9.87471L149.032 10.0356C151.199 10.413 154.444 10.9822 154.444 14.1933C154.444 16.9466 152.045 18.5306 147.811 18.5306C143.345 18.5306 140.94 16.761 140.94 13.5932H145.218C145.218 14.8554 146.057 15.536 147.773 15.536C149.245 15.536 150.166 15.0472 150.166 14.249C150.166 13.2529 149.095 13.0611 147.347 12.7517L146.433 12.5909C144.447 12.2382 141.196 11.669 141.196 8.53828C141.196 5.8778 143.539 4.26295 147.46 4.26295C151.638 4.26295 154.074 6.08817 154.074 9.09513L154.068 9.10132Z" fill="#11064F"/>
<path d="M165.837 18.1655H161.515V4.63418H165.837V8.71771C166.363 5.79118 167.904 4.26914 170.346 4.26914C172.789 4.26914 174.205 5.85924 174.468 9.03944C174.931 5.91493 176.503 4.26914 179.034 4.26914C181.802 4.26914 183.211 6.25522 183.211 10.1593V18.1655H178.89V11.075C178.89 8.97138 178.213 7.93813 176.804 7.93813C175.395 7.93813 174.53 9.06419 174.53 11.174V18.1655H170.209V11.075C170.209 8.97138 169.532 7.93813 168.123 7.93813C166.714 7.93813 165.849 9.06419 165.849 11.174V18.1655H165.837Z" fill="#11064F"/>
<path d="M198.081 13.5313C197.31 16.6373 194.749 18.5305 191.36 18.5305C187.182 18.5305 184.345 15.6473 184.345 11.3906C184.345 7.1338 187.145 4.26914 191.285 4.26914C195.425 4.26914 198.143 7.10286 198.143 11.3782C198.143 11.7123 198.125 12.0588 198.087 12.3991H188.454C188.667 14.1995 189.763 15.2452 191.485 15.2452C192.751 15.2452 193.609 14.6759 194.097 13.5313H198.087H198.081ZM194.079 10.0665C193.778 8.34648 192.851 7.48647 191.31 7.48647C189.769 7.48647 188.748 8.40217 188.485 10.0665H194.085H194.079Z" fill="#11064F"/>
<path d="M205.998 4.26295C210.244 4.26295 212.725 6.42227 212.725 10.1346V18.1593H208.403V14.7811C207.821 17.0951 205.91 18.5244 203.342 18.5244C200.643 18.5244 198.839 16.9404 198.839 14.5708C198.839 11.966 201 10.4439 204.701 10.4439H208.403V10.1284C208.403 8.44548 207.507 7.47409 205.891 7.47409C204.275 7.47409 203.543 8.30936 203.543 9.70766H199.24C199.24 6.33565 201.82 4.25677 205.998 4.25677V4.26295ZM205.29 12.7579C203.906 12.7579 203.179 13.222 203.179 14.1129C203.179 15.0039 203.918 15.5112 205.202 15.5112C207.019 15.5112 208.403 14.4903 208.403 13.1663V12.7579H205.29Z" fill="#11064F"/>
<path d="M218.462 18.1655H214.14V4.63418H218.462V8.7734C218.994 5.80975 220.604 4.26295 223.141 4.26295C226.009 4.26295 227.469 6.24903 227.469 10.1531V18.1593H223.147V11.0688C223.147 8.95901 222.414 7.93194 220.911 7.93194C219.333 7.93194 218.462 9.05182 218.462 11.1678V18.1593V18.1655Z" fill="#11064F"/>
<path d="M241.624 9.10132H237.346C237.346 7.90719 236.576 7.22661 235.123 7.22661C233.883 7.22661 233.024 7.72158 233.024 8.46404C233.024 9.42305 234.189 9.62104 235.674 9.87471L236.588 10.0356C238.756 10.413 242 10.9822 242 14.1933C242 16.9466 239.601 18.5306 235.367 18.5306C230.901 18.5306 228.496 16.761 228.496 13.5932H232.774C232.774 14.8554 233.613 15.536 235.329 15.536C236.801 15.536 237.722 15.0472 237.722 14.249C237.722 13.2529 236.651 13.0611 234.904 12.7517L233.989 12.5909C232.004 12.2382 228.753 11.669 228.753 8.53828C228.753 5.8778 231.095 4.26295 235.016 4.26295C239.194 4.26295 241.63 6.08817 241.63 9.09513L241.624 9.10132Z" fill="#11064F"/>
<path d="M29.6072 32.0758V45.8732H37.1484V49.6288H25.0224V32.0758H29.6072Z" fill="#EEA15A"/>
<path d="M42.5976 34.7548H38.2257V31.4633H42.5976V34.7548ZM42.5725 49.6288H38.2508V36.0975H42.5725V49.6288Z" fill="#EEA15A"/>
<path d="M45.2658 39.4385H43.5371V36.0975H45.2658V35.6829C45.2658 32.4285 47.2012 30.6713 50.7714 30.6713C51.5543 30.6713 52.45 30.7579 53.3331 30.9126V34.0928C52.713 33.9876 52.118 33.9319 51.6107 33.9319C50.0824 33.9319 49.3934 34.5074 49.3934 35.751V36.1098H53.3394V39.4509H49.5938V49.6411H45.2721V39.4509L45.2658 39.4385Z" fill="#EEA15A"/>
<path d="M67.2755 44.9946C66.5051 48.1005 63.9433 49.9938 60.5548 49.9938C56.3771 49.9938 53.5398 47.1106 53.5398 42.8538C53.5398 38.5971 56.3395 35.7262 60.4797 35.7262C64.6198 35.7262 67.3381 38.5599 67.3381 42.8415C67.3381 43.1756 67.3193 43.522 67.2817 43.8623H57.6486C57.8616 45.6628 58.9577 46.7084 60.6801 46.7084C61.9453 46.7084 62.8034 46.1392 63.292 44.9946H67.2817H67.2755ZM63.2732 41.5298C62.9725 39.8097 62.0455 38.9435 60.5047 38.9435C58.9639 38.9435 57.943 39.8592 57.6799 41.5298H63.2794H63.2732Z" fill="#EEA15A"/>
<path d="M74.3719 50C71.2151 50 69.5929 48.181 69.5929 44.6048V39.4385H67.9519V36.0975H69.5929V32.9791H73.9147V36.0975H77.5537V39.4385H73.9147V44.611C73.9147 46.0402 74.4158 46.6651 75.587 46.6651C76.0568 46.6651 76.6831 46.5599 77.5537 46.3434V49.5236C76.3449 49.8391 75.2864 49.9938 74.3657 49.9938L74.3719 50Z" fill="#EEA15A"/>
<path d="M83.1595 34.7548H78.7877V31.4633H83.1595V34.7548ZM83.1345 49.6288H78.8127V36.0975H83.1345V49.6288Z" fill="#EEA15A"/>
<path d="M88.9281 49.6288H84.6064V36.0975H88.9281V40.181C89.4543 37.2545 90.9951 35.7324 93.4378 35.7324C95.8805 35.7324 97.2961 37.3225 97.5591 40.5027C98.0226 37.3782 99.5948 35.7324 102.125 35.7324C104.894 35.7324 106.303 37.7185 106.303 41.6226V49.6288H101.981V42.5383C101.981 40.4347 101.305 39.4014 99.8954 39.4014C98.4861 39.4014 97.6218 40.5275 97.6218 42.6373V49.6288H93.3V42.5383C93.3 40.4347 92.6236 39.4014 91.2143 39.4014C89.805 39.4014 88.9407 40.5275 88.9407 42.6373V49.6288H88.9281Z" fill="#EEA15A"/>
<path d="M121.172 44.9946C120.402 48.1005 117.84 49.9938 114.452 49.9938C110.274 49.9938 107.437 47.1106 107.437 42.8538C107.437 38.5971 110.236 35.7262 114.376 35.7262C118.517 35.7262 121.235 38.5599 121.235 42.8415C121.235 43.1756 121.216 43.522 121.179 43.8623H111.545C111.758 45.6628 112.854 46.7084 114.577 46.7084C115.842 46.7084 116.7 46.1392 117.189 44.9946H121.179H121.172ZM117.17 41.5298C116.869 39.8097 115.942 38.9435 114.402 38.9435C112.861 38.9435 111.84 39.8592 111.577 41.5298H117.176H117.17Z" fill="#EEA15A"/>
<path d="M127.611 49.6288L133.486 32.0758H139.787L145.575 49.6288H140.683L139.687 46.0402H133.405L132.39 49.6288H127.599H127.611ZM138.71 42.4578L136.587 34.7796L134.426 42.4578H138.71Z" fill="#EEA15A"/>
<path d="M152.32 46.3186C153.73 46.3186 154.456 45.471 154.713 44.1593H159.016C158.577 47.6427 155.978 49.9938 152.32 49.9938C148.193 49.9938 145.249 47.1972 145.249 42.8538C145.249 38.5104 148.186 35.72 152.32 35.72C155.978 35.72 158.584 38.065 159.016 41.5545H154.713C154.456 40.2429 153.736 39.3952 152.32 39.3952C150.592 39.3952 149.614 40.6017 149.614 42.8476C149.614 45.0936 150.598 46.3063 152.32 46.3063V46.3186Z" fill="#EEA15A"/>
<path d="M167.014 46.3186C168.424 46.3186 169.15 45.471 169.407 44.1593H173.71C173.271 47.6427 170.672 49.9938 167.014 49.9938C162.887 49.9938 159.943 47.1972 159.943 42.8538C159.943 38.5104 162.88 35.72 167.014 35.72C170.672 35.72 173.278 38.065 173.71 41.5545H169.407C169.15 40.2429 168.43 39.3952 167.014 39.3952C165.286 39.3952 164.308 40.6017 164.308 42.8476C164.308 45.0936 165.292 46.3063 167.014 46.3063V46.3186Z" fill="#EEA15A"/>
<path d="M188.366 44.9946C187.596 48.1005 185.034 49.9938 181.646 49.9938C177.468 49.9938 174.631 47.1106 174.631 42.8538C174.631 38.5971 177.43 35.7262 181.571 35.7262C185.711 35.7262 188.429 38.5599 188.429 42.8415C188.429 43.1756 188.41 43.522 188.373 43.8623H178.739C178.952 45.6628 180.048 46.7084 181.771 46.7084C183.036 46.7084 183.894 46.1392 184.383 44.9946H188.373H188.366ZM184.37 41.5298C184.07 39.8097 183.143 38.9435 181.602 38.9435C180.061 38.9435 179.04 39.8592 178.777 41.5298H184.377H184.37Z" fill="#EEA15A"/>
<path d="M202.371 40.5646H198.093C198.093 39.3705 197.323 38.6837 195.87 38.6837C194.63 38.6837 193.772 39.1787 193.772 39.9211C193.772 40.8801 194.937 41.0719 196.421 41.3318L197.335 41.4927C199.503 41.8639 202.747 42.4393 202.747 45.6504C202.747 48.4037 200.348 49.9876 196.114 49.9876C191.648 49.9876 189.243 48.2181 189.243 45.0503H193.521C193.521 46.3125 194.36 46.993 196.077 46.993C197.548 46.993 198.469 46.5043 198.469 45.7061C198.469 44.71 197.398 44.5182 195.651 44.2088L194.736 44.048C192.751 43.7015 189.5 43.1261 189.5 40.0015C189.5 37.3411 191.842 35.7262 195.763 35.7262C199.941 35.7262 202.378 37.5514 202.378 40.5646H202.371Z" fill="#EEA15A"/>
<path d="M216.602 40.5646H212.324C212.324 39.3705 211.554 38.6837 210.1 38.6837C208.86 38.6837 208.002 39.1787 208.002 39.9211C208.002 40.8801 209.167 41.0719 210.652 41.3318L211.566 41.4927C213.733 41.8639 216.978 42.4393 216.978 45.6504C216.978 48.4037 214.579 49.9876 210.345 49.9876C205.879 49.9876 203.474 48.2181 203.474 45.0503H207.752C207.752 46.3125 208.591 46.993 210.307 46.993C211.779 46.993 212.7 46.5043 212.7 45.7061C212.7 44.71 211.629 44.5182 209.881 44.2088L208.967 44.048C206.981 43.7015 203.73 43.1261 203.73 40.0015C203.73 37.3411 206.073 35.7262 209.994 35.7262C214.172 35.7262 216.608 37.5514 216.608 40.5646H216.602Z" fill="#EEA15A"/>
<path d="M46.0225 63.0842C45.9877 63.067 45.513 62.613 45.4783 62.57C44.2023 61.0015 47.2383 60.3539 48.3822 60.2205C52.2797 59.7622 56.2651 59.603 60.1787 59.2394L80.9626 57.303L79.4064 57.0943C67.0102 56.4596 54.4078 56.9372 42.132 58.6068C38.7556 59.0673 34.666 59.5858 31.4726 60.6443C29.8307 61.1887 27.8739 62.5183 26.0884 61.6534C24.8981 61.0768 24.5114 59.6826 25.8129 59.0436C26.6581 58.6283 26.7068 59.0156 27.3992 59.0113C29.5019 58.9984 33.3669 57.9786 35.6618 57.6515C38.5403 57.2406 41.435 56.9695 44.3158 56.6554C65.1622 54.3747 87.0693 54.3511 107.869 57.2083C108.851 57.3439 110.289 57.4643 111.193 57.6709C111.633 57.772 112.121 58.1636 111.973 58.624C111.667 59.5729 109.615 59.05 108.819 59.0242C90.4017 58.411 72.0238 59.1899 53.8428 61.9589C51.8675 62.2602 49.7069 62.8303 47.7825 63.1057C47.5532 63.138 46.1336 63.1466 46.0202 63.0863L46.0225 63.0842Z" fill="#EEA15A"/>
</svg>
