<svg width="48" height="48" viewBox="0 0 48 48" fill="none" xmlns="http://www.w3.org/2000/svg">
<g clip-path="url(#clip0_3213_24401)">
<path d="M14 32H6C4.89543 32 4 32.8954 4 34V46C4 47.1046 4.89543 48 6 48H14C15.1046 48 16 47.1046 16 46V34C16 32.8954 15.1046 32 14 32Z" fill="url(#paint0_linear_3213_24401)"/>
<path d="M14 32H6C4.89543 32 4 32.8954 4 34V46C4 47.1046 4.89543 48 6 48H14C15.1046 48 16 47.1046 16 46V34C16 32.8954 15.1046 32 14 32Z" fill="#E6F9FE" fill-opacity="0.6"/>
<g opacity="0.3">
<path d="M8 46V34C8 33.4696 8.21072 32.9609 8.58579 32.5858C8.96086 32.2107 9.46957 32 10 32H6C5.46957 32 4.96086 32.2107 4.58579 32.5858C4.21071 32.9609 4 33.4696 4 34V46C4 46.5304 4.21071 47.0392 4.58579 47.4142C4.96086 47.7893 5.46957 48 6 48H10C9.46957 48 8.96086 47.7893 8.58579 47.4142C8.21072 47.0392 8 46.5304 8 46Z" fill="#CCF2FE"/>
<path d="M8 46V34C8 33.4696 8.21072 32.9609 8.58579 32.5858C8.96086 32.2107 9.46957 32 10 32H6C5.46957 32 4.96086 32.2107 4.58579 32.5858C4.21071 32.9609 4 33.4696 4 34V46C4 46.5304 4.21071 47.0392 4.58579 47.4142C4.96086 47.7893 5.46957 48 6 48H10C9.46957 48 8.96086 47.7893 8.58579 47.4142C8.21072 47.0392 8 46.5304 8 46Z" fill="url(#paint1_linear_3213_24401)"/>
</g>
<path d="M28 28H20C18.8954 28 18 28.8954 18 30V46C18 47.1046 18.8954 48 20 48H28C29.1046 48 30 47.1046 30 46V30C30 28.8954 29.1046 28 28 28Z" fill="url(#paint2_linear_3213_24401)"/>
<path d="M28 28H20C18.8954 28 18 28.8954 18 30V46C18 47.1046 18.8954 48 20 48H28C29.1046 48 30 47.1046 30 46V30C30 28.8954 29.1046 28 28 28Z" fill="#CCF2FE" fill-opacity="0.3"/>
<g opacity="0.6">
<path d="M22 46V30C22 29.4696 22.2107 28.9609 22.5858 28.5858C22.9609 28.2107 23.4696 28 24 28H20C19.4696 28 18.9609 28.2107 18.5858 28.5858C18.2107 28.9609 18 29.4696 18 30V46C18 46.5304 18.2107 47.0391 18.5858 47.4142C18.9609 47.7893 19.4696 48 20 48H24C23.4696 48 22.9609 47.7893 22.5858 47.4142C22.2107 47.0391 22 46.5304 22 46Z" fill="#99E6FD"/>
<path d="M22 46V30C22 29.4696 22.2107 28.9609 22.5858 28.5858C22.9609 28.2107 23.4696 28 24 28H20C19.4696 28 18.9609 28.2107 18.5858 28.5858C18.2107 28.9609 18 29.4696 18 30V46C18 46.5304 18.2107 47.0391 18.5858 47.4142C18.9609 47.7893 19.4696 48 20 48H24C23.4696 48 22.9609 47.7893 22.5858 47.4142C22.2107 47.0391 22 46.5304 22 46Z" fill="url(#paint3_linear_3213_24401)"/>
</g>
<path d="M42 20H34C32.8954 20 32 20.8954 32 22V46C32 47.1046 32.8954 48 34 48H42C43.1046 48 44 47.1046 44 46V22C44 20.8954 43.1046 20 42 20Z" fill="#99E6FD"/>
<path d="M42 20H34C32.8954 20 32 20.8954 32 22V46C32 47.1046 32.8954 48 34 48H42C43.1046 48 44 47.1046 44 46V22C44 20.8954 43.1046 20 42 20Z" fill="url(#paint4_linear_3213_24401)"/>
<path d="M36 46V22C36 21.4696 36.2107 20.9609 36.5858 20.5858C36.9609 20.2107 37.4696 20 38 20H34C33.4696 20 32.9609 20.2107 32.5858 20.5858C32.2107 20.9609 32 21.4696 32 22V46C32 46.5304 32.2107 47.0392 32.5858 47.4142C32.9609 47.7893 33.4696 48 34 48H38C37.4696 48 36.9609 47.7893 36.5858 47.4142C36.2107 47.0392 36 46.5304 36 46Z" fill="#67D9FB"/>
<path d="M36 46V22C36 21.4696 36.2107 20.9609 36.5858 20.5858C36.9609 20.2107 37.4696 20 38 20H34C33.4696 20 32.9609 20.2107 32.5858 20.5858C32.2107 20.9609 32 21.4696 32 22V46C32 46.5304 32.2107 47.0392 32.5858 47.4142C32.9609 47.7893 33.4696 48 34 48H38C37.4696 48 36.9609 47.7893 36.5858 47.4142C36.2107 47.0392 36 46.5304 36 46Z" fill="url(#paint5_linear_3213_24401)"/>
<path d="M0 44H48V48H0V44Z" fill="#01C0F9"/>
<path d="M0 44H48V48H0V44Z" fill="url(#paint6_linear_3213_24401)"/>
<path d="M0 44H48V48H0V44Z" fill="url(#paint7_linear_3213_24401)"/>
<path d="M47.9402 9.51501L45.9402 1.51501C45.8116 1.00048 45.4838 0.558124 45.0291 0.28522C44.5743 0.0123164 44.0298 -0.0687835 43.5152 0.0597572L35.5152 2.05976L36.4852 5.94026L39.7235 5.13076C28.3902 21.5145 9.18075 26 0 26V30C4.90925 30 13.0847 28.7075 21.3072 25.0798C30.5537 21 37.9037 14.97 43.2185 7.12051L44.0597 10.485L47.9402 9.51501Z" fill="url(#paint8_linear_3213_24401)"/>
</g>
<defs>
<linearGradient id="paint0_linear_3213_24401" x1="10" y1="32" x2="10" y2="48" gradientUnits="userSpaceOnUse">
<stop stop-color="#56A2ED"/>
<stop offset="1" stop-color="#4AC3FC"/>
</linearGradient>
<linearGradient id="paint1_linear_3213_24401" x1="7.60001" y1="43" x2="5.91909" y2="37.3659" gradientUnits="userSpaceOnUse">
<stop stop-color="#5B99FA"/>
<stop offset="1" stop-color="#5560F9"/>
</linearGradient>
<linearGradient id="paint2_linear_3213_24401" x1="24" y1="28" x2="24" y2="48" gradientUnits="userSpaceOnUse">
<stop stop-color="#56A2ED"/>
<stop offset="1" stop-color="#4AC3FC"/>
</linearGradient>
<linearGradient id="paint3_linear_3213_24401" x1="21.6" y1="41.75" x2="19.089" y2="35.0169" gradientUnits="userSpaceOnUse">
<stop stop-color="#5B99FA"/>
<stop offset="1" stop-color="#5560F9"/>
</linearGradient>
<linearGradient id="paint4_linear_3213_24401" x1="38" y1="20" x2="38" y2="48" gradientUnits="userSpaceOnUse">
<stop stop-color="#56A2ED"/>
<stop offset="1" stop-color="#4AC3FC"/>
</linearGradient>
<linearGradient id="paint5_linear_3213_24401" x1="35.6" y1="39.25" x2="31.1948" y2="30.8126" gradientUnits="userSpaceOnUse">
<stop stop-color="#5B99FA"/>
<stop offset="1" stop-color="#5560F9"/>
</linearGradient>
<linearGradient id="paint6_linear_3213_24401" x1="28.8" y1="46.75" x2="28.7857" y2="45.2162" gradientUnits="userSpaceOnUse">
<stop stop-color="#5B99FA"/>
<stop offset="1" stop-color="#5560F9"/>
</linearGradient>
<linearGradient id="paint7_linear_3213_24401" x1="7.5" y1="44" x2="30" y2="48" gradientUnits="userSpaceOnUse">
<stop stop-color="#56A2ED"/>
<stop offset="1" stop-color="#4AC3FC"/>
</linearGradient>
<linearGradient id="paint8_linear_3213_24401" x1="23.9701" y1="0.00012207" x2="23.9701" y2="30" gradientUnits="userSpaceOnUse">
<stop stop-color="#EE885A"/>
<stop offset="1" stop-color="#FAAE60"/>
</linearGradient>
<clipPath id="clip0_3213_24401">
<rect width="48" height="48" fill="white"/>
</clipPath>
</defs>
</svg>
