<svg width="48" height="48" viewBox="0 0 48 48" fill="none" xmlns="http://www.w3.org/2000/svg">
<g clip-path="url(#clip0_3213_25274)">
<path d="M47.3455 26.5202L25.3455 6.52024C24.9773 6.18555 24.4977 6.00009 24.0001 6.00009C23.5026 6.00009 23.0229 6.18555 22.6547 6.52024L0.654756 26.5202C0.356117 26.7918 0.146628 27.1473 0.053825 27.5402C-0.0389781 27.933 -0.0107521 28.3447 0.134793 28.7212C0.280338 29.0976 0.53639 29.4213 0.869293 29.6495C1.2022 29.8778 1.59637 29.9999 2 30H6V46C6 46.5304 6.21072 47.0391 6.58579 47.4142C6.96086 47.7893 7.46957 48 8 48H40C40.5304 48 41.0391 47.7893 41.4142 47.4142C41.7893 47.0391 42 46.5304 42 46V30H46C46.4036 30 46.7978 29.8778 47.1308 29.6496C47.4637 29.4214 47.7198 29.0978 47.8654 28.7213C48.011 28.3448 48.0392 27.9331 47.9464 27.5402C47.8536 27.1474 47.6441 26.7918 47.3455 26.5202Z" fill="#E6F9FE"/>
<path d="M47.3455 26.5202L25.3455 6.52024C24.9773 6.18555 24.4977 6.00009 24.0001 6.00009C23.5026 6.00009 23.0229 6.18555 22.6547 6.52024L0.654756 26.5202C0.356117 26.7918 0.146628 27.1473 0.053825 27.5402C-0.0389781 27.933 -0.0107521 28.3447 0.134793 28.7212C0.280338 29.0976 0.53639 29.4213 0.869293 29.6495C1.2022 29.8778 1.59637 29.9999 2 30H6V46C6 46.5304 6.21072 47.0391 6.58579 47.4142C6.96086 47.7893 7.46957 48 8 48H40C40.5304 48 41.0391 47.7893 41.4142 47.4142C41.7893 47.0391 42 46.5304 42 46V30H46C46.4036 30 46.7978 29.8778 47.1308 29.6496C47.4637 29.4214 47.7198 29.0978 47.8654 28.7213C48.011 28.3448 48.0392 27.9331 47.9464 27.5402C47.8536 27.1474 47.6441 26.7918 47.3455 26.5202Z" fill="url(#paint0_linear_3213_25274)"/>
<path d="M47.3455 26.5202L25.3455 6.52024C24.9773 6.18555 24.4977 6.00009 24.0001 6.00009C23.5026 6.00009 23.0229 6.18555 22.6547 6.52024L0.654756 26.5202C0.356117 26.7918 0.146628 27.1473 0.053825 27.5402C-0.0389781 27.933 -0.0107521 28.3447 0.134793 28.7212C0.280338 29.0976 0.53639 29.4213 0.869293 29.6495C1.2022 29.8778 1.59637 29.9999 2 30H6V46C6 46.5304 6.21072 47.0391 6.58579 47.4142C6.96086 47.7893 7.46957 48 8 48H40C40.5304 48 41.0391 47.7893 41.4142 47.4142C41.7893 47.0391 42 46.5304 42 46V30H46C46.4036 30 46.7978 29.8778 47.1308 29.6496C47.4637 29.4214 47.7198 29.0978 47.8654 28.7213C48.011 28.3448 48.0392 27.9331 47.9464 27.5402C47.8536 27.1474 47.6441 26.7918 47.3455 26.5202Z" fill="#CCF2FE" fill-opacity="0.3"/>
<path d="M10 46V22L26.0073 7.12174L25.3455 6.52024C24.9774 6.18555 24.4977 6.00009 24.0001 6.00009C23.5026 6.00009 23.0229 6.18555 22.6548 6.52024L0.654756 26.5202C0.356117 26.7918 0.146628 27.1473 0.053825 27.5402C-0.0389781 27.933 -0.0107521 28.3447 0.134793 28.7212C0.280338 29.0976 0.53639 29.4213 0.869294 29.6495C1.2022 29.8778 1.59637 29.9999 2.00001 30H6.00001V46C6.00001 46.5304 6.21072 47.0391 6.58579 47.4142C6.96087 47.7893 7.46957 48 8.00001 48H12C11.4696 48 10.9609 47.7893 10.5858 47.4142C10.2107 47.0391 10 46.5304 10 46Z" fill="#CCF2FE"/>
<path d="M10 46V22L26.0073 7.12174L25.3455 6.52024C24.9774 6.18555 24.4977 6.00009 24.0001 6.00009C23.5026 6.00009 23.0229 6.18555 22.6548 6.52024L0.654756 26.5202C0.356117 26.7918 0.146628 27.1473 0.053825 27.5402C-0.0389781 27.933 -0.0107521 28.3447 0.134793 28.7212C0.280338 29.0976 0.53639 29.4213 0.869294 29.6495C1.2022 29.8778 1.59637 29.9999 2.00001 30H6.00001V46C6.00001 46.5304 6.21072 47.0391 6.58579 47.4142C6.96087 47.7893 7.46957 48 8.00001 48H12C11.4696 48 10.9609 47.7893 10.5858 47.4142C10.2107 47.0391 10 46.5304 10 46Z" fill="url(#paint1_linear_3213_25274)" fill-opacity="0.8"/>
<path d="M28 32H20C19.4696 32 18.9609 32.2107 18.5858 32.5858C18.2107 32.9609 18 33.4696 18 34V48H30V34C30 33.4696 29.7893 32.9609 29.4142 32.5858C29.0391 32.2107 28.5304 32 28 32Z" fill="url(#paint2_linear_3213_25274)"/>
<path d="M18 22H30V26H18V22Z" fill="#67D9FB"/>
<path d="M18 22H30V26H18V22Z" fill="url(#paint3_linear_3213_25274)" fill-opacity="0.8"/>
<path d="M18 22H30V26H18V22Z" fill="url(#paint4_linear_3213_25274)" fill-opacity="0.8"/>
<path d="M18 16H30V20H18V16Z" fill="#67D9FB"/>
<path d="M18 16H30V20H18V16Z" fill="url(#paint5_linear_3213_25274)" fill-opacity="0.8"/>
</g>
<defs>
<linearGradient id="paint0_linear_3213_25274" x1="24.0001" y1="6.00009" x2="24.0001" y2="48" gradientUnits="userSpaceOnUse">
<stop stop-color="#56A2ED"/>
<stop offset="1" stop-color="#4AC3FC"/>
</linearGradient>
<linearGradient id="paint1_linear_3213_25274" x1="15.6045" y1="34.875" x2="12.7864" y2="19.2782" gradientUnits="userSpaceOnUse">
<stop stop-color="#5B99FA"/>
<stop offset="1" stop-color="#5560F9"/>
</linearGradient>
<linearGradient id="paint2_linear_3213_25274" x1="24" y1="32" x2="24" y2="48" gradientUnits="userSpaceOnUse">
<stop stop-color="#EE885A"/>
<stop offset="1" stop-color="#FAAE60"/>
</linearGradient>
<linearGradient id="paint3_linear_3213_25274" x1="25.2" y1="24.75" x2="25.1429" y2="23.2182" gradientUnits="userSpaceOnUse">
<stop stop-color="#5B99FA"/>
<stop offset="1" stop-color="#5560F9"/>
</linearGradient>
<linearGradient id="paint4_linear_3213_25274" x1="25" y1="22" x2="21.6465" y2="21.1992" gradientUnits="userSpaceOnUse">
<stop stop-color="#5B99FA"/>
<stop offset="1" stop-color="#5560F9"/>
</linearGradient>
<linearGradient id="paint5_linear_3213_25274" x1="25" y1="16" x2="21.6465" y2="15.1992" gradientUnits="userSpaceOnUse">
<stop stop-color="#5B99FA"/>
<stop offset="1" stop-color="#5560F9"/>
</linearGradient>
<clipPath id="clip0_3213_25274">
<rect width="48" height="48" fill="white"/>
</clipPath>
</defs>
</svg>
