<svg width="40" height="48" viewBox="0 0 40 48" fill="none" xmlns="http://www.w3.org/2000/svg">
<path d="M37.997 39C38.6188 38.5348 39.1236 37.9311 39.4712 37.2368C39.8189 36.5424 40 35.7766 40 35C40 34.2235 39.8189 33.4576 39.4712 32.7633C39.1236 32.0689 38.6188 31.4652 37.997 31C38.614 30.538 39.1159 29.9396 39.4633 29.2515C39.8108 28.5634 39.9944 27.8043 40 27.0335C39.9695 25.6851 39.4112 24.4024 38.4451 23.4612C37.479 22.52 36.1822 21.9953 34.8335 22H21V17C21 15.6739 20.4732 14.4021 19.5355 13.4645C18.5978 12.5268 17.3261 12 16 12H13C12.7348 12 12.4804 12.1054 12.2929 12.2929C12.1054 12.4804 12 12.7348 12 13V24H4V40H12C12 42.1217 12.8428 44.1566 14.3431 45.6569C15.8434 47.1572 17.8783 48 20 48H34.8335C36.1822 48.0047 37.479 47.48 38.4451 46.5388C39.4112 45.5976 39.9695 44.315 40 42.9665C39.9944 42.1957 39.8108 41.4366 39.4633 40.7485C39.1159 40.0605 38.614 39.462 37.997 39Z" fill="url(#paint0_linear_3213_25498)"/>
<path d="M10 22H2C0.89543 22 0 22.8954 0 24V46C0 47.1046 0.89543 48 2 48H10C11.1046 48 12 47.1046 12 46V24C12 22.8954 11.1046 22 10 22Z" fill="url(#paint1_linear_3213_25498)"/>
<path d="M10 22H2C0.89543 22 0 22.8954 0 24V46C0 47.1046 0.89543 48 2 48H10C11.1046 48 12 47.1046 12 46V24C12 22.8954 11.1046 22 10 22Z" fill="#E6F9FE" fill-opacity="0.3"/>
<g opacity="0.5">
<path d="M10 44H2C1.46957 44 0.96086 43.7893 0.585787 43.4142C0.210714 43.0391 0 42.5304 0 42V46C0 46.5304 0.210714 47.0391 0.585787 47.4142C0.96086 47.7893 1.46957 48 2 48H10C10.5304 48 11.0391 47.7893 11.4142 47.4142C11.7893 47.0391 12 46.5304 12 46V42C12 42.5304 11.7893 43.0391 11.4142 43.4142C11.0391 43.7893 10.5304 44 10 44Z" fill="#CCF2FE"/>
<path d="M10 44H2C1.46957 44 0.96086 43.7893 0.585787 43.4142C0.210714 43.0391 0 42.5304 0 42V46C0 46.5304 0.210714 47.0391 0.585787 47.4142C0.96086 47.7893 1.46957 48 2 48H10C10.5304 48 11.0391 47.7893 11.4142 47.4142C11.7893 47.0391 12 46.5304 12 46V42C12 42.5304 11.7893 43.0391 11.4142 43.4142C11.0391 43.7893 10.5304 44 10 44Z" fill="url(#paint2_linear_3213_25498)"/>
</g>
<path d="M6 44C7.10457 44 8 43.1046 8 42C8 40.8954 7.10457 40 6 40C4.89543 40 4 40.8954 4 42C4 43.1046 4.89543 44 6 44Z" fill="#67D9FB"/>
<path d="M6 44C7.10457 44 8 43.1046 8 42C8 40.8954 7.10457 40 6 40C4.89543 40 4 40.8954 4 42C4 43.1046 4.89543 44 6 44Z" fill="url(#paint3_linear_3213_25498)"/>
<path opacity="0.35" d="M14 0H18V4H14V0Z" fill="white"/>
<path opacity="0.35" d="M6.09863 4.92999L8.92663 2.10199L11.755 4.93035L8.92699 7.75835L6.09863 4.92999Z" fill="white"/>
<path opacity="0.35" d="M20.239 4.93158L23.0674 2.10323L25.895 4.93087L23.0667 7.75923L20.239 4.93158Z" fill="white"/>
<defs>
<linearGradient id="paint0_linear_3213_25498" x1="22" y1="12" x2="22" y2="48.0001" gradientUnits="userSpaceOnUse">
<stop stop-color="#EE885A"/>
<stop offset="1" stop-color="#FAAE60"/>
</linearGradient>
<linearGradient id="paint1_linear_3213_25498" x1="6" y1="22" x2="6" y2="48" gradientUnits="userSpaceOnUse">
<stop stop-color="#56A2ED"/>
<stop offset="1" stop-color="#4AC3FC"/>
</linearGradient>
<linearGradient id="paint2_linear_3213_25498" x1="7.20001" y1="46.125" x2="7.0717" y2="43.8313" gradientUnits="userSpaceOnUse">
<stop stop-color="#5B99FA"/>
<stop offset="1" stop-color="#5560F9"/>
</linearGradient>
<linearGradient id="paint3_linear_3213_25498" x1="6.4" y1="42.75" x2="6.23051" y2="41.2351" gradientUnits="userSpaceOnUse">
<stop stop-color="#5B99FA"/>
<stop offset="1" stop-color="#5560F9"/>
</linearGradient>
</defs>
</svg>
