<svg width="36" height="36" viewBox="0 0 36 36" fill="none" xmlns="http://www.w3.org/2000/svg">
<g clip-path="url(#clip0_3211_20304)">
<path d="M26.2499 4.5H31.4999V1.5H28.4999V0H25.4999V1.575C24.5885 1.76006 23.7784 2.27715 23.2269 3.02589C22.6753 3.77464 22.4216 4.70161 22.5151 5.62687C22.6085 6.55212 23.0425 7.40965 23.7326 8.03297C24.4228 8.65628 25.3199 9.00093 26.2499 9H27.7499C27.9488 9 28.1395 9.07901 28.2802 9.21966C28.4208 9.36032 28.4999 9.55108 28.4999 9.74999C28.4999 9.94891 28.4208 10.1397 28.2802 10.2803C28.1395 10.421 27.9488 10.5 27.7499 10.5H22.4999V13.5H25.4999V15H28.4999V13.425C29.4112 13.2399 30.2213 12.7228 30.7729 11.9741C31.3244 11.2254 31.5781 10.2984 31.4846 9.37312C31.3912 8.44787 30.9573 7.59035 30.2671 6.96703C29.577 6.34371 28.6798 5.99906 27.7499 6H26.2499C26.051 6 25.8602 5.92098 25.7195 5.78033C25.5789 5.63967 25.4999 5.44891 25.4999 5.25C25.4999 5.05108 25.5789 4.86032 25.7195 4.71967C25.8602 4.57902 26.051 4.5 26.2499 4.5Z" fill="url(#paint0_linear_3211_20304)"/>
<path d="M18 0C14.44 0 10.9598 1.05568 7.99975 3.03355C5.03966 5.01141 2.73256 7.82263 1.37018 11.1117C0.00779915 14.4008 -0.348661 18.02 0.345873 21.5116C1.04041 25.0033 2.75474 28.2106 5.27209 30.7279C7.78944 33.2453 10.9967 34.9596 14.4884 35.6541C17.9801 36.3487 21.5993 35.9922 24.8883 34.6298C28.1774 33.2675 30.9886 30.9604 32.9665 28.0003C34.9444 25.0402 36 21.5601 36 18H18V0Z" fill="#7E6CC4"/>
<path d="M18 0C14.44 0 10.9598 1.05568 7.99975 3.03355C5.03966 5.01141 2.73256 7.82263 1.37018 11.1117C0.00779915 14.4008 -0.348661 18.02 0.345873 21.5116C1.04041 25.0033 2.75474 28.2106 5.27209 30.7279C7.78944 33.2453 10.9967 34.9596 14.4884 35.6541C17.9801 36.3487 21.5993 35.9922 24.8883 34.6298C28.1774 33.2675 30.9886 30.9604 32.9665 28.0003C34.9444 25.0402 36 21.5601 36 18H18V0Z" fill="url(#paint1_linear_3211_20304)"/>
<path d="M18.0002 1.18138e-05C15.4908 -0.00286667 13.0088 0.520301 10.7141 1.53577C8.4194 2.55123 6.36307 4.03644 4.67773 5.89558L18.0002 18V1.18138e-05Z" fill="url(#paint2_linear_3211_20304)"/>
<path opacity="0.15" d="M17.7612 18L6.2998 32.0016C8.97794 34.1369 12.2138 35.4805 15.6331 35.877C19.0525 36.2735 22.5157 35.7067 25.6223 34.2421C28.729 32.7775 31.3522 30.475 33.1886 27.6008C35.025 24.7265 35.9997 21.398 35.9998 18H17.7612Z" fill="#20285C"/>
</g>
<defs>
<linearGradient id="paint0_linear_3211_20304" x1="26.9999" y1="0" x2="26.9999" y2="15" gradientUnits="userSpaceOnUse">
<stop stop-color="#EE885A"/>
<stop offset="1" stop-color="#FAAE60"/>
</linearGradient>
<linearGradient id="paint1_linear_3211_20304" x1="21.6" y1="24.75" x2="20.0746" y2="11.1155" gradientUnits="userSpaceOnUse">
<stop stop-color="#5B99FA"/>
<stop offset="1" stop-color="#5560F9"/>
</linearGradient>
<linearGradient id="paint2_linear_3211_20304" x1="11.339" y1="0" x2="11.339" y2="18" gradientUnits="userSpaceOnUse">
<stop stop-color="#56A2ED"/>
<stop offset="1" stop-color="#4AC3FC"/>
</linearGradient>
<clipPath id="clip0_3211_20304">
<rect width="36" height="36" fill="white"/>
</clipPath>
</defs>
</svg>
