<svg width="34" height="36" viewBox="0 0 34 36" fill="none" xmlns="http://www.w3.org/2000/svg">
<path d="M33.0605 4.93914L28.5605 0.439139C28.3317 0.210375 28.0351 0.0617211 27.7149 0.0153593C27.3947 -0.0310025 27.068 0.0274128 26.7838 0.181889C25.4012 0.930098 23.8551 1.32469 22.2831 1.33052C20.7111 1.33634 19.162 0.95321 17.774 0.215264C17.5404 0.07452 17.2728 0.000146856 17 0.000146856C16.7272 0.000146856 16.4597 0.07452 16.226 0.215264C14.8367 0.949269 13.2882 1.33016 11.717 1.32434C10.1457 1.31852 8.60005 0.926167 7.21625 0.181889C6.93197 0.0274128 6.60535 -0.0310025 6.28514 0.0153593C5.96494 0.0617211 5.6683 0.210375 5.4395 0.439139L0.9395 4.93914C0.800158 5.07844 0.689624 5.24383 0.614214 5.42586C0.538803 5.60788 0.499993 5.80299 0.5 6.00002V22.5C0.500051 22.7249 0.550622 22.947 0.647981 23.1498C0.74534 23.3525 0.887 23.5308 1.0625 23.6715L16.0625 35.6715C16.3286 35.8845 16.6592 36.0006 17 36.0006C17.3408 36.0006 17.6715 35.8845 17.9375 35.6715L32.9375 23.6715C33.113 23.5308 33.2547 23.3525 33.352 23.1498C33.4494 22.947 33.5 22.7249 33.5 22.5V6.00002C33.5 5.80299 33.4612 5.60788 33.3858 5.42586C33.3104 5.24383 33.1999 5.07844 33.0605 4.93914Z" fill="#E6F9FE"/>
<path d="M33.0605 4.93914L28.5605 0.439139C28.3317 0.210375 28.0351 0.0617211 27.7149 0.0153593C27.3947 -0.0310025 27.068 0.0274128 26.7838 0.181889C25.4012 0.930098 23.8551 1.32469 22.2831 1.33052C20.7111 1.33634 19.162 0.95321 17.774 0.215264C17.5404 0.07452 17.2728 0.000146856 17 0.000146856C16.7272 0.000146856 16.4597 0.07452 16.226 0.215264C14.8367 0.949269 13.2882 1.33016 11.717 1.32434C10.1457 1.31852 8.60005 0.926167 7.21625 0.181889C6.93197 0.0274128 6.60535 -0.0310025 6.28514 0.0153593C5.96494 0.0617211 5.6683 0.210375 5.4395 0.439139L0.9395 4.93914C0.800158 5.07844 0.689624 5.24383 0.614214 5.42586C0.538803 5.60788 0.499993 5.80299 0.5 6.00002V22.5C0.500051 22.7249 0.550622 22.947 0.647981 23.1498C0.74534 23.3525 0.887 23.5308 1.0625 23.6715L16.0625 35.6715C16.3286 35.8845 16.6592 36.0006 17 36.0006C17.3408 36.0006 17.6715 35.8845 17.9375 35.6715L32.9375 23.6715C33.113 23.5308 33.2547 23.3525 33.352 23.1498C33.4494 22.947 33.5 22.7249 33.5 22.5V6.00002C33.5 5.80299 33.4612 5.60788 33.3858 5.42586C33.3104 5.24383 33.1999 5.07844 33.0605 4.93914Z" fill="url(#paint0_linear_3211_20310)"/>
<path d="M8.5625 20.6715C8.3869 20.5309 8.24517 20.3526 8.1478 20.1498C8.05043 19.9471 7.99992 19.725 8 19.5V3.00001C8.00009 2.60222 8.15818 2.22075 8.43951 1.93951L9.347 1.03201C8.60513 0.835434 7.8897 0.549993 7.21625 0.181889C6.93197 0.0274128 6.60535 -0.0310025 6.28514 0.0153593C5.96494 0.0617211 5.6683 0.210375 5.4395 0.439139L0.9395 4.93914C0.800158 5.07844 0.689624 5.24383 0.614214 5.42586C0.538803 5.60788 0.499993 5.80299 0.5 6.00002V22.5C0.500051 22.7249 0.550622 22.947 0.647981 23.1498C0.74534 23.3525 0.887 23.5308 1.0625 23.6715L16.0625 35.6715C16.3286 35.8845 16.6592 36.0006 17 36.0006C17.3408 36.0006 17.6715 35.8845 17.9375 35.6715L22.625 31.9215L8.5625 20.6715Z" fill="#CCF2FE" fill-opacity="0.2"/>
<path d="M28.5605 6.86954L27.4711 5.79614C27.2827 5.61054 27.0478 5.47767 26.7903 5.41114C26.5328 5.34461 26.262 5.3468 26.0056 5.41749C23.2029 6.17278 20.2324 6.05645 17.4991 5.08437C17.1761 4.97188 16.8239 4.97188 16.5009 5.08437C13.7676 6.05643 10.7971 6.17275 7.99438 5.41749C7.73801 5.34684 7.46724 5.34467 7.20974 5.4112C6.95225 5.47773 6.71728 5.61057 6.52888 5.79614L5.4395 6.86954C5.30016 7.00704 5.18962 7.17028 5.11421 7.34995C5.0388 7.52962 4.99999 7.72219 5 7.91666V20.2278C4.99992 20.4498 5.05043 20.6691 5.1478 20.8692C5.24517 21.0694 5.3869 21.2453 5.5625 21.3841L16.0625 29.6752C16.3285 29.8854 16.6592 30 17 30C17.3408 30 17.6715 29.8854 17.9375 29.6752L28.4375 21.3841C28.6131 21.2453 28.7548 21.0694 28.8522 20.8692C28.9496 20.6691 29.0001 20.4498 29 20.2278V7.91666C29 7.72219 28.9612 7.52962 28.8858 7.34995C28.8104 7.17028 28.6998 7.00704 28.5605 6.86954Z" fill="url(#paint1_linear_3211_20310)" fill-opacity="0.8"/>
<g filter="url(#filter0_d_3211_20310)">
<path d="M15.5 21C15.303 21.0002 15.1079 20.9616 14.9259 20.8862C14.7439 20.8109 14.5786 20.7003 14.4395 20.5609L11.4395 17.5609L13.5605 15.4392L15.5 17.3787L20.4395 12.4391L22.5605 14.5609L16.5605 20.5609C16.4213 20.7003 16.256 20.8109 16.074 20.8862C15.892 20.9616 15.6969 21.0002 15.5 21Z" fill="#2B3681"/>
<path d="M15.5 21C15.303 21.0002 15.1079 20.9616 14.9259 20.8862C14.7439 20.8109 14.5786 20.7003 14.4395 20.5609L11.4395 17.5609L13.5605 15.4392L15.5 17.3787L20.4395 12.4391L22.5605 14.5609L16.5605 20.5609C16.4213 20.7003 16.256 20.8109 16.074 20.8862C15.892 20.9616 15.6969 21.0002 15.5 21Z" fill="url(#paint2_linear_3211_20310)"/>
</g>
<defs>
<filter id="filter0_d_3211_20310" x="3.43945" y="5.43915" width="27.1211" height="24.5609" filterUnits="userSpaceOnUse" color-interpolation-filters="sRGB">
<feFlood flood-opacity="0" result="BackgroundImageFix"/>
<feColorMatrix in="SourceAlpha" type="matrix" values="0 0 0 0 0 0 0 0 0 0 0 0 0 0 0 0 0 0 127 0" result="hardAlpha"/>
<feOffset dy="1"/>
<feGaussianBlur stdDeviation="4"/>
<feComposite in2="hardAlpha" operator="out"/>
<feColorMatrix type="matrix" values="0 0 0 0 0.144323 0 0 0 0 0.2125 0 0 0 0 0.171594 0 0 0 0.35 0"/>
<feBlend mode="normal" in2="BackgroundImageFix" result="effect1_dropShadow_3211_20310"/>
<feBlend mode="normal" in="SourceGraphic" in2="effect1_dropShadow_3211_20310" result="shape"/>
</filter>
<linearGradient id="paint0_linear_3211_20310" x1="20.3" y1="24.7504" x2="18.6398" y2="11.1475" gradientUnits="userSpaceOnUse">
<stop stop-color="#5B99FA"/>
<stop offset="1" stop-color="#5560F9"/>
</linearGradient>
<linearGradient id="paint1_linear_3211_20310" x1="12.3902" y1="1.87499" x2="23.0523" y2="3.39492" gradientUnits="userSpaceOnUse">
<stop stop-color="#2E3986"/>
<stop offset="1" stop-color="#1D286A"/>
</linearGradient>
<linearGradient id="paint2_linear_3211_20310" x1="17" y1="12.4391" x2="17" y2="21" gradientUnits="userSpaceOnUse">
<stop stop-color="#EE885A"/>
<stop offset="1" stop-color="#FAAE60"/>
</linearGradient>
</defs>
</svg>
