<svg width="36" height="29" viewBox="0 0 36 29" fill="none" xmlns="http://www.w3.org/2000/svg">
<path d="M18 0C14.759 0.00046583 11.5782 0.875868 8.79336 2.53382C6.0085 4.19177 3.72287 6.57077 2.17769 9.41975C0.632506 12.2687 -0.11491 15.482 0.0143195 18.7204C0.143549 21.9589 1.14463 25.1024 2.91192 27.8192C3.04817 28.0282 3.23441 28.1999 3.45377 28.3188C3.67312 28.4377 3.91867 28.4999 4.16817 28.5H31.8317C32.0812 28.4999 32.3268 28.4377 32.5461 28.3188C32.7655 28.1999 32.9517 28.0282 33.088 27.8192C34.8553 25.1024 35.8563 21.9589 35.9856 18.7205C36.1148 15.4821 35.3674 12.2688 33.8223 9.41983C32.2771 6.57086 29.9915 4.19185 27.2067 2.53389C24.4218 0.875927 21.2411 0.00049958 18 0V0Z" fill="#34CDFA"/>
<path d="M18 0C14.759 0.00046583 11.5782 0.875868 8.79336 2.53382C6.0085 4.19177 3.72287 6.57077 2.17769 9.41975C0.632506 12.2687 -0.11491 15.482 0.0143195 18.7204C0.143549 21.9589 1.14463 25.1024 2.91192 27.8192C3.04817 28.0282 3.23441 28.1999 3.45377 28.3188C3.67312 28.4377 3.91867 28.4999 4.16817 28.5H31.8317C32.0812 28.4999 32.3268 28.4377 32.5461 28.3188C32.7655 28.1999 32.9517 28.0282 33.088 27.8192C34.8553 25.1024 35.8563 21.9589 35.9856 18.7205C36.1148 15.4821 35.3674 12.2688 33.8223 9.41983C32.2771 6.57086 29.9915 4.19185 27.2067 2.53389C24.4218 0.875927 21.2411 0.00049958 18 0V0Z" fill="url(#paint0_linear_3211_20317)"/>
<path d="M11.8394 4.32901L12.0002 4.60801C12.1691 4.41639 12.3419 4.22826 12.5187 4.04364C12.2899 4.13402 12.0627 4.22795 11.8394 4.32901Z" fill="#E6F9FE"/>
<path d="M11.8394 4.32901L12.0002 4.60801C12.1691 4.41639 12.3419 4.22826 12.5187 4.04364C12.2899 4.13402 12.0627 4.22795 11.8394 4.32901Z" fill="#2A3474"/>
<path d="M10.0631 7.25251L9.24394 5.83276C7.93177 6.77994 6.78012 7.93159 5.83294 9.24377L8.35782 10.7016L6.85782 13.2996L4.32919 11.8391C3.66028 13.3142 3.2367 14.8885 3.0752 16.5H6.00019V19.5H3.0752C3.28401 21.6148 3.94247 23.6605 5.00644 25.5H9.912C8.30676 22.7216 7.47424 19.5643 7.50082 16.3557C7.52739 13.147 8.41209 10.0039 10.0631 7.25251Z" fill="#2A3474"/>
<path d="M32.9252 19.5H30.0002V16.5H32.9252C32.7638 14.8885 32.3402 13.3142 31.6714 11.8391L29.1428 13.299L27.6428 10.701L30.1674 9.24376C29.2203 7.93159 28.0686 6.77994 26.7564 5.83276L25.2986 8.35764L22.7006 6.85764L24.1605 4.32901C22.6857 3.66015 21.1115 3.23658 19.5002 3.07501V6.00001H16.5002V3.07501C15.1347 3.21224 13.7948 3.53815 12.5188 4.04345C12.3419 4.22795 12.1691 4.41614 12.0002 4.60801L13.299 6.85801L10.701 8.35801L10.0635 7.25289C8.41248 10.0042 7.52775 13.1472 7.50111 16.3558C7.47447 19.5644 8.30689 22.7216 9.912 25.5H30.9939C32.0578 23.6604 32.7163 21.6148 32.9252 19.5Z" fill="url(#paint1_linear_3211_20317)" fill-opacity="0.8"/>
<path d="M22.5002 11.7062C22.5002 11.7062 15.3441 15.1009 14.1032 17.25C13.5159 18.283 13.361 19.5064 13.6724 20.6532C13.9837 21.8 14.736 22.7771 15.7651 23.3712C16.7942 23.9654 18.0165 24.1284 19.1654 23.8247C20.3142 23.5209 21.2963 22.7751 21.8972 21.75C23.1377 19.6014 22.5002 11.7062 22.5002 11.7062ZM18.0002 21C17.7036 21 17.4135 20.912 17.1669 20.7472C16.9202 20.5824 16.7279 20.3481 16.6144 20.074C16.5009 19.7999 16.4712 19.4983 16.529 19.2074C16.5869 18.9164 16.7298 18.6491 16.9396 18.4393C17.1493 18.2296 17.4166 18.0867 17.7076 18.0288C17.9986 17.9709 18.3002 18.0006 18.5743 18.1142C18.8483 18.2277 19.0826 18.42 19.2474 18.6666C19.4123 18.9133 19.5002 19.2033 19.5002 19.5C19.5002 19.8978 19.3422 20.2793 19.0609 20.5606C18.7796 20.842 18.3981 21 18.0002 21Z" fill="url(#paint2_linear_3211_20317)"/>
<path d="M22.5002 11.7062C22.5002 11.7062 15.3441 15.1009 14.1032 17.25C13.5159 18.283 13.361 19.5064 13.6724 20.6532C13.9837 21.8 14.736 22.7771 15.7651 23.3712C16.7942 23.9654 18.0165 24.1284 19.1654 23.8247C20.3142 23.5209 21.2963 22.7751 21.8972 21.75C23.1377 19.6014 22.5002 11.7062 22.5002 11.7062ZM18.0002 21C17.7036 21 17.4135 20.912 17.1669 20.7472C16.9202 20.5824 16.7279 20.3481 16.6144 20.074C16.5009 19.7999 16.4712 19.4983 16.529 19.2074C16.5869 18.9164 16.7298 18.6491 16.9396 18.4393C17.1493 18.2296 17.4166 18.0867 17.7076 18.0288C17.9986 17.9709 18.3002 18.0006 18.5743 18.1142C18.8483 18.2277 19.0826 18.42 19.2474 18.6666C19.4123 18.9133 19.5002 19.2033 19.5002 19.5C19.5002 19.8978 19.3422 20.2793 19.0609 20.5606C18.7796 20.842 18.3981 21 18.0002 21Z" fill="url(#paint3_linear_3211_20317)"/>
<defs>
<linearGradient id="paint0_linear_3211_20317" x1="21.6" y1="19.5937" x2="20.6395" y2="8.74971" gradientUnits="userSpaceOnUse">
<stop stop-color="#5B99FA"/>
<stop offset="1" stop-color="#5560F9"/>
</linearGradient>
<linearGradient id="paint1_linear_3211_20317" x1="15.3294" y1="0.271883" x2="26.5364" y2="2.15865" gradientUnits="userSpaceOnUse">
<stop stop-color="#2E3986"/>
<stop offset="1" stop-color="#1D286A"/>
</linearGradient>
<linearGradient id="paint2_linear_3211_20317" x1="14.8369" y1="22.7014" x2="24.1665" y2="13.3717" gradientUnits="userSpaceOnUse">
<stop stop-color="#34CDFA"/>
<stop offset="1" stop-color="#E8D9F1"/>
</linearGradient>
<linearGradient id="paint3_linear_3211_20317" x1="18.0896" y1="11.7062" x2="18.0896" y2="23.9741" gradientUnits="userSpaceOnUse">
<stop stop-color="#EE885A"/>
<stop offset="1" stop-color="#FAAE60"/>
</linearGradient>
</defs>
</svg>
