<svg width="48" height="48" viewBox="0 0 48 48" fill="none" xmlns="http://www.w3.org/2000/svg">
<g clip-path="url(#clip0_3211_20503)">
<path d="M8 36C11.3137 36 14 33.3137 14 30C14 26.6863 11.3137 24 8 24C4.68629 24 2 26.6863 2 30C2 33.3137 4.68629 36 8 36Z" fill="#CCF2FE"/>
<path d="M8 36C11.3137 36 14 33.3137 14 30C14 26.6863 11.3137 24 8 24C4.68629 24 2 26.6863 2 30C2 33.3137 4.68629 36 8 36Z" fill="url(#paint0_linear_3211_20503)"/>
<path d="M8 36C11.3137 36 14 33.3137 14 30C14 26.6863 11.3137 24 8 24C4.68629 24 2 26.6863 2 30C2 33.3137 4.68629 36 8 36Z" fill="url(#paint1_linear_3211_20503)"/>
<path d="M10.0001 34C8.9347 34.0005 7.88842 33.7171 6.96886 33.1791C6.0493 32.6411 5.28965 31.8679 4.76805 30.9389C4.24644 30.01 3.98172 28.9588 4.0011 27.8936C4.02049 26.8284 4.32328 25.7876 4.87833 24.8782C4.10273 25.3507 3.44453 25.9931 2.95338 26.757C2.46223 27.5209 2.15094 28.3864 2.04301 29.2881C1.93507 30.1899 2.03329 31.1044 2.33027 31.9626C2.62725 32.8209 3.11523 33.6005 3.75741 34.2426C4.39959 34.8848 5.1792 35.3728 6.03745 35.6698C6.8957 35.9668 7.81018 36.065 8.71192 35.957C9.61366 35.8491 10.4791 35.5378 11.243 35.0467C12.0069 34.5555 12.6494 33.8973 13.1218 33.1217C12.1824 33.6972 11.1018 34.0012 10.0001 34Z" fill="#99E6FD"/>
<path d="M10.0001 34C8.9347 34.0005 7.88842 33.7171 6.96886 33.1791C6.0493 32.6411 5.28965 31.8679 4.76805 30.9389C4.24644 30.01 3.98172 28.9588 4.0011 27.8936C4.02049 26.8284 4.32328 25.7876 4.87833 24.8782C4.10273 25.3507 3.44453 25.9931 2.95338 26.757C2.46223 27.5209 2.15094 28.3864 2.04301 29.2881C1.93507 30.1899 2.03329 31.1044 2.33027 31.9626C2.62725 32.8209 3.11523 33.6005 3.75741 34.2426C4.39959 34.8848 5.1792 35.3728 6.03745 35.6698C6.8957 35.9668 7.81018 36.065 8.71192 35.957C9.61366 35.8491 10.4791 35.5378 11.243 35.0467C12.0069 34.5555 12.6494 33.8973 13.1218 33.1217C12.1824 33.6972 11.1018 34.0012 10.0001 34Z" fill="url(#paint2_linear_3211_20503)"/>
<path d="M10 36H6C4.40925 36.0018 2.88417 36.6345 1.75933 37.7593C0.634502 38.8842 0.00178658 40.4092 0 42L0 46C0 46.5304 0.210714 47.0391 0.585787 47.4142C0.96086 47.7893 1.46957 48 2 48H14C14.5304 48 15.0391 47.7893 15.4142 47.4142C15.7893 47.0391 16 46.5304 16 46V42C15.9982 40.4092 15.3655 38.8842 14.2407 37.7593C13.1158 36.6345 11.5908 36.0018 10 36Z" fill="#CCF2FE"/>
<path d="M10 36H6C4.40925 36.0018 2.88417 36.6345 1.75933 37.7593C0.634502 38.8842 0.00178658 40.4092 0 42L0 46C0 46.5304 0.210714 47.0391 0.585787 47.4142C0.96086 47.7893 1.46957 48 2 48H14C14.5304 48 15.0391 47.7893 15.4142 47.4142C15.7893 47.0391 16 46.5304 16 46V42C15.9982 40.4092 15.3655 38.8842 14.2407 37.7593C13.1158 36.6345 11.5908 36.0018 10 36Z" fill="url(#paint3_linear_3211_20503)"/>
<path d="M10 36H6C4.40925 36.0018 2.88417 36.6345 1.75933 37.7593C0.634502 38.8842 0.00178658 40.4092 0 42L0 46C0 46.5304 0.210714 47.0391 0.585787 47.4142C0.96086 47.7893 1.46957 48 2 48H14C14.5304 48 15.0391 47.7893 15.4142 47.4142C15.7893 47.0391 16 46.5304 16 46V42C15.9982 40.4092 15.3655 38.8842 14.2407 37.7593C13.1158 36.6345 11.5908 36.0018 10 36Z" fill="url(#paint4_linear_3211_20503)"/>
<path d="M4 46V42C4.00179 40.4092 4.6345 38.8842 5.75933 37.7593C6.88416 36.6345 8.40925 36.0018 10 36H6C4.40925 36.0018 2.88416 36.6345 1.75933 37.7593C0.634501 38.8842 0.00178658 40.4092 0 42L0 46C0 46.5304 0.210714 47.0391 0.585787 47.4142C0.960859 47.7893 1.46957 48 2 48H6C5.46957 48 4.96086 47.7893 4.58579 47.4142C4.21071 47.0391 4 46.5304 4 46Z" fill="#99E6FD"/>
<path d="M4 46V42C4.00179 40.4092 4.6345 38.8842 5.75933 37.7593C6.88416 36.6345 8.40925 36.0018 10 36H6C4.40925 36.0018 2.88416 36.6345 1.75933 37.7593C0.634501 38.8842 0.00178658 40.4092 0 42L0 46C0 46.5304 0.210714 47.0391 0.585787 47.4142C0.960859 47.7893 1.46957 48 2 48H6C5.46957 48 4.96086 47.7893 4.58579 47.4142C4.21071 47.0391 4 46.5304 4 46Z" fill="url(#paint5_linear_3211_20503)"/>
<path d="M30 0C20.075 0 12 7.1775 12 16C12 20.3415 13.9548 24.439 17.4118 27.4402L16.1028 31.3675C15.5528 33.0192 17.3308 34.571 18.8945 33.7887L24.1847 31.1437C26.0703 31.7145 28.03 32.003 30 32C39.925 32 48 24.8225 48 16C48 7.1775 39.925 0 30 0Z" fill="url(#paint6_linear_3211_20503)"/>
<path d="M30 18C31.1046 18 32 17.1046 32 16C32 14.8954 31.1046 14 30 14C28.8954 14 28 14.8954 28 16C28 17.1046 28.8954 18 30 18Z" fill="white"/>
<path d="M38 18C39.1046 18 40 17.1046 40 16C40 14.8954 39.1046 14 38 14C36.8954 14 36 14.8954 36 16C36 17.1046 36.8954 18 38 18Z" fill="white"/>
<path d="M22 18C23.1046 18 24 17.1046 24 16C24 14.8954 23.1046 14 22 14C20.8954 14 20 14.8954 20 16C20 17.1046 20.8954 18 22 18Z" fill="white"/>
</g>
<defs>
<linearGradient id="paint0_linear_3211_20503" x1="9.20001" y1="32.25" x2="8.69153" y2="27.7052" gradientUnits="userSpaceOnUse">
<stop stop-color="#5B99FA"/>
<stop offset="1" stop-color="#5560F9"/>
</linearGradient>
<linearGradient id="paint1_linear_3211_20503" x1="8" y1="24" x2="8" y2="36" gradientUnits="userSpaceOnUse">
<stop stop-color="#56A2ED"/>
<stop offset="1" stop-color="#4AC3FC"/>
</linearGradient>
<linearGradient id="paint2_linear_3211_20503" x1="8.6733" y1="32.5241" x2="8.20206" y2="28.3121" gradientUnits="userSpaceOnUse">
<stop stop-color="#5B99FA"/>
<stop offset="1" stop-color="#5560F9"/>
</linearGradient>
<linearGradient id="paint3_linear_3211_20503" x1="9.60001" y1="44.25" x2="9.21658" y2="39.6804" gradientUnits="userSpaceOnUse">
<stop stop-color="#5B99FA"/>
<stop offset="1" stop-color="#5560F9"/>
</linearGradient>
<linearGradient id="paint4_linear_3211_20503" x1="8" y1="36" x2="8" y2="48" gradientUnits="userSpaceOnUse">
<stop stop-color="#56A2ED"/>
<stop offset="1" stop-color="#4AC3FC"/>
</linearGradient>
<linearGradient id="paint5_linear_3211_20503" x1="6.00001" y1="44.25" x2="5.39314" y2="39.7297" gradientUnits="userSpaceOnUse">
<stop stop-color="#5B99FA"/>
<stop offset="1" stop-color="#5560F9"/>
</linearGradient>
<linearGradient id="paint6_linear_3211_20503" x1="30" y1="0" x2="30" y2="33.9974" gradientUnits="userSpaceOnUse">
<stop stop-color="#EE885A"/>
<stop offset="1" stop-color="#FAAE60"/>
</linearGradient>
<clipPath id="clip0_3211_20503">
<rect width="48" height="48" fill="white"/>
</clipPath>
</defs>
</svg>
